Coval-Light.ufo
<glyph name="quotedbl" format="2">
  <advance width="525"/>
  <unicode hex="0022"/>
  <outline>
    <contour>
      <point x="317" y="695" type="line"/>
      <point x="382" y="695" type="line"/>
      <point x="375" y="386" type="line"/>
      <point x="324" y="386" type="line"/>
    </contour>
    <contour>
      <point x="142" y="695" type="line"/>
      <point x="207" y="695" type="line"/>
      <point x="200" y="386" type="line"/>
      <point x="149" y="386" type="line"/>
    </contour>
  </outline>
</glyph>
<glyph name="numbersign" format="2">
  <advance width="875"/>
  <unicode hex="0023"/>
  <outline>
    <contour>
      <point x="79" y="183" type="line"/>
      <point x="269" y="183" type="line"/>
      <point x="316" y="345" type="line"/>
      <point x="109" y="345" type="line"/>
      <point x="129" y="396" type="line"/>
      <point x="331" y="396" type="line"/>
      <point x="418" y="694" type="line"/>
      <point x="472" y="694" type="line"/>
      <point x="383" y="396" type="line"/>
      <point x="568" y="396" type="line"/>
      <point x="656" y="694" type="line"/>
      <point x="707" y="694" type="line"/>
      <point x="621" y="396" type="line"/>
      <point x="806" y="396" type="line"/>
      <point x="786" y="345" type="line"/>
      <point x="605" y="345" type="line"/>
      <point x="558" y="183" type="line"/>
      <point x="756" y="183" type="line"/>
      <point x="736" y="132" type="line"/>
      <point x="543" y="132" type="line"/>
      <point x="459" y="-167" type="line"/>
      <point x="404" y="-167" type="line"/>
      <point x="491" y="132" type="line"/>
      <point x="306" y="132" type="line"/>
      <point x="220" y="-167" type="line"/>
      <point x="167" y="-167" type="line"/>
      <point x="253" y="132" type="line"/>
      <point x="59" y="132" type="line"/>
    </contour>
    <contour>
      <point x="321" y="183" type="line"/>
      <point x="506" y="183" type="line"/>
      <point x="553" y="345" type="line"/>
      <point x="368" y="345" type="line"/>
    </contour>
  </outline>
</glyph>
<glyph name="dollar" format="2">
  <advance width="525"/>
  <unicode hex="0024"/>
  <outline>
    <contour>
      <point x="46" y="61" type="curve"/>
      <point x="56" y="119" type="line"/>
      <point x="117" y="74"/>
      <point x="157" y="54"/>
      <point x="236" y="46" type="curve"/>
      <point x="236" y="331" type="line"/>
      <point x="70" y="366"/>
      <point x="58" y="482"/>
      <point x="58" y="516" type="curve" smooth="yes"/>
      <point x="58" y="596"/>
      <point x="116" y="685"/>
      <point x="236" y="701" type="curve"/>
      <point x="236" y="750" type="line"/>
      <point x="287" y="750" type="line"/>
      <point x="287" y="702" type="line"/>
      <point x="352" y="699"/>
      <point x="399" y="678"/>
      <point x="448" y="647" type="curve"/>
      <point x="438" y="592" type="line"/>
      <point x="408" y="611" type="line" smooth="yes"/>
      <point x="377" y="630"/>
      <point x="342" y="645"/>
      <point x="287" y="649" type="curve"/>
      <point x="287" y="391" type="line"/>
      <point x="456" y="355"/>
      <point x="465" y="226"/>
      <point x="465" y="192" type="curve" smooth="yes"/>
      <point x="465" y="93"/>
      <point x="391" y="6"/>
      <point x="287" y="-6" type="curve"/>
      <point x="287" y="-55" type="line"/>
      <point x="236" y="-55" type="line"/>
      <point x="236" y="-7" type="line"/>
      <point x="161" y="-3"/>
      <point x="98" y="25"/>
    </contour>
    <contour>
      <point x="117" y="525" type="curve" smooth="yes"/>
      <point x="117" y="503"/>
      <point x="124" y="428"/>
      <point x="236" y="403" type="curve"/>
      <point x="236" y="648" type="line"/>
      <point x="152" y="633"/>
      <point x="117" y="574"/>
    </contour>
    <contour>
      <point x="287" y="47" type="line"/>
      <point x="354" y="59"/>
      <point x="406" y="113"/>
      <point x="406" y="183" type="curve" smooth="yes"/>
      <point x="406" y="237"/>
      <point x="375" y="298"/>
      <point x="287" y="319" type="curve"/>
    </contour>
  </outline>
</glyph>
<glyph name="percent" format="2">
  <advance width="875"/>
  <unicode hex="0025"/>
  <outline>
    <contour>
      <point x="586" y="146" type="curve" smooth="yes"/>
      <point x="586" y="65"/>
      <point x="607" y="-5"/>
      <point x="670" y="-5" type="curve" smooth="yes"/>
      <point x="722" y="-5"/>
      <point x="758" y="67"/>
      <point x="758" y="146" type="curve" smooth="yes"/>
      <point x="758" y="236"/>
      <point x="716" y="297"/>
      <point x="670" y="297" type="curve" smooth="yes"/>
      <point x="600" y="297"/>
      <point x="586" y="208"/>
    </contour>
    <contour>
      <point x="524" y="146" type="curve" smooth="yes"/>
      <point x="524" y="256"/>
      <point x="590" y="347"/>
      <point x="670" y="347" type="curve" smooth="yes"/>
      <point x="739" y="347"/>
      <point x="816" y="273"/>
      <point x="816" y="145" type="curve" smooth="yes"/>
      <point x="816" y="35"/>
      <point x="751" y="-55"/>
      <point x="671" y="-55" type="curve" smooth="yes"/>
      <point x="598" y="-55"/>
      <point x="524" y="24"/>
    </contour>
    <contour>
      <point x="119" y="549" type="curve" smooth="yes"/>
      <point x="119" y="458"/>
      <point x="145" y="398"/>
      <point x="204" y="398" type="curve" smooth="yes"/>
      <point x="256" y="398" name=".hr01"/>
      <point x="291" y="470"/>
      <point x="291" y="549" type="curve" smooth="yes"/>
      <point x="291" y="638"/>
      <point x="250" y="699"/>
      <point x="203" y="699" type="curve" smooth="yes"/>
      <point x="148" y="699"/>
      <point x="119" y="632"/>
    </contour>
    <contour>
      <point x="58" y="549" type="curve" smooth="yes"/>
      <point x="58" y="661"/>
      <point x="125" y="750"/>
      <point x="205" y="750" type="curve" smooth="yes"/>
      <point x="276" y="750"/>
      <point x="350" y="672"/>
      <point x="350" y="548" type="curve" smooth="yes"/>
      <point x="350" y="437"/>
      <point x="285" y="347"/>
      <point x="205" y="347" type="curve" smooth="yes"/>
      <point x="132" y="347"/>
      <point x="58" y="427"/>
    </contour>
    <contour>
      <point x="715" y="750" type="line"/>
      <point x="225" y="-55" type="line"/>
      <point x="160" y="-55" type="line"/>
      <point x="650.086" y="750" type="line"/>
    </contour>
  </outline>
</glyph>
<glyph name="ampersand" format="2">
  <advance width="761"/>
  <unicode hex="0026"/>
  <outline>
    <contour>
      <point x="43" y="143" type="curve" smooth="yes"/>
      <point x="43" y="265.566"/>
      <point x="139.869" y="335.604"/>
      <point x="201" y="375" type="curve"/>
      <point x="189.706" y="417.419"/>
      <point x="177" y="460.721"/>
      <point x="177" y="527" type="curve" smooth="yes"/>
      <point x="177" y="632"/>
      <point x="231" y="711"/>
      <point x="312" y="711" type="curve" smooth="yes"/>
      <point x="387" y="711"/>
      <point x="436" y="671.655"/>
      <point x="436" y="586" type="curve" smooth="yes"/>
      <point x="436" y="543"/>
      <point x="408.333" y="481"/>
      <point x="270" y="370" type="curve"/>
      <point x="325.298" y="215.982"/>
      <point x="422.222" y="137.163"/>
      <point x="452" y="114" type="curve"/>
      <point x="478" y="134.063"/>
      <point x="591" y="224.348"/>
      <point x="646" y="431" type="curve"/>
      <point x="699" y="417" type="line"/>
      <point x="641" y="195"/>
      <point x="508" y="94"/>
      <point x="493" y="79" type="curve"/>
      <point x="531.836" y="53.6073"/>
      <point x="557.532" y="37"/>
      <point x="615" y="37" type="curve" smooth="yes"/>
      <point x="678" y="37"/>
      <point x="716" y="56"/>
      <point x="724" y="57" type="curve"/>
      <point x="724" y="0" type="line"/>
      <point x="682" y="-13"/>
      <point x="647" y="-17"/>
      <point x="614" y="-17" type="curve" smooth="yes"/>
      <point x="546" y="-17"/>
      <point x="493" y="9"/>
      <point x="444" y="45" type="curve"/>
      <point x="397" y="13"/>
      <point x="320" y="-17"/>
      <point x="237" y="-17" type="curve" smooth="yes"/>
      <point x="122" y="-17"/>
      <point x="43" y="56"/>
    </contour>
    <contour>
      <point x="108" y="149" type="curve" smooth="yes"/>
      <point x="108" y="94"/>
      <point x="154" y="36"/>
      <point x="236" y="36" type="curve" smooth="yes"/>
      <point x="303" y="36"/>
      <point x="354" y="56"/>
      <point x="403" y="81" type="curve"/>
      <point x="326.692" y="146.375"/>
      <point x="271.997" y="200.645"/>
      <point x="223" y="327" type="curve"/>
      <point x="183.3" y="297.364"/>
      <point x="108" y="237.062"/>
    </contour>
    <contour>
      <point x="230" y="557" type="curve" smooth="yes"/>
      <point x="230" y="501.975"/>
      <point x="240.483" y="452.19"/>
      <point x="249" y="419" type="curve"/>
      <point x="268.513" y="433.91"/>
      <point x="378" y="518.398"/>
      <point x="378" y="584" type="curve" smooth="yes"/>
      <point x="378" y="608.865"/>
      <point x="364" y="661"/>
      <point x="310" y="661" type="curve" smooth="yes"/>
      <point x="278" y="661"/>
      <point x="230" y="633"/>
    </contour>
  </outline>
</glyph>
<glyph name="quotesingle" format="2">
  <advance width="292"/>
  <unicode hex="0027"/>
  <outline>
    <contour>
      <point x="113" y="695" type="line"/>
      <point x="178" y="695" type="line"/>
      <point x="171" y="386" type="line"/>
      <point x="120" y="386" type="line"/>
    </contour>
  </outline>
</glyph>
<glyph name="parenleft" format="2">
  <advance width="408"/>
  <unicode hex="0028"/>
  <outline>
    <contour>
      <point x="91" y="264" type="curve" smooth="yes"/>
      <point x="91" y="456"/>
      <point x="153" y="633"/>
      <point x="299" y="750" type="curve"/>
      <point x="349" y="750" type="line"/>
      <point x="310" y="714"/>
      <point x="155" y="580"/>
      <point x="155" y="264" type="curve" smooth="yes"/>
      <point x="155" y="-51"/>
      <point x="310" y="-188"/>
      <point x="349" y="-222" type="curve"/>
      <point x="299" y="-222" type="line"/>
      <point x="153" y="-105"/>
      <point x="91" y="72"/>
    </contour>
  </outline>
</glyph>
<glyph name="parenright" format="2">
  <advance width="408"/>
  <unicode hex="0029"/>
  <outline>
    <contour>
      <point x="58" y="-222" type="line"/>
      <point x="97" y="-186"/>
      <point x="252" y="-52"/>
      <point x="252" y="264" type="curve" smooth="yes"/>
      <point x="252" y="517"/>
      <point x="153" y="653"/>
      <point x="93" y="716" type="curve"/>
      <point x="93" y="716" type="line"/>
      <point x="78" y="732"/>
      <point x="66" y="743"/>
      <point x="58" y="750" type="curve"/>
      <point x="108" y="750" type="line"/>
      <point x="254" y="633"/>
      <point x="316" y="456"/>
      <point x="316" y="264" type="curve" smooth="yes"/>
      <point x="316" y="72"/>
      <point x="254" y="-105"/>
      <point x="108" y="-222" type="curve"/>
      <point x="83" y="-222" type="line"/>
    </contour>
  </outline>
</glyph>
<glyph name="asterisk" format="2">
  <advance width="525"/>
  <unicode hex="002A"/>
  <outline>
    <contour>
      <point x="77" y="441" type="curve" smooth="yes"/>
      <point x="77" y="464"/>
      <point x="105" y="469"/>
      <point x="236" y="535" type="curve"/>
      <point x="159" y="573" type="line" smooth="yes"/>
      <point x="78" y="613"/>
      <point x="77" y="614"/>
      <point x="77" y="628" type="curve" smooth="yes"/>
      <point x="77" y="640"/>
      <point x="89" y="655"/>
      <point x="104" y="655" type="curve" smooth="yes"/>
      <point x="117" y="655"/>
      <point x="142" y="632"/>
      <point x="248" y="558" type="curve" name=".hr01"/>
      <point x="242" y="638" type="line" smooth="yes"/>
      <point x="239" y="680"/>
      <point x="236" y="718"/>
      <point x="236" y="722" type="curve" smooth="yes"/>
      <point x="236" y="746"/>
      <point x="255" y="749"/>
      <point x="262" y="749" type="curve" smooth="yes"/>
      <point x="276" y="749"/>
      <point x="287" y="742"/>
      <point x="287" y="709" type="curve"/>
      <point x="285" y="687"/>
      <point x="281" y="645"/>
      <point x="275" y="558" type="curve" name=".hr02"/>
      <point x="338" y="603" type="line" smooth="yes"/>
      <point x="405" y="651"/>
      <point x="409" y="655"/>
      <point x="419" y="655" type="curve" smooth="yes"/>
      <point x="436" y="655"/>
      <point x="446" y="639"/>
      <point x="446" y="628" type="curve" smooth="yes"/>
      <point x="446" y="623"/>
      <point x="445" y="620"/>
      <point x="442" y="616" type="curve" smooth="yes"/>
      <point x="432" y="602"/>
      <point x="391" y="587"/>
      <point x="287" y="535" type="curve" name=".hr03"/>
      <point x="364" y="497" type="line" smooth="yes"/>
      <point x="445" y="457"/>
      <point x="446" y="456"/>
      <point x="446" y="441" type="curve" smooth="yes"/>
      <point x="446" y="429"/>
      <point x="435" y="415"/>
      <point x="420" y="415" type="curve" smooth="yes"/>
      <point x="408" y="415"/>
      <point x="380" y="437"/>
      <point x="275" y="511" type="curve" name=".hr04"/>
      <point x="279" y="457"/>
      <point x="287" y="354" name=".hr05"/>
      <point x="287" y="348" type="curve" smooth="yes"/>
      <point x="287" y="324"/>
      <point x="268" y="320"/>
      <point x="262" y="320" type="curve" smooth="yes"/>
      <point x="242" y="320"/>
      <point x="236" y="333"/>
      <point x="236" y="360" type="curve"/>
      <point x="237" y="371"/>
      <point x="238" y="386"/>
      <point x="240" y="410" type="curve" smooth="yes"/>
      <point x="248" y="511" type="line"/>
      <point x="126" y="425"/>
      <point x="116" y="415"/>
      <point x="104" y="415" type="curve" smooth="yes"/>
      <point x="87" y="415"/>
      <point x="77" y="431" name=".hr06"/>
    </contour>
  </outline>
</glyph>
<glyph name="plus" format="2">
  <advance width="642"/>
  <unicode hex="002B"/>
  <outline>
    <contour>
      <point x="58" y="290" type="line"/>
      <point x="295" y="290" type="line"/>
      <point x="295" y="526" type="line"/>
      <point x="346" y="526" type="line"/>
      <point x="346" y="290" type="line"/>
      <point x="584" y="290" type="line"/>
      <point x="584" y="239" type="line"/>
      <point x="346" y="239" type="line"/>
      <point x="346" y="0" type="line"/>
      <point x="295" y="0" type="line"/>
      <point x="295" y="239" type="line"/>
      <point x="58" y="239" type="line"/>
    </contour>
  </outline>
</glyph>
<glyph name="hyphen" format="2">
  <advance width="350"/>
  <unicode hex="002D"/>
  <outline>
    <contour>
      <point x="11" y="211" type="line"/>
      <point x="11" y="261" type="line"/>
      <point x="291" y="261" type="line"/>
      <point x="291" y="211" type="line"/>
    </contour>
  </outline>
</glyph>
<glyph name="slash" format="2">
  <advance width="525"/>
  <unicode hex="002F"/>
  <outline>
    <contour>
      <point x="484" y="749" type="line"/>
      <point x="107" y="-222" type="line"/>
      <point x="40.1113" y="-222" type="line"/>
      <point x="417.077" y="749" type="line"/>
    </contour>
  </outline>
</glyph>
<glyph name="zero" format="2">
  <advance width="525"/>
  <unicode hex="0030"/>
  <outline>
    <contour>
      <point x="52" y="328" type="curve" smooth="yes"/>
      <point x="52" y="488"/>
      <point x="67" y="673"/>
      <point x="262" y="673" type="curve" smooth="yes"/>
      <point x="457" y="673"/>
      <point x="472" y="488"/>
      <point x="472" y="328" type="curve" smooth="yes"/>
      <point x="472" y="168"/>
      <point x="457" y="-17"/>
      <point x="262" y="-17" type="curve" smooth="yes"/>
      <point x="67" y="-17"/>
      <point x="52" y="168"/>
    </contour>
    <contour>
      <point x="117" y="258" type="line" smooth="yes"/>
      <point x="117" y="188"/>
      <point x="132" y="34"/>
      <point x="262" y="34" type="curve" smooth="yes"/>
      <point x="392" y="34"/>
      <point x="408" y="188"/>
      <point x="408" y="258" type="curve" smooth="yes"/>
      <point x="408" y="398" type="line" smooth="yes"/>
      <point x="408" y="468"/>
      <point x="392" y="622"/>
      <point x="262" y="622" type="curve" smooth="yes"/>
      <point x="132" y="622"/>
      <point x="117" y="468"/>
      <point x="117" y="398" type="curve" smooth="yes"/>
    </contour>
  </outline>
</glyph>
<glyph name="one" format="2">
  <advance width="525"/>
  <unicode hex="0031"/>
  <outline>
    <contour>
      <point x="105" y="556" type="curve"/>
      <point x="105" y="607" type="line"/>
      <point x="217" y="607"/>
      <point x="265" y="647"/>
      <point x="291" y="672" type="curve"/>
      <point x="307" y="672" type="line"/>
      <point x="307" y="50" type="line"/>
      <point x="438" y="50" type="line"/>
      <point x="438" y="0" type="line"/>
      <point x="111" y="0" type="line"/>
      <point x="111" y="50" type="line"/>
      <point x="242" y="50" type="line"/>
      <point x="242" y="585" type="line"/>
      <point x="230" y="579"/>
      <point x="187" y="556"/>
    </contour>
  </outline>
</glyph>
<glyph name="two" format="2">
  <advance width="525"/>
  <unicode hex="0032"/>
  <outline>
    <contour>
      <point x="43" y="504" type="line"/>
      <point x="71" y="591"/>
      <point x="130" y="672"/>
      <point x="261" y="672" type="curve" smooth="yes"/>
      <point x="383" y="672"/>
      <point x="472" y="586"/>
      <point x="472" y="467" type="curve" smooth="yes"/>
      <point x="472" y="375"/>
      <point x="411" y="315"/>
      <point x="322" y="242" type="curve"/>
      <point x="322" y="242" type="line"/>
      <point x="258" y="189"/>
      <point x="290" y="218"/>
      <point x="109" y="56" type="curve"/>
      <point x="472" y="56" type="line"/>
      <point x="472" y="0" type="line"/>
      <point x="52" y="0" type="line"/>
      <point x="52" y="53" type="line"/>
      <point x="202" y="193"/>
      <point x="187" y="180"/>
      <point x="263" y="244" type="curve"/>
      <point x="263" y="244" type="line"/>
      <point x="345" y="314"/>
      <point x="405" y="377"/>
      <point x="405" y="466" type="curve" smooth="yes"/>
      <point x="405" y="564"/>
      <point x="327" y="619"/>
      <point x="247" y="619" type="curve" smooth="yes"/>
      <point x="130" y="619"/>
      <point x="88" y="484"/>
      <point x="80" y="459" type="curve"/>
    </contour>
  </outline>
</glyph>
<glyph name="three" format="2">
  <advance width="525"/>
  <unicode hex="0033"/>
  <outline>
    <contour>
      <point x="48" y="82" type="curve"/>
      <point x="76" y="128" type="line"/>
      <point x="143" y="42"/>
      <point x="202" y="35"/>
      <point x="263" y="35" type="curve" smooth="yes"/>
      <point x="353" y="35"/>
      <point x="410" y="98"/>
      <point x="410" y="182" type="curve" smooth="yes"/>
      <point x="410" y="295"/>
      <point x="326" y="329"/>
      <point x="243" y="329" type="curve" smooth="yes"/>
      <point x="174" y="329" type="line"/>
      <point x="174" y="379" type="line"/>
      <point x="241" y="384" type="line" smooth="yes"/>
      <point x="290" y="388"/>
      <point x="385" y="422" name=".hr01"/>
      <point x="385" y="514" type="curve" smooth="yes"/>
      <point x="385" y="577"/>
      <point x="321" y="620"/>
      <point x="254" y="620" type="curve" smooth="yes"/>
      <point x="149" y="620"/>
      <point x="101" y="512"/>
      <point x="98" y="506" type="curve"/>
      <point x="62" y="550" type="line"/>
      <point x="121" y="670"/>
      <point x="222" y="672"/>
      <point x="254" y="672" type="curve" smooth="yes"/>
      <point x="359" y="672"/>
      <point x="451" y="616"/>
      <point x="451" y="514" type="curve" smooth="yes"/>
      <point x="451" y="465"/>
      <point x="424" y="396"/>
      <point x="329" y="355" type="curve"/>
      <point x="433" y="326"/>
      <point x="480" y="250" name=".hr02"/>
      <point x="480" y="181" type="curve" smooth="yes"/>
      <point x="480" y="84"/>
      <point x="408" y="-17"/>
      <point x="256" y="-17" type="curve" smooth="yes"/>
      <point x="123" y="-17"/>
      <point x="63" y="58"/>
    </contour>
  </outline>
</glyph>
<glyph name="four" format="2">
  <advance width="525"/>
  <unicode hex="0034"/>
  <outline>
    <contour>
      <point x="29" y="181" type="line"/>
      <point x="29" y="235" type="line"/>
      <point x="305" y="664" type="line"/>
      <point x="381" y="664" type="line"/>
      <point x="381" y="234" type="line"/>
      <point x="495" y="234" type="line"/>
      <point x="495" y="181" type="line"/>
      <point x="381" y="181" type="line"/>
      <point x="381" y="0" type="line"/>
      <point x="318" y="0" type="line"/>
      <point x="318" y="181" type="line"/>
    </contour>
    <contour>
      <point x="94" y="234" type="line"/>
      <point x="321" y="234" type="line"/>
      <point x="321" y="607" type="line"/>
      <point x="304" y="563"/>
      <point x="196" y="394"/>
      <point x="135" y="298" type="curve" smooth="yes"/>
    </contour>
  </outline>
</glyph>
<glyph name="five" format="2">
  <advance width="525"/>
  <unicode hex="0035"/>
  <outline>
    <contour>
      <point x="47" y="81" type="curve"/>
      <point x="76" y="128" type="line"/>
      <point x="136" y="42"/>
      <point x="216" y="35"/>
      <point x="247" y="35" type="curve" smooth="yes"/>
      <point x="339" y="35"/>
      <point x="401" y="85"/>
      <point x="401" y="205" type="curve" smooth="yes"/>
      <point x="401" y="343"/>
      <point x="327" y="371"/>
      <point x="277" y="371" type="curve" smooth="yes"/>
      <point x="199" y="371"/>
      <point x="163" y="325"/>
      <point x="147" y="297" type="curve"/>
      <point x="91" y="297" type="line"/>
      <point x="91" y="655" type="line"/>
      <point x="437" y="655" type="line"/>
      <point x="437" y="602" type="line"/>
      <point x="152" y="602" type="line"/>
      <point x="152" y="372" type="line"/>
      <point x="188" y="404"/>
      <point x="228" y="422"/>
      <point x="278" y="422" type="curve" smooth="yes"/>
      <point x="383" y="422"/>
      <point x="472" y="325"/>
      <point x="472" y="204" type="curve" smooth="yes"/>
      <point x="472" y="84"/>
      <point x="374" y="-17"/>
      <point x="246" y="-17" type="curve" smooth="yes"/>
      <point x="216" y="-17"/>
      <point x="124" y="-13"/>
    </contour>
  </outline>
</glyph>
<glyph name="six" format="2">
  <advance width="525"/>
  <unicode hex="0036"/>
  <outline>
    <contour>
      <point x="54" y="319" type="curve" smooth="yes"/>
      <point x="54" y="526"/>
      <point x="175" y="672"/>
      <point x="324" y="672" type="curve" smooth="yes"/>
      <point x="366" y="672"/>
      <point x="393" y="667"/>
      <point x="437" y="653" type="curve"/>
      <point x="437" y="601" type="line"/>
      <point x="393" y="616"/>
      <point x="368" y="622"/>
      <point x="322" y="622" type="curve" smooth="yes"/>
      <point x="157.587" y="622"/>
      <point x="121" y="446.681"/>
      <point x="121" y="332" type="curve"/>
      <point x="146.848" y="394"/>
      <point x="206.565" y="451"/>
      <point x="285" y="451" type="curve" smooth="yes"/>
      <point x="416.182" y="451"/>
      <point x="470" y="317"/>
      <point x="470" y="220" type="curve" smooth="yes"/>
      <point x="470" y="115"/>
      <point x="408" y="-17"/>
      <point x="264" y="-17" type="curve" smooth="yes"/>
      <point x="160" y="-17"/>
      <point x="54" y="43"/>
    </contour>
    <contour>
      <point x="125" y="243" type="curve" smooth="yes"/>
      <point x="125" y="177"/>
      <point x="149" y="35"/>
      <point x="264" y="35" type="curve" smooth="yes"/>
      <point x="380" y="35"/>
      <point x="404" y="133"/>
      <point x="404" y="224" type="curve" smooth="yes"/>
      <point x="404" y="313"/>
      <point x="361.015" y="401"/>
      <point x="250" y="401" type="curve" smooth="yes"/>
      <point x="175" y="401"/>
      <point x="125" y="325"/>
    </contour>
  </outline>
</glyph>
<glyph name="seven" format="2">
  <advance width="525"/>
  <unicode hex="0037"/>
  <outline>
    <contour>
      <point x="43" y="600" type="line"/>
      <point x="43" y="655" type="line"/>
      <point x="480" y="655" type="line"/>
      <point x="480" y="602" type="line"/>
      <point x="356" y="472"/>
      <point x="237" y="260"/>
      <point x="237" y="-8" type="curve"/>
      <point x="170" y="-8" type="line"/>
      <point x="170" y="212"/>
      <point x="258" y="435"/>
      <point x="437" y="600" type="curve"/>
    </contour>
  </outline>
</glyph>
<glyph name="eight" format="2">
  <advance width="525"/>
  <unicode hex="0038"/>
  <outline>
    <contour>
      <point x="43" y="181" type="curve" smooth="yes"/>
      <point x="43" y="250"/>
      <point x="88" y="321"/>
      <point x="195" y="354" type="curve"/>
      <point x="141" y="368"/>
      <point x="58" y="415" name=".hr01"/>
      <point x="58" y="501" type="curve" smooth="yes"/>
      <point x="58" y="589"/>
      <point x="142" y="672"/>
      <point x="262" y="672" type="curve" smooth="yes"/>
      <point x="375" y="672"/>
      <point x="466" y="595"/>
      <point x="466" y="502" type="curve" smooth="yes"/>
      <point x="466" y="425"/>
      <point x="402" y="376"/>
      <point x="328" y="354" type="curve"/>
      <point x="400" y="336"/>
      <point x="480" y="275" name=".hr02"/>
      <point x="480" y="181" type="curve" smooth="yes"/>
      <point x="480" y="76"/>
      <point x="386" y="-17"/>
      <point x="261" y="-17" type="curve" smooth="yes"/>
      <point x="147" y="-17"/>
      <point x="43" y="67"/>
    </contour>
    <contour>
      <point x="109" y="181" type="curve" smooth="yes"/>
      <point x="109" y="82"/>
      <point x="176" y="35"/>
      <point x="261" y="35" type="curve" smooth="yes"/>
      <point x="353" y="35"/>
      <point x="414" y="87"/>
      <point x="414" y="182" type="curve" smooth="yes"/>
      <point x="414" y="282"/>
      <point x="343" y="329"/>
      <point x="261" y="329" type="curve" smooth="yes"/>
      <point x="194" y="329"/>
      <point x="109" y="294"/>
    </contour>
    <contour>
      <point x="118" y="501" type="curve" smooth="yes"/>
      <point x="118" y="441"/>
      <point x="158" y="379"/>
      <point x="261" y="379" type="curve" smooth="yes"/>
      <point x="349" y="379"/>
      <point x="405" y="425"/>
      <point x="405" y="501" type="curve" smooth="yes"/>
      <point x="405" y="549"/>
      <point x="380" y="622"/>
      <point x="263" y="622" type="curve" smooth="yes"/>
      <point x="144" y="622"/>
      <point x="118" y="549"/>
    </contour>
  </outline>
</glyph>
<glyph name="nine" format="2">
  <advance width="525"/>
  <unicode hex="0039"/>
  <outline>
    <contour>
      <point x="54" y="438" type="curve" smooth="yes"/>
      <point x="54" y="575"/>
      <point x="155" y="672"/>
      <point x="265" y="672" type="curve" smooth="yes"/>
      <point x="346" y="672"/>
      <point x="470" y="618"/>
      <point x="470" y="332" type="curve" smooth="yes"/>
      <point x="470" y="131"/>
      <point x="356" y="-17"/>
      <point x="216" y="-17" type="curve" smooth="yes"/>
      <point x="164" y="-17"/>
      <point x="128.714" y="-5.13043"/>
      <point x="86" y="22" type="curve"/>
      <point x="112" y="68" type="line"/>
      <point x="126.584" y="57.275"/>
      <point x="157.575" y="35"/>
      <point x="215" y="35" type="curve" smooth="yes"/>
      <point x="379.932" y="35"/>
      <point x="404" y="227.982"/>
      <point x="404" y="324" type="curve"/>
      <point x="375" y="262"/>
      <point x="308" y="204"/>
      <point x="219" y="204" type="curve" smooth="yes"/>
      <point x="105.104" y="204"/>
      <point x="54" y="333.361"/>
    </contour>
    <contour>
      <point x="120" y="427" type="curve" smooth="yes"/>
      <point x="120" y="343"/>
      <point x="142" y="255"/>
      <point x="255" y="255" type="curve" smooth="yes"/>
      <point x="342" y="255"/>
      <point x="400" y="330"/>
      <point x="400" y="415" type="curve" smooth="yes"/>
      <point x="400" y="500"/>
      <point x="373" y="622"/>
      <point x="265" y="622" type="curve" smooth="yes"/>
      <point x="145" y="622"/>
      <point x="120" y="520"/>
    </contour>
  </outline>
</glyph>
<glyph name="colon" format="2">
  <advance width="292"/>
  <unicode hex="003A"/>
  <outline>
    <contour>
      <point x="106" y="0" type="line"/>
      <point x="106" y="78" type="line"/>
      <point x="184" y="78" type="line"/>
      <point x="184" y="0" type="line"/>
    </contour>
    <contour>
      <point x="106" y="394" type="line"/>
      <point x="106" y="472" type="line"/>
      <point x="184" y="472" type="line"/>
      <point x="184" y="394" type="line"/>
    </contour>
  </outline>
</glyph>
<glyph name="less" format="2">
  <advance width="632"/>
  <unicode hex="003C"/>
  <outline>
    <contour>
      <point x="100" y="304" type="line"/>
      <point x="532" y="605" type="line"/>
      <point x="532" y="521" type="line"/>
      <point x="180.5" y="270" type="line"/>
      <point x="180.5" y="260" type="line"/>
      <point x="532" y="20" type="line"/>
      <point x="532" y="-76.5" type="line"/>
      <point x="100" y="226" type="line"/>
    </contour>
  </outline>
</glyph>
<glyph name="equal" format="2">
  <advance width="642"/>
  <unicode hex="003D"/>
  <outline>
    <contour>
      <point x="59" y="192" type="line"/>
      <point x="582" y="192" type="line"/>
      <point x="582" y="142" type="line"/>
      <point x="59" y="142" type="line"/>
    </contour>
    <contour>
      <point x="59" y="386" type="line"/>
      <point x="582" y="386" type="line"/>
      <point x="582" y="336" type="line"/>
      <point x="59" y="336" type="line"/>
    </contour>
  </outline>
</glyph>
<glyph name="greater" format="2">
  <advance width="632"/>
  <unicode hex="003E"/>
  <outline>
    <contour>
      <point x="532" y="304" type="line"/>
      <point x="532" y="226" type="line"/>
      <point x="100" y="-76.5" type="line"/>
      <point x="100" y="20" type="line"/>
      <point x="451.5" y="260" type="line"/>
      <point x="451.5" y="270" type="line"/>
      <point x="100" y="521" type="line"/>
      <point x="100" y="605" type="line"/>
    </contour>
  </outline>
</glyph>
<glyph name="question" format="2">
  <advance width="496"/>
  <unicode hex="003F"/>
  <outline>
    <contour>
      <point x="49" y="593" type="line"/>
      <point x="76" y="656"/>
      <point x="161" y="703"/>
      <point x="237" y="703" type="curve" smooth="yes"/>
      <point x="401" y="703"/>
      <point x="437" y="613"/>
      <point x="437" y="553" type="curve" smooth="yes"/>
      <point x="437" y="419.983"/>
      <point x="264" y="401"/>
      <point x="264" y="213" type="curve" smooth="yes"/>
      <point x="264" y="177" type="line"/>
      <point x="202" y="177" type="line"/>
      <point x="202" y="213" type="line" smooth="yes"/>
      <point x="202" y="426"/>
      <point x="372" y="442.415"/>
      <point x="372" y="555" type="curve" smooth="yes"/>
      <point x="372" y="621"/>
      <point x="311" y="652"/>
      <point x="242" y="652" type="curve" smooth="yes"/>
      <point x="172" y="652"/>
      <point x="108" y="622"/>
      <point x="68" y="540" type="curve"/>
    </contour>
    <contour>
      <point x="194" y="0" type="line"/>
      <point x="194" y="78" type="line"/>
      <point x="272" y="78" type="line"/>
      <point x="272" y="0" type="line"/>
    </contour>
  </outline>
</glyph>
<glyph name="at" format="2">
  <advance width="800"/>
  <unicode hex="0040"/>
  <outline>
    <contour>
      <point x="254" y="242" type="curve" smooth="yes"/>
      <point x="254" y="170.058"/>
      <point x="288.822" y="115"/>
      <point x="352" y="115" type="curve" smooth="yes"/>
      <point x="410.177" y="115"/>
      <point x="465.402" y="148.275"/>
      <point x="494.803" y="201" type="curve"/>
      <point x="526" y="407" type="line"/>
      <point x="490.421" y="440.264"/>
      <point x="445.926" y="450"/>
      <point x="403" y="450" type="curve" smooth="yes"/>
      <point x="324.457" y="450"/>
      <point x="254" y="369.376"/>
    </contour>
    <contour>
      <point x="403" y="653" type="curve" smooth="yes"/>
      <point x="675.568" y="653"/>
      <point x="750" y="441.664"/>
      <point x="750" y="326" type="curve" smooth="yes"/>
      <point x="750" y="122.105"/>
      <point x="677.906" y="55"/>
      <point x="584" y="55" type="curve" smooth="yes"/>
      <point x="510.154" y="55"/>
      <point x="493.558" y="96.9048"/>
      <point x="494" y="135" type="curve"/>
      <point x="448.772" y="87.8941"/>
      <point x="399.357" y="64"/>
      <point x="352" y="64" type="curve" smooth="yes"/>
      <point x="245.805" y="64"/>
      <point x="193" y="141.785"/>
      <point x="193" y="241" type="curve" smooth="yes"/>
      <point x="193" y="391.313"/>
      <point x="284.737" y="500"/>
      <point x="403" y="500" type="curve" smooth="yes"/>
      <point x="456.75" y="500"/>
      <point x="504.504" y="483.922"/>
      <point x="538" y="459" type="curve"/>
      <point x="541.461" y="484" type="line"/>
      <point x="593" y="484" type="line"/>
      <point x="545" y="143" type="line" smooth="yes"/>
      <point x="541.032" y="114"/>
      <point x="554.548" y="97.208"/>
      <point x="586" y="97.208" type="curve" smooth="yes"/>
      <point x="634.669" y="97.208"/>
      <point x="694" y="137.203"/>
      <point x="694" y="326" type="curve" smooth="yes"/>
      <point x="694" y="433.607"/>
      <point x="617.826" y="602"/>
      <point x="402" y="602" type="curve" smooth="yes"/>
      <point x="255.993" y="602"/>
      <point x="111" y="503.885"/>
      <point x="111" y="287" type="curve" smooth="yes"/>
      <point x="111" y="137.082"/>
      <point x="197" y="-8"/>
      <point x="403" y="-8" type="curve" smooth="yes"/>
      <point x="509.909" y="-8"/>
      <point x="539.977" y="3"/>
      <point x="599" y="32" type="curve"/>
      <point x="616" y="-7" type="line"/>
      <point x="568.737" y="-33.9011"/>
      <point x="491.819" y="-58"/>
      <point x="401" y="-58" type="curve" smooth="yes"/>
      <point x="192" y="-58"/>
      <point x="50" y="90.6901"/>
      <point x="50" y="287" type="curve" smooth="yes"/>
      <point x="50" y="512.152"/>
      <point x="211.834" y="653"/>
    </contour>
  </outline>
</glyph>
<glyph name="A" format="2">
  <advance width="676"/>
  <unicode hex="0041"/>
  <anchor x="334" y="790" name="top"/>
  <anchor x="331" y="-50" name="bottom_50"/>
  <anchor x="604" y="10" name="bottom_0"/>
  <anchor x="338" y="-75" name="bottom"/>
  <outline>
    <contour>
      <point x="30" y="0" type="line"/>
      <point x="95" y="0" type="line"/>
      <point x="338.256" y="641.22" type="line"/>
      <point x="329.744" y="641.22" type="line"/>
      <point x="573" y="0" type="line"/>
      <point x="646" y="0" type="line"/>
      <point x="376" y="703" type="line"/>
      <point x="300" y="703" type="line"/>
    </contour>
    <contour>
      <point x="487" y="263" type="line"/>
      <point x="181" y="263" type="line"/>
      <point x="160" y="210" type="line"/>
      <point x="507" y="210" type="line"/>
    </contour>
  </outline>
  <guideline angle="90" x="334" y="0"/>
</glyph>
<glyph name="B" format="2">
  <advance width="669"/>
  <unicode hex="0042"/>
  <anchor x="293" y="790" name="top"/>
  <anchor x="302" y="-60" name="bottom_60"/>
  <anchor x="301" y="0" name="bottom_0"/>
  <outline>
    <contour>
      <point x="80" y="0" type="line"/>
      <point x="80" y="695" type="line"/>
      <point x="373" y="695" type="line" smooth="yes"/>
      <point x="501" y="695"/>
      <point x="580" y="624"/>
      <point x="580" y="520" type="curve" smooth="yes"/>
      <point x="580" y="470"/>
      <point x="541" y="379"/>
      <point x="481" y="368" type="curve"/>
      <point x="548" y="354"/>
      <point x="609" y="285" name=".hr01"/>
      <point x="609" y="188" type="curve" smooth="yes"/>
      <point x="609" y="113"/>
      <point x="552" y="0"/>
      <point x="387" y="0" type="curve" smooth="yes"/>
    </contour>
    <contour>
      <point x="150" y="55" type="line"/>
      <point x="387" y="55" type="line" smooth="yes"/>
      <point x="444" y="55"/>
      <point x="539" y="74"/>
      <point x="539" y="189" type="curve" smooth="yes"/>
      <point x="539" y="268"/>
      <point x="481" y="336"/>
      <point x="385" y="336" type="curve" smooth="yes"/>
      <point x="150" y="336" type="line"/>
    </contour>
    <contour>
      <point x="150" y="391" type="line"/>
      <point x="381" y="391" type="line" smooth="yes"/>
      <point x="462" y="391"/>
      <point x="510" y="455" name=".hr02"/>
      <point x="510" y="519" type="curve" smooth="yes"/>
      <point x="510" y="591"/>
      <point x="450" y="640"/>
      <point x="353" y="640" type="curve" smooth="yes"/>
      <point x="150" y="640" type="line"/>
    </contour>
  </outline>
</glyph>
<glyph name="C" format="2">
  <advance width="671"/>
  <unicode hex="0043"/>
  <anchor x="349" y="790" name="top"/>
  <anchor x="380" y="0" name="bottom_0"/>
  <outline>
    <contour>
      <point x="60" y="347" type="curve" smooth="yes"/>
      <point x="60" y="536"/>
      <point x="193" y="711"/>
      <point x="392" y="711" type="curve" smooth="yes"/>
      <point x="479" y="711"/>
      <point x="538" y="693"/>
      <point x="585" y="677" type="curve"/>
      <point x="572" y="608" type="line"/>
      <point x="516" y="637"/>
      <point x="473" y="658"/>
      <point x="391" y="658" type="curve" smooth="yes"/>
      <point x="247" y="658"/>
      <point x="130" y="524"/>
      <point x="130" y="347" type="curve" smooth="yes"/>
      <point x="130" y="185"/>
      <point x="235" y="36"/>
      <point x="392" y="36" type="curve" smooth="yes"/>
      <point x="472.613" y="36"/>
      <point x="531.947" y="54.188"/>
      <point x="591" y="97" type="curve"/>
      <point x="591" y="39" type="line"/>
      <point x="531.419" y="-1.20578"/>
      <point x="475.293" y="-17"/>
      <point x="392" y="-17" type="curve" smooth="yes"/>
      <point x="193" y="-17"/>
      <point x="60" y="158"/>
    </contour>
  </outline>
</glyph>
<glyph name="D" format="2">
  <advance width="729"/>
  <unicode hex="0044"/>
  <anchor x="293" y="790" name="top"/>
  <anchor x="302" y="-60" name="bottom_60"/>
  <anchor x="302" y="0" name="bottom_0"/>
  <outline>
    <contour>
      <point x="80" y="0" type="line"/>
      <point x="80" y="695" type="line"/>
      <point x="328" y="695" type="line" smooth="yes"/>
      <point x="511" y="695"/>
      <point x="669" y="555"/>
      <point x="669" y="342" type="curve" smooth="yes"/>
      <point x="669" y="140"/>
      <point x="518" y="0"/>
      <point x="330" y="0" type="curve" smooth="yes"/>
    </contour>
    <contour>
      <point x="150" y="55" type="line"/>
      <point x="317" y="55" type="line" smooth="yes"/>
      <point x="540" y="55"/>
      <point x="599" y="222"/>
      <point x="599" y="342" type="curve" smooth="yes"/>
      <point x="599" y="463"/>
      <point x="541" y="640"/>
      <point x="317" y="640" type="curve" smooth="yes"/>
      <point x="150" y="640" type="line"/>
    </contour>
  </outline>
</glyph>
<glyph name="E" format="2">
  <advance width="623"/>
  <unicode hex="0045"/>
  <anchor x="293" y="790" name="top"/>
  <anchor x="340" y="10" name="bottom_0"/>
  <outline>
    <contour>
      <point x="80" y="0" type="line"/>
      <point x="80" y="695" type="line"/>
      <point x="548" y="695" type="line"/>
      <point x="548" y="640" type="line"/>
      <point x="150" y="640" type="line"/>
      <point x="150" y="388" type="line"/>
      <point x="519" y="388" type="line"/>
      <point x="519" y="333" type="line"/>
      <point x="150" y="333" type="line"/>
      <point x="150" y="55" type="line"/>
      <point x="563" y="55" type="line"/>
      <point x="563" y="0" type="line"/>
    </contour>
  </outline>
</glyph>
<glyph name="F" format="2">
  <advance width="584"/>
  <unicode hex="0046"/>
  <anchor x="293" y="790" name="top"/>
  <outline>
    <contour>
      <point x="80" y="0" type="line"/>
      <point x="80" y="695" type="line"/>
      <point x="534" y="695" type="line"/>
      <point x="534" y="640" type="line"/>
      <point x="150" y="640" type="line"/>
      <point x="150" y="374" type="line"/>
      <point x="490" y="374" type="line"/>
      <point x="490" y="319" type="line"/>
      <point x="150" y="319" type="line"/>
      <point x="150" y="0" type="line"/>
    </contour>
  </outline>
</glyph>
<glyph name="G" format="2">
  <advance width="688"/>
  <unicode hex="0047"/>
  <anchor x="364" y="790" name="top"/>
  <outline>
    <contour>
      <point x="60" y="347" type="curve" smooth="yes"/>
      <point x="60" y="535"/>
      <point x="192" y="711"/>
      <point x="391" y="711" type="curve" smooth="yes"/>
      <point x="470" y="711"/>
      <point x="523" y="698"/>
      <point x="599" y="663" type="curve"/>
      <point x="587" y="594" type="line"/>
      <point x="533" y="631"/>
      <point x="480" y="658"/>
      <point x="393" y="658" type="curve" smooth="yes"/>
      <point x="235" y="658"/>
      <point x="130" y="510"/>
      <point x="130" y="347" type="curve" smooth="yes"/>
      <point x="130" y="171"/>
      <point x="248" y="36"/>
      <point x="389" y="36" type="curve" smooth="yes"/>
      <point x="473" y="36"/>
      <point x="539" y="61"/>
      <point x="543" y="63" type="curve"/>
      <point x="543" y="273" type="line"/>
      <point x="386" y="273" type="line"/>
      <point x="386" y="328" type="line"/>
      <point x="608" y="328" type="line"/>
      <point x="608" y="32" type="line"/>
      <point x="528" y="-4"/>
      <point x="455" y="-17"/>
      <point x="390" y="-17" type="curve" smooth="yes"/>
      <point x="203" y="-17"/>
      <point x="60" y="147"/>
    </contour>
  </outline>
</glyph>
<glyph name="H" format="2">
  <advance width="671"/>
  <unicode hex="0048"/>
  <anchor x="335" y="790" name="top"/>
  <outline>
    <contour>
      <point x="80" y="0" type="line"/>
      <point x="80" y="695" type="line"/>
      <point x="150" y="695" type="line"/>
      <point x="150" y="389" type="line"/>
      <point x="521" y="389" type="line"/>
      <point x="521" y="695" type="line"/>
      <point x="591" y="695" type="line"/>
      <point x="591" y="0" type="line"/>
      <point x="521" y="0" type="line"/>
      <point x="521" y="334" type="line"/>
      <point x="150" y="334" type="line"/>
      <point x="150" y="0" type="line"/>
    </contour>
  </outline>
</glyph>
<glyph name="I" format="2">
  <advance width="230"/>
  <unicode hex="0049"/>
  <anchor x="111" y="790" name="top"/>
  <anchor x="114" y="10" name="bottom_0"/>
  <outline>
    <contour>
      <point x="80" y="0" type="line"/>
      <point x="80" y="695" type="line"/>
      <point x="150" y="695" type="line"/>
      <point x="150" y="0" type="line"/>
    </contour>
  </outline>
</glyph>
<glyph name="J" format="2">
  <advance width="485"/>
  <unicode hex="004A"/>
  <anchor x="370" y="790" name="top"/>
  <outline>
    <contour>
      <point x="40" y="39" type="curve"/>
      <point x="63" y="84" type="line"/>
      <point x="98" y="59"/>
      <point x="136" y="36"/>
      <point x="198" y="36" type="curve" smooth="yes"/>
      <point x="280" y="36"/>
      <point x="335" y="76"/>
      <point x="335" y="157" type="curve" smooth="yes"/>
      <point x="335" y="695" type="line"/>
      <point x="405" y="695" type="line"/>
      <point x="405" y="155" type="line" smooth="yes"/>
      <point x="405" y="18"/>
      <point x="307" y="-17"/>
      <point x="220" y="-17" type="curve" smooth="yes"/>
      <point x="166" y="-17"/>
      <point x="105" y="-6"/>
    </contour>
  </outline>
</glyph>
<glyph name="K" format="2">
  <advance width="684"/>
  <unicode hex="004B"/>
  <anchor x="293" y="790" name="top"/>
  <anchor x="343" y="-60" name="bottom_60"/>
  <outline>
    <contour>
      <point x="80" y="0" type="line"/>
      <point x="80" y="695" type="line"/>
      <point x="150" y="695" type="line"/>
      <point x="150" y="308" type="line"/>
      <point x="544" y="695" type="line"/>
      <point x="629" y="695" type="line"/>
      <point x="349" y="420" type="line"/>
      <point x="644" y="0" type="line"/>
      <point x="568" y="0" type="line"/>
      <point x="304" y="375" type="line"/>
      <point x="150" y="224" type="line"/>
      <point x="150" y="0" type="line"/>
    </contour>
  </outline>
</glyph>
<glyph name="L" format="2">
  <advance width="535"/>
  <unicode hex="004C"/>
  <anchor x="115" y="790" name="top"/>
  <anchor x="282" y="-60" name="bottom_60"/>
  <outline>
    <contour>
      <point x="80" y="0" type="line"/>
      <point x="80" y="695" type="line"/>
      <point x="150" y="695" type="line"/>
      <point x="150" y="55" type="line"/>
      <point x="505" y="55" type="line"/>
      <point x="505" y="0" type="line"/>
    </contour>
  </outline>
</glyph>
<glyph name="M" format="2">
  <advance width="843"/>
  <unicode hex="004D"/>
  <anchor x="422" y="790" name="top"/>
  <outline>
    <contour>
      <point x="80" y="0" type="line"/>
      <point x="80" y="695" type="line"/>
      <point x="179" y="695" type="line"/>
      <point x="422" y="101" type="line"/>
      <point x="663" y="695" type="line"/>
      <point x="763" y="695" type="line"/>
      <point x="763" y="0" type="line"/>
      <point x="693" y="0" type="line"/>
      <point x="693" y="630" type="line"/>
      <point x="446" y="17" type="line"/>
      <point x="386" y="17" type="line"/>
      <point x="140" y="630" type="line"/>
      <point x="140" y="0" type="line"/>
    </contour>
  </outline>
  <guideline angle="90" x="422" y="0"/>
</glyph>
<glyph name="N" format="2">
  <advance width="662"/>
  <unicode hex="004E"/>
  <anchor x="340" y="790" name="top"/>
  <anchor x="332" y="-60" name="bottom_60"/>
  <outline>
    <contour>
      <point x="80" y="0" type="line"/>
      <point x="80" y="695" type="line"/>
      <point x="185" y="695" type="line"/>
      <point x="522" y="69" type="line"/>
      <point x="522" y="695" type="line"/>
      <point x="582" y="695" type="line"/>
      <point x="582" y="0" type="line"/>
      <point x="487" y="0" type="line"/>
      <point x="140" y="637" type="line"/>
      <point x="140" y="0" type="line"/>
    </contour>
  </outline>
</glyph>
<glyph name="O" format="2">
  <advance width="786"/>
  <unicode hex="004F"/>
  <anchor x="393" y="790" name="top"/>
  <anchor x="438" y="8" name="bottom_0"/>
  <outline>
    <contour>
      <point x="60" y="347" type="curve" smooth="yes"/>
      <point x="60" y="596"/>
      <point x="213" y="711"/>
      <point x="393" y="711" type="curve" smooth="yes"/>
      <point x="573" y="711"/>
      <point x="726" y="596"/>
      <point x="726" y="347" type="curve" smooth="yes"/>
      <point x="726" y="98"/>
      <point x="573" y="-17"/>
      <point x="393" y="-17" type="curve" smooth="yes"/>
      <point x="213" y="-17"/>
      <point x="60" y="98"/>
    </contour>
    <contour>
      <point x="130" y="347" type="curve" smooth="yes"/>
      <point x="130" y="147"/>
      <point x="236" y="36"/>
      <point x="393" y="36" type="curve" smooth="yes"/>
      <point x="544" y="36"/>
      <point x="656" y="139"/>
      <point x="656" y="347" type="curve" smooth="yes"/>
      <point x="656" y="580"/>
      <point x="538" y="658"/>
      <point x="393" y="658" type="curve" smooth="yes"/>
      <point x="247" y="658"/>
      <point x="130" y="580"/>
    </contour>
  </outline>
</glyph>
<glyph name="P" format="2">
  <advance width="641"/>
  <unicode hex="0050"/>
  <anchor x="281" y="790" name="top"/>
  <outline>
    <contour>
      <point x="80" y="0" type="line"/>
      <point x="80" y="695" type="line"/>
      <point x="360" y="695" type="line" smooth="yes"/>
      <point x="508" y="695"/>
      <point x="581" y="618"/>
      <point x="581" y="494" type="curve" smooth="yes"/>
      <point x="581" y="376"/>
      <point x="520" y="295"/>
      <point x="360" y="295" type="curve" smooth="yes"/>
      <point x="150" y="295" type="line"/>
      <point x="150" y="0" type="line"/>
    </contour>
    <contour>
      <point x="149" y="350" type="line"/>
      <point x="360" y="350" type="line" smooth="yes"/>
      <point x="441" y="350"/>
      <point x="511" y="401"/>
      <point x="511" y="494" type="curve" smooth="yes"/>
      <point x="511" y="581"/>
      <point x="462" y="640"/>
      <point x="360" y="640" type="curve" smooth="yes"/>
      <point x="149" y="640" type="line"/>
    </contour>
  </outline>
</glyph>
<glyph name="Q" format="2">
  <advance width="786"/>
  <unicode hex="0051"/>
  <anchor x="380" y="790" name="top"/>
  <outline>
    <component base="O"/>
    <contour>
      <point x="506.35" y="19.4837" type="line"/>
      <point x="559.144" y="48.3076" type="line"/>
      <point x="698" y="-111" type="line"/>
      <point x="616" y="-111" type="line"/>
    </contour>
    <contour>
      <point x="542.857" y="66.6934" type="line"/>
      <point x="488.611" y="38.4832" type="line"/>
      <point x="358" y="195" type="line"/>
      <point x="431" y="195" type="line"/>
    </contour>
  </outline>
</glyph>
<glyph name="R" format="2">
  <advance width="644"/>
  <unicode hex="0052"/>
  <anchor x="293" y="790" name="top"/>
  <anchor x="300" y="-50" name="bottom_50"/>
  <outline>
    <contour>
      <point x="80" y="0" type="line"/>
      <point x="80" y="695" type="line"/>
      <point x="360" y="695" type="line" smooth="yes"/>
      <point x="523" y="695"/>
      <point x="581" y="594"/>
      <point x="581" y="507" type="curve" smooth="yes"/>
      <point x="581" y="409"/>
      <point x="499" y="344"/>
      <point x="401" y="326" type="curve"/>
      <point x="584" y="0" type="line"/>
      <point x="514" y="0" type="line"/>
      <point x="338" y="318" type="line"/>
      <point x="150" y="318" type="line"/>
      <point x="150" y="0" type="line"/>
    </contour>
    <contour>
      <point x="150" y="373" type="line"/>
      <point x="360" y="373" type="line" smooth="yes"/>
      <point x="420" y="373"/>
      <point x="511" y="409"/>
      <point x="511" y="507" type="curve" smooth="yes"/>
      <point x="511" y="586"/>
      <point x="445" y="640"/>
      <point x="360" y="640" type="curve" smooth="yes"/>
      <point x="150" y="640" type="line"/>
    </contour>
  </outline>
</glyph>
<glyph name="S" format="2">
  <advance width="558"/>
  <unicode hex="0053"/>
  <anchor x="279" y="790" name="top"/>
  <anchor x="284" y="-60" name="bottom_60"/>
  <outline>
    <contour>
      <point x="40" y="53" type="curve"/>
      <point x="51" y="122" type="line"/>
      <point x="103" y="84"/>
      <point x="176" y="40"/>
      <point x="282" y="40" type="curve" smooth="yes"/>
      <point x="382" y="40"/>
      <point x="448" y="103.143"/>
      <point x="448" y="170" type="curve" smooth="yes"/>
      <point x="448" y="251.524"/>
      <point x="418.588" y="291.751"/>
      <point x="296" y="322" type="curve" smooth="yes"/>
      <point x="219" y="341" type="line"/>
      <point x="151.39" y="354.171"/>
      <point x="51" y="396.447"/>
      <point x="51" y="522" type="curve" smooth="yes"/>
      <point x="51" y="612"/>
      <point x="137" y="711"/>
      <point x="288" y="711" type="curve" smooth="yes"/>
      <point x="365" y="711"/>
      <point x="416" y="696"/>
      <point x="480" y="663" type="curve"/>
      <point x="468" y="594" type="line"/>
      <point x="429" y="620"/>
      <point x="383" y="656"/>
      <point x="288" y="656" type="curve" smooth="yes"/>
      <point x="186" y="656"/>
      <point x="121" y="594"/>
      <point x="121" y="530" type="curve" smooth="yes"/>
      <point x="121" y="452.592"/>
      <point x="174.681" y="421.129"/>
      <point x="237" y="408.994" type="curve"/>
      <point x="314" y="390" type="line" smooth="yes"/>
      <point x="450.422" y="356.348"/>
      <point x="518" y="299.765"/>
      <point x="518" y="177" type="curve" smooth="yes"/>
      <point x="518" y="81.902"/>
      <point x="429" y="-17"/>
      <point x="281" y="-17" type="curve" smooth="yes"/>
      <point x="180" y="-17"/>
      <point x="99" y="17"/>
    </contour>
  </outline>
</glyph>
<glyph name="T" format="2">
  <advance width="689"/>
  <unicode hex="0054"/>
  <anchor x="345" y="790" name="top"/>
  <anchor x="345" y="-60" name="bottom_60"/>
  <outline>
    <contour>
      <point x="20" y="637" type="line"/>
      <point x="20" y="692" type="line"/>
      <point x="669" y="692" type="line"/>
      <point x="669" y="637" type="line"/>
      <point x="380" y="637" type="line"/>
      <point x="380" y="0" type="line"/>
      <point x="310" y="0" type="line"/>
      <point x="310" y="637" type="line"/>
    </contour>
  </outline>
  <guideline angle="90" x="345" y="0"/>
</glyph>
<glyph name="U" format="2">
  <advance width="660"/>
  <unicode hex="0055"/>
  <anchor x="322" y="790" name="top"/>
  <anchor x="370" y="10" name="bottom_0"/>
  <outline>
    <contour>
      <point x="80" y="247" type="curve" smooth="yes"/>
      <point x="80" y="695" type="line"/>
      <point x="150" y="695" type="line"/>
      <point x="150" y="237" type="line" smooth="yes"/>
      <point x="150" y="77"/>
      <point x="254" y="36"/>
      <point x="329" y="36" type="curve" smooth="yes"/>
      <point x="394" y="36"/>
      <point x="510" y="66"/>
      <point x="510" y="240" type="curve" smooth="yes"/>
      <point x="510" y="695" type="line"/>
      <point x="580" y="695" type="line"/>
      <point x="580" y="242" type="line" smooth="yes"/>
      <point x="580" y="70"/>
      <point x="446" y="-17"/>
      <point x="329" y="-17" type="curve" smooth="yes"/>
      <point x="184" y="-17"/>
      <point x="80" y="98"/>
    </contour>
  </outline>
</glyph>
<glyph name="V" format="2">
  <advance width="705"/>
  <unicode hex="0056"/>
  <anchor x="356" y="790" name="top"/>
  <anchor x="356" y="-60" name="bottom_60"/>
  <outline>
    <contour>
      <point x="30" y="695" type="line"/>
      <point x="104" y="695" type="line"/>
      <point x="356" y="65" type="line"/>
      <point x="609" y="695" type="line"/>
      <point x="675" y="695" type="line"/>
      <point x="392" y="-5" type="line"/>
      <point x="314" y="-5" type="line"/>
    </contour>
  </outline>
</glyph>
<glyph name="W" format="2">
  <advance width="997"/>
  <unicode hex="0057"/>
  <anchor x="497" y="790" name="top"/>
  <anchor x="497" y="-60" name="bottom_60"/>
  <outline>
    <contour>
      <point x="30" y="695" type="line"/>
      <point x="98" y="695" type="line"/>
      <point x="282" y="65" type="line"/>
      <point x="465" y="695" type="line"/>
      <point x="535" y="695" type="line"/>
      <point x="721" y="65" type="line"/>
      <point x="906" y="695" type="line"/>
      <point x="967" y="695" type="line"/>
      <point x="755" y="-5" type="line"/>
      <point x="683" y="-5" type="line"/>
      <point x="497" y="625" type="line"/>
      <point x="312" y="-5" type="line"/>
      <point x="242" y="-5" type="line"/>
    </contour>
  </outline>
  <guideline angle="90" x="497" y="0"/>
</glyph>
<glyph name="X" format="2">
  <advance width="705"/>
  <unicode hex="0058"/>
  <anchor x="345" y="790" name="top"/>
  <outline>
    <contour>
      <point x="30" y="0" type="line"/>
      <point x="309" y="367" type="line"/>
      <point x="45" y="695" type="line"/>
      <point x="130" y="695" type="line"/>
      <point x="345" y="420" type="line"/>
      <point x="551" y="695" type="line"/>
      <point x="631" y="695" type="line"/>
      <point x="381" y="366" type="line"/>
      <point x="675" y="0" type="line"/>
      <point x="590" y="0" type="line"/>
      <point x="345" y="318" type="line"/>
      <point x="111" y="0" type="line"/>
    </contour>
  </outline>
</glyph>
<glyph name="Y" format="2">
  <advance width="730"/>
  <unicode hex="0059"/>
  <anchor x="369" y="790" name="top"/>
  <outline>
    <contour>
      <point x="30" y="695" type="line"/>
      <point x="115" y="695" type="line"/>
      <point x="369" y="342" type="line"/>
      <point x="624" y="695" type="line"/>
      <point x="700" y="695" type="line"/>
      <point x="400" y="278" type="line"/>
      <point x="400" y="0" type="line"/>
      <point x="330" y="0" type="line"/>
      <point x="330" y="278" type="line"/>
    </contour>
  </outline>
</glyph>
<glyph name="Z" format="2">
  <advance width="571"/>
  <unicode hex="005A"/>
  <anchor x="300" y="790" name="top"/>
  <anchor x="289" y="-60" name="bottom_60"/>
  <outline>
    <contour>
      <point x="20" y="0" type="line"/>
      <point x="20" y="36" type="line"/>
      <point x="451" y="640" type="line"/>
      <point x="35" y="640" type="line"/>
      <point x="35" y="695" type="line"/>
      <point x="545" y="695" type="line"/>
      <point x="545" y="660" type="line"/>
      <point x="114" y="55" type="line"/>
      <point x="551" y="55" type="line"/>
      <point x="551" y="0" type="line"/>
    </contour>
  </outline>
</glyph>
<glyph name="bracketleft" format="2">
  <advance width="294"/>
  <unicode hex="005B"/>
  <outline>
    <contour>
      <point x="113" y="-222" type="line"/>
      <point x="113" y="750" type="line"/>
      <point x="270" y="750" type="line"/>
      <point x="270" y="700" type="line"/>
      <point x="176" y="700" type="line" name=".hr01"/>
      <point x="176" y="-172" type="line"/>
      <point x="270" y="-172" type="line" name=".hr02"/>
      <point x="270" y="-222" type="line"/>
    </contour>
  </outline>
</glyph>
<glyph name="backslash" format="2">
  <advance width="525"/>
  <unicode hex="005C"/>
  <outline>
    <contour>
      <point x="47.2744" y="749" type="line"/>
      <point x="101" y="749" type="line"/>
      <point x="478" y="-222" type="line"/>
      <point x="424.127" y="-222" type="line"/>
    </contour>
  </outline>
</glyph>
<glyph name="bracketright" format="2">
  <advance width="294"/>
  <unicode hex="005D"/>
  <outline>
    <contour>
      <point x="23" y="-172" type="line"/>
      <point x="117" y="-172" type="line" name=".hr01"/>
      <point x="117" y="700" type="line"/>
      <point x="23" y="700" type="line" name=".hr02"/>
      <point x="23" y="750" type="line"/>
      <point x="180" y="750" type="line"/>
      <point x="180" y="-222" type="line"/>
      <point x="23" y="-222" type="line"/>
    </contour>
  </outline>
</glyph>
<glyph name="asciicircum" format="2">
  <advance width="642"/>
  <unicode hex="005E"/>
  <outline>
    <contour>
      <point x="138" y="472" type="line"/>
      <point x="295" y="620" type="line"/>
      <point x="346" y="620" type="line"/>
      <point x="503" y="472" type="line"/>
      <point x="453" y="472" type="line"/>
      <point x="320" y="591" type="line"/>
      <point x="276" y="551"/>
      <point x="232" y="512"/>
      <point x="188" y="472" type="curve"/>
    </contour>
  </outline>
</glyph>
<glyph name="underscore" format="2">
  <advance width="817"/>
  <unicode hex="005F"/>
  <outline>
    <contour>
      <point x="88" y="-224" type="line"/>
      <point x="728" y="-224" type="line"/>
      <point x="728" y="-264" type="line"/>
      <point x="88" y="-264" type="line"/>
    </contour>
  </outline>
</glyph>
<glyph name="grave" format="2">
  <advance width="525"/>
  <unicode hex="0060"/>
  <anchor x="289" y="550" name="_top"/>
  <outline>
    <contour>
      <point x="123" y="708" type="line"/>
      <point x="196" y="708" type="line"/>
      <point x="316" y="550" type="line"/>
      <point x="266" y="550" type="line"/>
    </contour>
  </outline>
  <guideline angle="0" x="0" y="708"/>
</glyph>
<glyph name="a" format="2">
  <advance width="490"/>
  <unicode hex="0061"/>
  <anchor x="233" y="550" name="top"/>
  <anchor x="374" y="10" name="bottom_0"/>
  <outline>
    <contour>
      <point x="55" y="115" type="curve" smooth="yes"/>
      <point x="55" y="182.2"/>
      <point x="107" y="275"/>
      <point x="346" y="275" type="curve"/>
      <point x="346" y="339" type="line" smooth="yes"/>
      <point x="346" y="423"/>
      <point x="269" y="438"/>
      <point x="245" y="438" type="curve" smooth="yes"/>
      <point x="167.814" y="438"/>
      <point x="127.932" y="403.917"/>
      <point x="96" y="367" type="curve"/>
      <point x="91" y="432" type="line"/>
      <point x="139.235" y="466.512"/>
      <point x="185.578" y="485"/>
      <point x="248" y="485" type="curve" smooth="yes"/>
      <point x="361.301" y="485"/>
      <point x="410" y="413"/>
      <point x="410" y="339" type="curve" smooth="yes"/>
      <point x="410" y="0" type="line"/>
      <point x="346" y="0" type="line"/>
      <point x="346" y="69" type="line"/>
      <point x="305.726" y="15"/>
      <point x="234.384" y="-8" name=".hr01"/>
      <point x="178" y="-8" type="curve" smooth="yes"/>
      <point x="79.6" y="-8"/>
      <point x="55" y="77"/>
    </contour>
    <contour>
      <point x="117" y="117" type="curve" smooth="yes"/>
      <point x="117" y="69"/>
      <point x="157.107" y="42"/>
      <point x="198" y="42" type="curve" smooth="yes" name=".hr02"/>
      <point x="249.683" y="42"/>
      <point x="346" y="62"/>
      <point x="346" y="145" type="curve" smooth="yes"/>
      <point x="346" y="244" type="line"/>
      <point x="212" y="244"/>
      <point x="117" y="192.983"/>
    </contour>
  </outline>
</glyph>
<glyph name="b" format="2">
  <advance width="517"/>
  <unicode hex="0062"/>
  <anchor x="112" y="790" name="top"/>
  <outline>
    <contour>
      <point x="80" y="0" type="line"/>
      <point x="80" y="695" type="line"/>
      <point x="144" y="695" type="line"/>
      <point x="144" y="405" type="line"/>
      <point x="204" y="476"/>
      <point x="269" y="480"/>
      <point x="294" y="480" type="curve" smooth="yes"/>
      <point x="394" y="480"/>
      <point x="471" y="372"/>
      <point x="471" y="238" type="curve" smooth="yes"/>
      <point x="471" y="97"/>
      <point x="381" y="-8" name=".hr01"/>
      <point x="275" y="-8" type="curve" smooth="yes"/>
      <point x="195.791" y="-8"/>
      <point x="155.171" y="50"/>
      <point x="144" y="66" type="curve"/>
      <point x="144" y="0" type="line" name=".hr02"/>
    </contour>
    <contour>
      <point x="144" y="131" type="line" smooth="yes"/>
      <point x="144" y="90"/>
      <point x="186.857" y="42" name=".hr03"/>
      <point x="244" y="42" type="curve" smooth="yes"/>
      <point x="308" y="42"/>
      <point x="406" y="81"/>
      <point x="406" y="236" type="curve" smooth="yes"/>
      <point x="406" y="402"/>
      <point x="307" y="430"/>
      <point x="256" y="430" type="curve" smooth="yes"/>
      <point x="187.782" y="430"/>
      <point x="149.091" y="378"/>
      <point x="144" y="362" type="curve"/>
    </contour>
  </outline>
</glyph>
<glyph name="c" format="2">
  <advance width="467"/>
  <unicode hex="0063"/>
  <anchor x="250" y="550" name="top"/>
  <outline>
    <contour>
      <point x="46" y="237" type="curve" smooth="yes"/>
      <point x="46" y="366"/>
      <point x="135" y="485"/>
      <point x="267" y="485" type="curve" smooth="yes"/>
      <point x="340" y="485"/>
      <point x="372" y="474"/>
      <point x="431" y="442" type="curve"/>
      <point x="421" y="387" type="line"/>
      <point x="379" y="419"/>
      <point x="343" y="435"/>
      <point x="267" y="435" type="curve" smooth="yes"/>
      <point x="173" y="435"/>
      <point x="111" y="358"/>
      <point x="111" y="238" type="curve" smooth="yes"/>
      <point x="111" y="122"/>
      <point x="174" y="42"/>
      <point x="265" y="42" type="curve" smooth="yes"/>
      <point x="355" y="42"/>
      <point x="413" y="88"/>
      <point x="432" y="111" type="curve"/>
      <point x="432" y="55" type="line"/>
      <point x="387" y="19"/>
      <point x="341" y="-8"/>
      <point x="264" y="-8" type="curve" smooth="yes"/>
      <point x="141" y="-8"/>
      <point x="46" y="101"/>
    </contour>
  </outline>
</glyph>
<glyph name="d" format="2">
  <advance width="517"/>
  <unicode hex="0064"/>
  <anchor x="405" y="790" name="top"/>
  <anchor x="220" y="550" name="top.1"/>
  <outline>
    <contour>
      <point x="111" y="236" type="curve" smooth="yes"/>
      <point x="111" y="74"/>
      <point x="206" y="42"/>
      <point x="260" y="42" type="curve" smooth="yes"/>
      <point x="331.261" y="42"/>
      <point x="373" y="105"/>
      <point x="373" y="134" type="curve" smooth="yes"/>
      <point x="373" y="352" type="line" smooth="yes"/>
      <point x="373" y="387"/>
      <point x="328.111" y="430"/>
      <point x="272" y="430" type="curve" smooth="yes"/>
      <point x="208" y="430"/>
      <point x="111" y="393"/>
    </contour>
    <contour>
      <point x="46" y="236" type="curve" smooth="yes"/>
      <point x="46" y="369"/>
      <point x="129" y="480"/>
      <point x="235" y="480" type="curve" smooth="yes"/>
      <point x="295.882" y="480"/>
      <point x="338.5" y="451"/>
      <point x="373" y="410" type="curve"/>
      <point x="373" y="695" type="line"/>
      <point x="437" y="695" type="line"/>
      <point x="437" y="0" type="line"/>
      <point x="373" y="0" type="line" name=".hr01"/>
      <point x="373" y="73" type="line"/>
      <point x="338.524" y="23"/>
      <point x="285.797" y="-8"/>
      <point x="228" y="-8" type="curve" smooth="yes" name=".hr02"/>
      <point x="135" y="-8"/>
      <point x="46" y="89"/>
    </contour>
  </outline>
</glyph>
<glyph name="e" format="2">
  <advance width="467"/>
  <unicode hex="0065"/>
  <anchor x="238" y="550" name="top"/>
  <anchor x="285" y="10" name="bottom_0"/>
  <anchor x="242" y="-60" name="bottom_60"/>
  <outline>
    <contour>
      <point x="42" y="240" type="curve" smooth="yes"/>
      <point x="42" y="366"/>
      <point x="127" y="484"/>
      <point x="248" y="484" type="curve" smooth="yes"/>
      <point x="319" y="484"/>
      <point x="433" y="446.462"/>
      <point x="433" y="240" type="curve"/>
      <point x="107" y="240" type="line"/>
      <point x="107" y="124.099"/>
      <point x="175.238" y="42"/>
      <point x="264" y="42" type="curve" smooth="yes"/>
      <point x="339" y="42"/>
      <point x="389" y="77"/>
      <point x="426" y="111" type="curve"/>
      <point x="426" y="56" type="line"/>
      <point x="384" y="21"/>
      <point x="334" y="-8"/>
      <point x="264" y="-8" type="curve" smooth="yes"/>
      <point x="142" y="-8"/>
      <point x="42" y="99"/>
    </contour>
    <contour>
      <point x="112" y="290" type="curve"/>
      <point x="374" y="290" type="line"/>
      <point x="374" y="372"/>
      <point x="324" y="434"/>
      <point x="248" y="434" type="curve" smooth="yes"/>
      <point x="181" y="434"/>
      <point x="127" y="371"/>
    </contour>
  </outline>
</glyph>
<glyph name="f" format="2">
  <advance width="333"/>
  <unicode hex="0066"/>
  <anchor x="202" y="790" name="top"/>
  <outline>
    <contour>
      <point x="29" y="422" type="line"/>
      <point x="29" y="472" type="line"/>
      <point x="114" y="472" type="line"/>
      <point x="114" y="535" type="line" smooth="yes"/>
      <point x="114" y="634.624"/>
      <point x="184.155" y="695"/>
      <point x="281" y="695" type="curve" smooth="yes"/>
      <point x="293" y="695"/>
      <point x="313" y="694"/>
      <point x="343" y="687" type="curve"/>
      <point x="343" y="631" type="line"/>
      <point x="318" y="641"/>
      <point x="292" y="645"/>
      <point x="278" y="645" type="curve" smooth="yes"/>
      <point x="203" y="645"/>
      <point x="178" y="619"/>
      <point x="178" y="536" type="curve" smooth="yes"/>
      <point x="178" y="472" type="line"/>
      <point x="300" y="472" type="line"/>
      <point x="300" y="422" type="line"/>
      <point x="178" y="422" type="line"/>
      <point x="178" y="0" type="line"/>
      <point x="114" y="0" type="line"/>
      <point x="114" y="422" type="line"/>
    </contour>
  </outline>
</glyph>
<glyph name="g" format="2">
  <advance width="517"/>
  <unicode hex="0067"/>
  <anchor x="249" y="550" name="top"/>
  <outline>
    <contour>
      <point x="47" y="237" type="curve" smooth="yes"/>
      <point x="47" y="365"/>
      <point x="120.455" y="480"/>
      <point x="249" y="480" type="curve" smooth="yes"/>
      <point x="318.561" y="480"/>
      <point x="355.928" y="444.861"/>
      <point x="373" y="425" type="curve"/>
      <point x="373" y="472" type="line"/>
      <point x="437" y="472" type="line"/>
      <point x="437" y="9" type="line" smooth="yes"/>
      <point x="437" y="-112"/>
      <point x="354" y="-184"/>
      <point x="257" y="-184" type="curve" smooth="yes"/>
      <point x="181" y="-184"/>
      <point x="132" y="-168"/>
      <point x="72" y="-139" type="curve"/>
      <point x="72" y="-85" type="line"/>
      <point x="131" y="-114"/>
      <point x="179" y="-134"/>
      <point x="255" y="-134" type="curve" smooth="yes"/>
      <point x="302.402" y="-134"/>
      <point x="373" y="-103"/>
      <point x="373" y="12" type="curve" smooth="yes"/>
      <point x="373" y="55" type="line"/>
      <point x="343.55" y="15.3014"/>
      <point x="306.5" y="-8"/>
      <point x="240" y="-8" type="curve" smooth="yes"/>
      <point x="135" y="-8"/>
      <point x="47" y="62"/>
    </contour>
    <contour>
      <point x="112" y="237" type="curve" smooth="yes"/>
      <point x="112" y="97"/>
      <point x="176" y="42"/>
      <point x="260" y="42" type="curve" smooth="yes"/>
      <point x="347.777" y="42"/>
      <point x="373" y="93"/>
      <point x="373" y="140" type="curve" smooth="yes"/>
      <point x="373" y="371" type="line"/>
      <point x="356.835" y="401.746"/>
      <point x="301.874" y="430"/>
      <point x="262" y="430" type="curve" smooth="yes"/>
      <point x="182.701" y="430"/>
      <point x="112" y="376"/>
    </contour>
  </outline>
</glyph>
<glyph name="h" format="2">
  <advance width="517"/>
  <unicode hex="0068"/>
  <anchor x="112" y="790" name="top"/>
  <outline>
    <contour>
      <point x="80" y="0" type="line"/>
      <point x="80" y="695" type="line"/>
      <point x="144" y="695" type="line"/>
      <point x="144" y="378" type="line"/>
      <point x="159.101" y="413"/>
      <point x="203.396" y="480"/>
      <point x="294" y="480" type="curve" smooth="yes"/>
      <point x="434.021" y="480"/>
      <point x="437" y="374"/>
      <point x="437" y="315" type="curve" smooth="yes"/>
      <point x="437" y="0" type="line"/>
      <point x="373" y="0" type="line"/>
      <point x="373" y="311" type="line" smooth="yes"/>
      <point x="373" y="382"/>
      <point x="352" y="430"/>
      <point x="261" y="430" type="curve" smooth="yes"/>
      <point x="157.112" y="430"/>
      <point x="144" y="318"/>
      <point x="144" y="262" type="curve" smooth="yes"/>
      <point x="144" y="0" type="line"/>
    </contour>
  </outline>
</glyph>
<glyph name="k" format="2">
  <advance width="487"/>
  <unicode hex="006B"/>
  <anchor x="112" y="790" name="top"/>
  <anchor x="272" y="-50" name="bottom_50"/>
  <outline>
    <contour>
      <point x="80" y="0" type="line"/>
      <point x="80" y="695" type="line"/>
      <point x="144" y="695" type="line"/>
      <point x="144" y="247" type="line"/>
      <point x="369" y="472" type="line"/>
      <point x="445" y="472" type="line"/>
      <point x="269" y="296" type="line"/>
      <point x="471" y="0" type="line"/>
      <point x="402" y="0" type="line"/>
      <point x="228" y="255" type="line"/>
      <point x="144" y="171" type="line"/>
      <point x="144" y="0" type="line"/>
    </contour>
  </outline>
</glyph>
<glyph name="l" format="2">
  <advance width="224"/>
  <unicode hex="006C"/>
  <anchor x="112" y="790" name="top"/>
  <anchor x="110" y="-50" name="bottom_50"/>
  <outline>
    <contour>
      <point x="80" y="0" type="line"/>
      <point x="80" y="695" type="line"/>
      <point x="144" y="695" type="line"/>
      <point x="144" y="0" type="line"/>
    </contour>
  </outline>
</glyph>
<glyph name="m" format="2">
  <advance width="805"/>
  <unicode hex="006D"/>
  <anchor x="398" y="550" name="top"/>
  <outline>
    <contour>
      <point x="80" y="0" type="line"/>
      <point x="80" y="472" type="line"/>
      <point x="144" y="472" type="line"/>
      <point x="144" y="375" type="line"/>
      <point x="159" y="410"/>
      <point x="204" y="480" name=".hr01"/>
      <point x="292" y="480" type="curve" smooth="yes"/>
      <point x="427.029" y="480"/>
      <point x="431" y="383"/>
      <point x="431" y="373" type="curve"/>
      <point x="450" y="415"/>
      <point x="491" y="480"/>
      <point x="583" y="480" type="curve" smooth="yes"/>
      <point x="723.014" y="480"/>
      <point x="725" y="373"/>
      <point x="725" y="315" type="curve" smooth="yes"/>
      <point x="725" y="0" type="line"/>
      <point x="661" y="0" type="line"/>
      <point x="661" y="311" type="line" smooth="yes"/>
      <point x="661" y="390"/>
      <point x="626" y="430"/>
      <point x="548" y="430" type="curve" smooth="yes"/>
      <point x="475" y="430"/>
      <point x="434" y="364"/>
      <point x="434" y="270" type="curve" smooth="yes"/>
      <point x="434" y="0" type="line"/>
      <point x="370" y="0" type="line"/>
      <point x="370" y="311" type="line" smooth="yes"/>
      <point x="370" y="390"/>
      <point x="336" y="430"/>
      <point x="258" y="430" type="curve" smooth="yes"/>
      <point x="186" y="430"/>
      <point x="144" y="364"/>
      <point x="144" y="270" type="curve" smooth="yes"/>
      <point x="144" y="0" type="line"/>
    </contour>
  </outline>
</glyph>
<glyph name="n" format="2">
  <advance width="517"/>
  <unicode hex="006E"/>
  <anchor x="257" y="550" name="top"/>
  <outline>
    <contour>
      <point x="80" y="0" type="line"/>
      <point x="80" y="472" type="line"/>
      <point x="144" y="472" type="line"/>
      <point x="144" y="375" type="line"/>
      <point x="167" y="426"/>
      <point x="213" y="480" name=".hr01"/>
      <point x="291" y="480" type="curve" smooth="yes"/>
      <point x="432.014" y="480"/>
      <point x="434" y="372"/>
      <point x="434" y="315" type="curve" smooth="yes"/>
      <point x="434" y="0" type="line"/>
      <point x="370" y="0" type="line"/>
      <point x="370" y="311" type="line" smooth="yes"/>
      <point x="370" y="382"/>
      <point x="349" y="430"/>
      <point x="258" y="430" type="curve" smooth="yes"/>
      <point x="166" y="430"/>
      <point x="144" y="305"/>
      <point x="144" y="270" type="curve" smooth="yes"/>
      <point x="144" y="0" type="line"/>
    </contour>
  </outline>
</glyph>
<glyph name="o" format="2">
  <advance width="525"/>
  <unicode hex="006F"/>
  <anchor x="262" y="550" name="top"/>
  <anchor x="310" y="15" name="bottom_0"/>
  <outline>
    <contour>
      <point x="40" y="238" type="curve" smooth="yes"/>
      <point x="40" y="417.5"/>
      <point x="140" y="484"/>
      <point x="262" y="484" type="curve" smooth="yes"/>
      <point x="384" y="484"/>
      <point x="484" y="417.5"/>
      <point x="484" y="238" type="curve" smooth="yes"/>
      <point x="484" y="58"/>
      <point x="384" y="-8"/>
      <point x="262" y="-8" type="curve" smooth="yes"/>
      <point x="140" y="-8"/>
      <point x="40" y="58"/>
    </contour>
    <contour>
      <point x="105" y="238" type="curve" smooth="yes"/>
      <point x="105" y="88"/>
      <point x="186" y="42"/>
      <point x="262" y="42" type="curve" smooth="yes"/>
      <point x="338" y="42"/>
      <point x="419" y="88"/>
      <point x="419" y="238" type="curve" smooth="yes"/>
      <point x="419" y="388"/>
      <point x="338" y="434"/>
      <point x="262" y="434" type="curve" smooth="yes"/>
      <point x="186" y="434"/>
      <point x="105" y="388"/>
    </contour>
  </outline>
  <guideline angle="0" x="0" y="238"/>
</glyph>
<glyph name="p" format="2">
  <advance width="517"/>
  <unicode hex="0070"/>
  <anchor x="275" y="550" name="top"/>
  <outline>
    <contour>
      <point x="80" y="-167" type="line"/>
      <point x="80" y="472" type="line"/>
      <point x="144" y="472" type="line"/>
      <point x="144" y="404" type="line"/>
      <point x="203" y="476"/>
      <point x="269" y="480" name=".hr01"/>
      <point x="294" y="480" type="curve" smooth="yes"/>
      <point x="393" y="480"/>
      <point x="469" y="372"/>
      <point x="469" y="238" type="curve" smooth="yes"/>
      <point x="469" y="96"/>
      <point x="378" y="-8"/>
      <point x="273" y="-8" type="curve" smooth="yes"/>
      <point x="186" y="-8"/>
      <point x="147" y="60"/>
      <point x="144" y="66" type="curve"/>
      <point x="144" y="-167" type="line"/>
    </contour>
    <contour>
      <point x="144" y="130" type="line" smooth="yes"/>
      <point x="144" y="92"/>
      <point x="184" y="42"/>
      <point x="242" y="42" type="curve" smooth="yes"/>
      <point x="321" y="42"/>
      <point x="404" y="102"/>
      <point x="404" y="237" type="curve" smooth="yes"/>
      <point x="404" y="368"/>
      <point x="335" y="430"/>
      <point x="252" y="430" type="curve" smooth="yes"/>
      <point x="191" y="430"/>
      <point x="144" y="381"/>
      <point x="144" y="342" type="curve" smooth="yes"/>
    </contour>
  </outline>
</glyph>
<glyph name="q" format="2">
  <advance width="517"/>
  <unicode hex="0071"/>
  <anchor x="242" y="550" name="top"/>
  <outline>
    <contour>
      <point x="46" y="235" type="curve" smooth="yes"/>
      <point x="46" y="381"/>
      <point x="142" y="480"/>
      <point x="242" y="480" type="curve" smooth="yes"/>
      <point x="336.723" y="480"/>
      <point x="370.985" y="400"/>
      <point x="373" y="393" type="curve"/>
      <point x="373" y="472" type="line" name=".hr01"/>
      <point x="437" y="472" type="line"/>
      <point x="437" y="-167" type="line"/>
      <point x="373" y="-167" type="line"/>
      <point x="373" y="77" type="line"/>
      <point x="326.674" y="3"/>
      <point x="264.234" y="-8"/>
      <point x="231" y="-8" type="curve" smooth="yes"/>
      <point x="134" y="-8"/>
      <point x="46" y="93"/>
    </contour>
    <contour>
      <point x="111" y="235" type="curve" smooth="yes"/>
      <point x="111" y="120"/>
      <point x="187" y="42"/>
      <point x="262" y="42" type="curve" smooth="yes"/>
      <point x="326.582" y="42"/>
      <point x="373" y="103"/>
      <point x="373" y="149" type="curve" smooth="yes"/>
      <point x="373" y="315" type="line" smooth="yes"/>
      <point x="373" y="366"/>
      <point x="331.627" y="430"/>
      <point x="262" y="430" type="curve" smooth="yes" name=".hr02"/>
      <point x="187" y="430"/>
      <point x="111" y="355"/>
    </contour>
  </outline>
</glyph>
<glyph name="r" format="2">
  <advance width="360"/>
  <unicode hex="0072"/>
  <anchor x="201" y="550" name="top"/>
  <anchor x="110" y="-50" name="bottom_50"/>
  <outline>
    <contour>
      <point x="80" y="0" type="line"/>
      <point x="80" y="472" type="line"/>
      <point x="144" y="472" type="line"/>
      <point x="144" y="349" type="line"/>
      <point x="163.103" y="394"/>
      <point x="216.389" y="480" name=".hr01"/>
      <point x="330" y="480" type="curve"/>
      <point x="330" y="424" type="line"/>
      <point x="201.308" y="424"/>
      <point x="144" y="324"/>
      <point x="144" y="236" type="curve" smooth="yes"/>
      <point x="144" y="0" type="line"/>
    </contour>
  </outline>
</glyph>
<glyph name="s" format="2">
  <advance width="402"/>
  <unicode hex="0073"/>
  <anchor x="191" y="550" name="top"/>
  <anchor x="208" y="-60" name="bottom_60"/>
  <outline>
    <contour>
      <point x="29" y="39" type="curve"/>
      <point x="39" y="97" type="line"/>
      <point x="82" y="67"/>
      <point x="134" y="42"/>
      <point x="205" y="42" type="curve" smooth="yes"/>
      <point x="258" y="42"/>
      <point x="313" y="65"/>
      <point x="313" y="124" type="curve" smooth="yes"/>
      <point x="313" y="173.013"/>
      <point x="263.791" y="201.381"/>
      <point x="216" y="212" type="curve" smooth="yes"/>
      <point x="158" y="224.888" type="line" smooth="yes"/>
      <point x="97.5268" y="238.325"/>
      <point x="35" y="269.624"/>
      <point x="35" y="355" type="curve" smooth="yes"/>
      <point x="35" y="449"/>
      <point x="113" y="485"/>
      <point x="197" y="485" type="curve" smooth="yes"/>
      <point x="241" y="485"/>
      <point x="304" y="471"/>
      <point x="350" y="451" type="curve"/>
      <point x="340" y="396" type="line"/>
      <point x="296" y="418"/>
      <point x="232" y="435"/>
      <point x="189" y="435" type="curve" smooth="yes"/>
      <point x="146" y="435"/>
      <point x="100" y="417"/>
      <point x="100" y="362" type="curve" smooth="yes"/>
      <point x="100" y="306.321"/>
      <point x="149.362" y="292.976"/>
      <point x="186" y="284.497" type="curve" smooth="yes"/>
      <point x="240" y="272" type="line" smooth="yes"/>
      <point x="315.458" y="254.537"/>
      <point x="378" y="205.836"/>
      <point x="378" y="129" type="curve" smooth="yes"/>
      <point x="378" y="35"/>
      <point x="299" y="-8"/>
      <point x="208" y="-8" type="curve" smooth="yes"/>
      <point x="135" y="-8"/>
      <point x="77" y="12"/>
    </contour>
  </outline>
</glyph>
<glyph name="t" format="2">
  <advance width="379"/>
  <unicode hex="0074"/>
  <anchor x="145" y="720" name="top"/>
  <anchor x="200" y="-50" name="bottom_50"/>
  <outline>
    <contour>
      <point x="19" y="422" type="line"/>
      <point x="19" y="472" type="line"/>
      <point x="115" y="472" type="line"/>
      <point x="115" y="607" type="line"/>
      <point x="179" y="607" type="line"/>
      <point x="179" y="472" type="line"/>
      <point x="334" y="472" type="line"/>
      <point x="334" y="422" type="line"/>
      <point x="179" y="422" type="line"/>
      <point x="179" y="138" type="line" smooth="yes"/>
      <point x="179" y="109"/>
      <point x="181" y="42"/>
      <point x="232" y="42" type="curve" smooth="yes"/>
      <point x="297" y="42"/>
      <point x="334" y="83"/>
      <point x="335" y="85" type="curve"/>
      <point x="348" y="36" type="line"/>
      <point x="312" y="10"/>
      <point x="269" y="-8"/>
      <point x="216" y="-8" type="curve" smooth="yes"/>
      <point x="116.98" y="-8"/>
      <point x="115" y="88"/>
      <point x="115" y="131" type="curve" smooth="yes"/>
      <point x="115" y="422" type="line"/>
    </contour>
  </outline>
</glyph>
<glyph name="u" format="2">
  <advance width="512"/>
  <unicode hex="0075"/>
  <anchor x="252" y="550" name="top"/>
  <anchor x="396" y="10" name="bottom_0"/>
  <anchor x="258" y="-60" name="bottom_60"/>
  <outline>
    <contour>
      <point x="80" y="136" type="curve" smooth="yes"/>
      <point x="80" y="472" type="line"/>
      <point x="144" y="472" type="line"/>
      <point x="144" y="127" type="line" smooth="yes"/>
      <point x="144" y="81"/>
      <point x="144" y="42"/>
      <point x="236" y="42" type="curve" smooth="yes"/>
      <point x="312.836" y="42"/>
      <point x="368" y="94"/>
      <point x="368" y="175" type="curve" smooth="yes"/>
      <point x="368" y="472" type="line"/>
      <point x="432" y="472" type="line"/>
      <point x="432" y="0" type="line" name=".hr01"/>
      <point x="368" y="0" type="line"/>
      <point x="368" y="86" type="line"/>
      <point x="333.4" y="28"/>
      <point x="266.177" y="-8" name=".hr02"/>
      <point x="195" y="-8" type="curve" smooth="yes"/>
      <point x="82.9741" y="-8"/>
      <point x="80" y="81"/>
    </contour>
  </outline>
</glyph>
<glyph name="v" format="2">
  <advance width="458"/>
  <unicode hex="0076"/>
  <anchor x="229" y="550" name="top_550"/>
  <anchor x="229" y="-60" name="bottom_60"/>
  <outline>
    <contour>
      <point x="14" y="472" type="line"/>
      <point x="78" y="472" type="line"/>
      <point x="229" y="65" type="line"/>
      <point x="380" y="472" type="line"/>
      <point x="443" y="472" type="line"/>
      <point x="265" y="-3" type="line"/>
      <point x="191" y="-3" type="line"/>
    </contour>
  </outline>
</glyph>
<glyph name="w" format="2">
  <advance width="692"/>
  <unicode hex="0077"/>
  <anchor x="342" y="550" name="top"/>
  <anchor x="343" y="-60" name="bottom_60"/>
  <outline>
    <contour>
      <point x="14" y="472" type="line"/>
      <point x="77" y="472" type="line"/>
      <point x="196" y="65" type="line"/>
      <point x="317" y="472" type="line"/>
      <point x="375" y="472" type="line"/>
      <point x="494" y="65" type="line"/>
      <point x="615" y="472" type="line"/>
      <point x="676" y="472" type="line"/>
      <point x="531" y="-3" type="line"/>
      <point x="459" y="-3" type="line"/>
      <point x="343" y="394" type="line"/>
      <point x="224" y="-3" type="line"/>
      <point x="159" y="-3" type="line"/>
    </contour>
  </outline>
</glyph>
<glyph name="x" format="2">
  <advance width="458"/>
  <unicode hex="0078"/>
  <anchor x="226" y="550" name="top"/>
  <outline>
    <contour>
      <point x="0" y="0" type="line"/>
      <point x="197" y="243" type="line"/>
      <point x="6" y="472" type="line"/>
      <point x="78" y="472" type="line"/>
      <point x="226" y="289" type="line"/>
      <point x="369" y="472" type="line"/>
      <point x="440" y="472" type="line"/>
      <point x="254" y="243" type="line"/>
      <point x="458" y="0" type="line"/>
      <point x="386" y="0" type="line"/>
      <point x="226" y="207" type="line"/>
      <point x="71" y="0" type="line"/>
    </contour>
  </outline>
</glyph>
<glyph name="y" format="2">
  <advance width="458"/>
  <unicode hex="0079"/>
  <anchor x="229" y="550" name="top"/>
  <outline>
    <contour>
      <point x="14" y="472" type="line"/>
      <point x="79" y="472" type="line"/>
      <point x="234" y="65" type="line"/>
      <point x="380" y="472" type="line"/>
      <point x="443" y="472" type="line"/>
      <point x="248" y="-44" type="line" smooth="yes"/>
      <point x="225.542" y="-103.426"/>
      <point x="190.66" y="-175"/>
      <point x="107" y="-175" type="curve" smooth="yes"/>
      <point x="78.4409" y="-175"/>
      <point x="41.8495" y="-170"/>
      <point x="24" y="-167" type="curve"/>
      <point x="24" y="-112" type="line"/>
      <point x="39.1807" y="-117"/>
      <point x="63.4699" y="-125"/>
      <point x="87" y="-125" type="curve" smooth="yes"/>
      <point x="160.979" y="-125"/>
      <point x="189.264" y="-62.9424"/>
      <point x="201" y="-16" type="curve" smooth="yes"/>
      <point x="205" y="0" type="line"/>
    </contour>
  </outline>
</glyph>
<glyph name="z" format="2">
  <advance width="450"/>
  <unicode hex="007A"/>
  <anchor x="234" y="550" name="top"/>
  <outline>
    <contour>
      <point x="29" y="0" type="line"/>
      <point x="29" y="34" type="line"/>
      <point x="332" y="422" type="line"/>
      <point x="44" y="422" type="line"/>
      <point x="44" y="472" type="line"/>
      <point x="419" y="472" type="line"/>
      <point x="419" y="438" type="line"/>
      <point x="117" y="50" type="line"/>
      <point x="423" y="50" type="line"/>
      <point x="423" y="0" type="line"/>
    </contour>
  </outline>
</glyph>
<glyph name="braceleft" format="2">
  <advance width="525"/>
  <unicode hex="007B"/>
  <outline>
    <contour>
      <point x="62" y="239" type="curve"/>
      <point x="62" y="289" type="line"/>
      <point x="149" y="290"/>
      <point x="230" y="326"/>
      <point x="230" y="418" type="curve" smooth="yes"/>
      <point x="230" y="627" type="line" smooth="yes"/>
      <point x="230" y="722"/>
      <point x="325" y="750"/>
      <point x="425" y="750" type="curve" smooth="yes"/>
      <point x="462" y="750" type="line"/>
      <point x="462" y="700" type="line"/>
      <point x="437" y="700" type="line" smooth="yes"/>
      <point x="366" y="700"/>
      <point x="294" y="695"/>
      <point x="294" y="620" type="curve" smooth="yes"/>
      <point x="294" y="415" type="line" smooth="yes"/>
      <point x="294" y="266"/>
      <point x="123" y="265"/>
      <point x="123" y="264" type="curve"/>
      <point x="178" y="262"/>
      <point x="294" y="234"/>
      <point x="294" y="113" type="curve" smooth="yes"/>
      <point x="294" y="-92" type="line" smooth="yes"/>
      <point x="294" y="-153"/>
      <point x="316" y="-172"/>
      <point x="462" y="-172" type="curve"/>
      <point x="462" y="-222" type="line"/>
      <point x="425" y="-222" type="line" smooth="yes"/>
      <point x="274" y="-222"/>
      <point x="230" y="-158"/>
      <point x="230" y="-106" type="curve" smooth="yes"/>
      <point x="230" y="110" type="line"/>
      <point x="227" y="137"/>
      <point x="230" y="232"/>
    </contour>
  </outline>
</glyph>
<glyph name="bar" format="2">
  <advance width="292"/>
  <unicode hex="007C"/>
  <outline>
    <contour>
      <point x="113" y="-193" type="line"/>
      <point x="113" y="720" type="line"/>
      <point x="177" y="720" type="line"/>
      <point x="177" y="-193" type="line"/>
    </contour>
  </outline>
</glyph>
<glyph name="braceright" format="2">
  <advance width="525"/>
  <unicode hex="007D"/>
  <outline>
    <contour>
      <point x="462" y="239" type="line" name=".hr02"/>
      <point x="294" y="232"/>
      <point x="297" y="137"/>
      <point x="294" y="110" type="curve"/>
      <point x="294" y="-106" type="line" smooth="yes"/>
      <point x="294" y="-158"/>
      <point x="250" y="-222"/>
      <point x="99" y="-222" type="curve" smooth="yes"/>
      <point x="62" y="-222" type="line"/>
      <point x="62" y="-172" type="line"/>
      <point x="208" y="-172"/>
      <point x="230" y="-153"/>
      <point x="230" y="-92" type="curve" smooth="yes"/>
      <point x="230" y="113" type="line" smooth="yes"/>
      <point x="230" y="234"/>
      <point x="346" y="262"/>
      <point x="401" y="264" type="curve" name=".hr01"/>
      <point x="401" y="265"/>
      <point x="230" y="266"/>
      <point x="230" y="415" type="curve" smooth="yes"/>
      <point x="230" y="620" type="line" smooth="yes"/>
      <point x="230" y="695"/>
      <point x="158" y="700"/>
      <point x="87" y="700" type="curve" smooth="yes"/>
      <point x="62" y="700" type="line"/>
      <point x="62" y="750" type="line"/>
      <point x="99" y="750" type="line" smooth="yes"/>
      <point x="199" y="750"/>
      <point x="294" y="722"/>
      <point x="294" y="627" type="curve" smooth="yes"/>
      <point x="294" y="418" type="line" smooth="yes"/>
      <point x="294" y="326"/>
      <point x="375" y="290"/>
      <point x="462" y="289" type="curve"/>
    </contour>
  </outline>
</glyph>
<glyph name="asciitilde" format="2">
  <advance width="642"/>
  <unicode hex="007E"/>
  <outline>
    <contour>
      <point x="87" y="589" type="line"/>
      <point x="89" y="660"/>
      <point x="157" y="694"/>
      <point x="215" y="694" type="curve" smooth="yes"/>
      <point x="291" y="694"/>
      <point x="352" y="639"/>
      <point x="424" y="639" type="curve" smooth="yes"/>
      <point x="443" y="639"/>
      <point x="498" y="644"/>
      <point x="503" y="695" type="curve" name=".hr01"/>
      <point x="554" y="695" type="line"/>
      <point x="550" y="617"/>
      <point x="477" y="589"/>
      <point x="426" y="589" type="curve" smooth="yes"/>
      <point x="348" y="589"/>
      <point x="287" y="644" name=".hr02"/>
      <point x="216" y="644" type="curve" smooth="yes"/>
      <point x="198" y="644"/>
      <point x="143" y="639"/>
      <point x="137" y="589" type="curve"/>
      <point x="112" y="589" type="line"/>
    </contour>
  </outline>
</glyph>
<glyph name="exclamdown" format="2">
  <advance width="325"/>
  <unicode hex="00A1"/>
  <outline>
    <contour>
      <point x="123" y="-167" type="line"/>
      <point x="131" y="350" type="line"/>
      <point x="193" y="350" type="line"/>
      <point x="201" y="-167" type="line"/>
    </contour>
    <contour>
      <point x="123" y="450" type="line"/>
      <point x="123" y="528" type="line"/>
      <point x="201" y="528" type="line"/>
      <point x="201" y="450" type="line"/>
    </contour>
  </outline>
</glyph>
<glyph name="cent" format="2">
  <advance width="525"/>
  <unicode hex="00A2"/>
  <outline>
    <contour>
      <point x="46" y="236" type="curve" smooth="yes"/>
      <point x="46" y="352"/>
      <point x="128" y="468"/>
      <point x="266" y="483" type="curve"/>
      <point x="266" y="560" type="line"/>
      <point x="316" y="560" type="line"/>
      <point x="316" y="484" type="line"/>
      <point x="386" y="484"/>
      <point x="425" y="471"/>
      <point x="489" y="442" type="curve"/>
      <point x="480" y="387" type="line"/>
      <point x="412" y="420"/>
      <point x="382" y="431"/>
      <point x="316" y="432" type="curve"/>
      <point x="316" y="45" type="line"/>
      <point x="391" y="50"/>
      <point x="434" y="72"/>
      <point x="490" y="111" type="curve"/>
      <point x="495" y="55" type="line"/>
      <point x="442" y="19"/>
      <point x="389" y="-3"/>
      <point x="316" y="-7" type="curve"/>
      <point x="316" y="-83" type="line"/>
      <point x="266" y="-83" type="line"/>
      <point x="266" y="-7" type="line"/>
      <point x="146" y="6"/>
      <point x="46" y="105"/>
    </contour>
    <contour>
      <point x="111" y="237" type="curve" smooth="yes"/>
      <point x="111" y="144"/>
      <point x="163" y="60"/>
      <point x="266" y="45" type="curve"/>
      <point x="266" y="431" type="line"/>
      <point x="170" y="419"/>
      <point x="111" y="340"/>
    </contour>
  </outline>
</glyph>
<glyph name="sterling" format="2">
  <advance width="671"/>
  <unicode hex="00A3"/>
  <outline>
    <contour>
      <point x="58" y="57" type="curve" smooth="yes"/>
      <point x="58" y="106"/>
      <point x="114" y="139"/>
      <point x="188" y="139" type="curve" smooth="yes"/>
      <point x="208" y="139"/>
      <point x="229" y="136"/>
      <point x="255" y="129" type="curve"/>
      <point x="259" y="155"/>
      <point x="259" y="188"/>
      <point x="259" y="218" type="curve" smooth="yes"/>
      <point x="259" y="322" type="line"/>
      <point x="174" y="322" type="line"/>
      <point x="174" y="373" type="line"/>
      <point x="259" y="373" type="line"/>
      <point x="259" y="511" type="line" smooth="yes"/>
      <point x="259" y="665"/>
      <point x="363" y="728"/>
      <point x="437" y="728" type="curve" smooth="yes"/>
      <point x="552" y="728"/>
      <point x="612" y="636.831"/>
      <point x="612" y="579" type="curve"/>
      <point x="548" y="579" type="line"/>
      <point x="546" y="631.5"/>
      <point x="503" y="677"/>
      <point x="436" y="677" type="curve" smooth="yes"/>
      <point x="332" y="677"/>
      <point x="323" y="571"/>
      <point x="323" y="505" type="curve" smooth="yes"/>
      <point x="323" y="373" type="line"/>
      <point x="437" y="373" type="line"/>
      <point x="437" y="322" type="line"/>
      <point x="323" y="322" type="line"/>
      <point x="323" y="218" type="line" smooth="yes"/>
      <point x="323" y="173.13"/>
      <point x="322.724" y="146.171"/>
      <point x="312" y="108" type="curve"/>
      <point x="392" y="71"/>
      <point x="449" y="42"/>
      <point x="505" y="42" type="curve" smooth="yes"/>
      <point x="553.523" y="42"/>
      <point x="575.333" y="87.3316"/>
      <point x="577" y="139" type="curve"/>
      <point x="641" y="139" type="line"/>
      <point x="637.12" y="76.9276"/>
      <point x="612" y="-8"/>
      <point x="481" y="-8" type="curve" smooth="yes"/>
      <point x="426.933" y="-8"/>
      <point x="347.026" y="28.6546"/>
      <point x="283" y="58" type="curve"/>
      <point x="229" y="-6"/>
      <point x="167" y="-8"/>
      <point x="146" y="-8" type="curve" smooth="yes"/>
      <point x="97" y="-8"/>
      <point x="58" y="18"/>
    </contour>
    <contour>
      <point x="120" y="59" type="curve" smooth="yes"/>
      <point x="120" y="52"/>
      <point x="124" y="42"/>
      <point x="150" y="42" type="curve" smooth="yes"/>
      <point x="202" y="42"/>
      <point x="231" y="84"/>
      <point x="231" y="84" type="curve"/>
      <point x="211" y="88.2727"/>
      <point x="186" y="89"/>
      <point x="165" y="89" type="curve" smooth="yes"/>
      <point x="127" y="89"/>
      <point x="120" y="65"/>
    </contour>
  </outline>
</glyph>
<glyph name="currency" format="2">
  <advance width="803"/>
  <unicode hex="00A4"/>
  <outline>
    <contour>
      <point x="52" y="-28" type="curve" smooth="yes"/>
      <point x="52" y="-20"/>
      <point x="54" y="-15"/>
      <point x="77" y="8" type="curve" smooth="yes"/>
      <point x="167" y="97" type="line"/>
      <point x="167" y="98" type="line"/>
      <point x="116" y="154"/>
      <point x="89" y="230" name=".hr01"/>
      <point x="89" y="303" type="curve" smooth="yes"/>
      <point x="89" y="370"/>
      <point x="112" y="448"/>
      <point x="167" y="509" type="curve"/>
      <point x="56" y="622"/>
      <point x="52" y="620" name=".hr02"/>
      <point x="52" y="634" type="curve" smooth="yes"/>
      <point x="52" y="645"/>
      <point x="63" y="653"/>
      <point x="71" y="653" type="curve" smooth="yes"/>
      <point x="87" y="653"/>
      <point x="96" y="635"/>
      <point x="196" y="538" type="curve"/>
      <point x="256" y="592"/>
      <point x="334" y="615" name=".hr03"/>
      <point x="401" y="615" type="curve" smooth="yes"/>
      <point x="468" y="615"/>
      <point x="546" y="593"/>
      <point x="606" y="538" type="curve"/>
      <point x="711" y="642"/>
      <point x="719" y="653" name=".hr04"/>
      <point x="731" y="653" type="curve" smooth="yes"/>
      <point x="739" y="653"/>
      <point x="750" y="647"/>
      <point x="750" y="632" type="curve" smooth="yes"/>
      <point x="750" y="622"/>
      <point x="746" y="620"/>
      <point x="635" y="509" type="curve"/>
      <point x="686" y="453"/>
      <point x="713" y="378" name=".hr05"/>
      <point x="713" y="303" type="curve" smooth="yes"/>
      <point x="713" y="215"/>
      <point x="678" y="148"/>
      <point x="635" y="98" type="curve"/>
      <point x="716" y="18" type="line" smooth="yes"/>
      <point x="742" y="-8"/>
      <point x="750" y="-18" name=".hr06"/>
      <point x="750" y="-26" type="curve" smooth="yes"/>
      <point x="750" y="-38"/>
      <point x="739" y="-46"/>
      <point x="732" y="-46" type="curve" smooth="yes"/>
      <point x="715" y="-46"/>
      <point x="716" y="-38"/>
      <point x="606" y="70" type="curve"/>
      <point x="550" y="19"/>
      <point x="475" y="-8" name=".hr07"/>
      <point x="400" y="-8" type="curve" smooth="yes"/>
      <point x="312" y="-8"/>
      <point x="245" y="27"/>
      <point x="195" y="70" type="curve"/>
      <point x="140" y="14" type="line" smooth="yes"/>
      <point x="82" y="-45"/>
      <point x="81" y="-46" name=".hr08"/>
      <point x="70" y="-46" type="curve" smooth="yes"/>
      <point x="59" y="-46"/>
      <point x="52" y="-33"/>
    </contour>
    <contour>
      <point x="129" y="304" type="curve" smooth="yes"/>
      <point x="129" y="157"/>
      <point x="249" y="32"/>
      <point x="400" y="32" type="curve" smooth="yes"/>
      <point x="547" y="32"/>
      <point x="673" y="150"/>
      <point x="673" y="304" type="curve" smooth="yes"/>
      <point x="673" y="454"/>
      <point x="550" y="575"/>
      <point x="402" y="575" type="curve" smooth="yes"/>
      <point x="254" y="575"/>
      <point x="129" y="456"/>
    </contour>
  </outline>
</glyph>
<glyph name="yen" format="2">
  <advance width="675"/>
  <unicode hex="00A5"/>
  <outline>
    <contour>
      <point x="-21" y="225" type="curve" smooth="yes"/>
      <point x="-21" y="248"/>
      <point x="0" y="250"/>
      <point x="12" y="250" type="curve" smooth="yes"/>
      <point x="303" y="250" type="line"/>
      <point x="303" y="278" type="line"/>
      <point x="287" y="300"/>
      <point x="271" y="323"/>
      <point x="255" y="345" type="curve" smooth="yes"/>
      <point x="207" y="412" type="line"/>
      <point x="19" y="412" type="line" smooth="yes"/>
      <point x="-1" y="412"/>
      <point x="-21" y="414"/>
      <point x="-21" y="437" type="curve" smooth="yes"/>
      <point x="-21" y="458"/>
      <point x="-9" y="463"/>
      <point x="50" y="463" type="curve" smooth="yes"/>
      <point x="170" y="463" type="line"/>
      <point x="114" y="540"/>
      <point x="59" y="618"/>
      <point x="3" y="695" type="curve"/>
      <point x="88" y="695" type="line"/>
      <point x="255" y="463" type="line"/>
      <point x="429" y="463" type="line"/>
      <point x="485" y="540"/>
      <point x="540" y="618"/>
      <point x="596" y="695" type="curve"/>
      <point x="672" y="695" type="line"/>
      <point x="505" y="463" type="line"/>
      <point x="625" y="463" type="line" smooth="yes"/>
      <point x="689" y="463"/>
      <point x="696" y="455"/>
      <point x="696" y="437" type="curve" smooth="yes"/>
      <point x="696" y="414"/>
      <point x="674" y="412"/>
      <point x="661" y="412" type="curve" smooth="yes"/>
      <point x="468" y="412" type="line"/>
      <point x="372" y="278" type="line"/>
      <point x="372" y="250" type="line"/>
      <point x="656" y="250" type="line" smooth="yes"/>
      <point x="676" y="250"/>
      <point x="696" y="247"/>
      <point x="696" y="225" type="curve" smooth="yes"/>
      <point x="696" y="201"/>
      <point x="676" y="199"/>
      <point x="663" y="199" type="curve" smooth="yes"/>
      <point x="660" y="199"/>
      <point x="658" y="200"/>
      <point x="657" y="200" type="curve" smooth="yes"/>
      <point x="372" y="200" type="line"/>
      <point x="372" y="0" type="line"/>
      <point x="303" y="0" type="line"/>
      <point x="303" y="200" type="line"/>
      <point x="18" y="200" type="line" smooth="yes"/>
      <point x="17" y="200"/>
      <point x="15" y="199"/>
      <point x="12" y="199" type="curve" smooth="yes"/>
      <point x="-1" y="199"/>
      <point x="-21" y="201"/>
    </contour>
    <contour>
      <point x="292" y="412" type="line"/>
      <point x="342" y="342" type="line"/>
      <point x="393" y="412" type="line"/>
    </contour>
  </outline>
</glyph>
<glyph name="brokenbar" format="2">
  <advance width="175"/>
  <unicode hex="00A6"/>
  <outline>
    <contour>
      <point x="55" y="177" type="line"/>
      <point x="119" y="177" type="line"/>
      <point x="119" y="-221" type="line"/>
      <point x="55" y="-221" type="line"/>
    </contour>
    <contour>
      <point x="55" y="351" type="line"/>
      <point x="55" y="749" type="line"/>
      <point x="119" y="749" type="line"/>
      <point x="119" y="351" type="line"/>
    </contour>
  </outline>
</glyph>
<glyph name="section" format="2">
  <advance width="467"/>
  <unicode hex="00A7"/>
  <outline>
    <contour>
      <point x="46" y="-105" type="curve"/>
      <point x="56" y="-48" type="line"/>
      <point x="75" y="-66"/>
      <point x="125" y="-125"/>
      <point x="227" y="-125" type="curve" smooth="yes"/>
      <point x="251" y="-125"/>
      <point x="269" y="-118"/>
      <point x="285" y="-107" type="curve" smooth="yes"/>
      <point x="316" y="-86"/>
      <point x="330" y="-50"/>
      <point x="330" y="-18" type="curve" smooth="yes"/>
      <point x="330" y="63"/>
      <point x="226" y="92"/>
      <point x="202" y="104" type="curve" smooth="yes"/>
      <point x="115" y="146"/>
      <point x="72" y="203"/>
      <point x="72" y="270" type="curve" smooth="yes"/>
      <point x="72" y="301"/>
      <point x="82" y="362"/>
      <point x="154" y="407" type="curve"/>
      <point x="82" y="457"/>
      <point x="72" y="514"/>
      <point x="72" y="546" type="curve" smooth="yes"/>
      <point x="72" y="624"/>
      <point x="134" y="703"/>
      <point x="236" y="703" type="curve" smooth="yes"/>
      <point x="306" y="703"/>
      <point x="350" y="678"/>
      <point x="390" y="647" type="curve"/>
      <point x="380" y="592" type="line"/>
      <point x="344" y="622"/>
      <point x="309" y="652"/>
      <point x="236" y="652" type="curve" smooth="yes"/>
      <point x="212" y="652"/>
      <point x="193" y="645"/>
      <point x="178" y="634" type="curve"/>
      <point x="178" y="634" type="line"/>
      <point x="148" y="612"/>
      <point x="135" y="575"/>
      <point x="135" y="546" type="curve" smooth="yes"/>
      <point x="135" y="483"/>
      <point x="192" y="453"/>
      <point x="232" y="436" type="curve" smooth="yes"/>
      <point x="265" y="421"/>
      <point x="393" y="375"/>
      <point x="393" y="258" type="curve" smooth="yes"/>
      <point x="393" y="226"/>
      <point x="383" y="165"/>
      <point x="311" y="120" type="curve"/>
      <point x="383" y="71"/>
      <point x="393" y="13"/>
      <point x="393" y="-18" type="curve" smooth="yes"/>
      <point x="393" y="-95"/>
      <point x="331" y="-175"/>
      <point x="228" y="-175" type="curve" smooth="yes"/>
      <point x="139" y="-175"/>
      <point x="89" y="-141"/>
    </contour>
    <contour>
      <point x="135" y="270" type="curve" smooth="yes"/>
      <point x="135" y="186"/>
      <point x="247" y="155"/>
      <point x="253" y="155" type="curve" smooth="yes"/>
      <point x="282" y="155"/>
      <point x="330" y="198"/>
      <point x="330" y="257" type="curve" smooth="yes"/>
      <point x="330" y="343"/>
      <point x="217" y="373"/>
      <point x="212" y="373" type="curve" smooth="yes"/>
      <point x="183" y="373"/>
      <point x="135" y="329"/>
    </contour>
  </outline>
</glyph>
<glyph name="dieresis" format="2">
  <advance width="397"/>
  <unicode hex="00A8"/>
  <anchor x="198" y="550" name="_top"/>
  <outline>
    <contour>
      <point x="239" y="549.916" type="line"/>
      <point x="239" y="627.916" type="line"/>
      <point x="317" y="627.916" type="line"/>
      <point x="317" y="549.916" type="line"/>
    </contour>
    <contour>
      <point x="80" y="549.916" type="line"/>
      <point x="80" y="627.916" type="line"/>
      <point x="158" y="627.916" type="line"/>
      <point x="158" y="549.916" type="line"/>
    </contour>
  </outline>
  <guideline angle="0" x="0" y="550"/>
  <guideline angle="90" x="198" y="0"/>
</glyph>
<glyph name="copyright" format="2">
  <advance width="1091"/>
  <unicode hex="00A9"/>
  <outline>
    <contour>
      <point x="218" y="258" type="curve" smooth="yes"/>
      <point x="218" y="447"/>
      <point x="351" y="622"/>
      <point x="550" y="622" type="curve" smooth="yes"/>
      <point x="637" y="622"/>
      <point x="696" y="604"/>
      <point x="743" y="588" type="curve"/>
      <point x="730" y="519" type="line"/>
      <point x="674" y="548"/>
      <point x="631" y="569"/>
      <point x="549" y="569" type="curve" smooth="yes"/>
      <point x="405" y="569"/>
      <point x="288" y="435"/>
      <point x="288" y="258" type="curve" smooth="yes"/>
      <point x="288" y="96"/>
      <point x="393" y="-53"/>
      <point x="550" y="-53" type="curve" smooth="yes"/>
      <point x="650.548" y="-53"/>
      <point x="686.256" y="-28"/>
      <point x="737" y="8" type="curve"/>
      <point x="754" y="-50" type="line"/>
      <point x="696" y="-83"/>
      <point x="655" y="-106"/>
      <point x="550" y="-106" type="curve" smooth="yes"/>
      <point x="351" y="-106"/>
      <point x="218" y="69"/>
    </contour>
    <contour>
      <point x="58" y="263" type="curve" smooth="yes"/>
      <point x="58" y="538"/>
      <point x="273" y="767"/>
      <point x="545" y="767" type="curve" smooth="yes"/>
      <point x="806" y="767"/>
      <point x="1032" y="549"/>
      <point x="1032" y="264" type="curve" smooth="yes"/>
      <point x="1032" y="-9"/>
      <point x="819" y="-239"/>
      <point x="544" y="-239" type="curve" smooth="yes"/>
      <point x="284" y="-239"/>
      <point x="58" y="-22"/>
    </contour>
    <contour>
      <point x="98" y="263" type="curve" smooth="yes"/>
      <point x="98" y="-7"/>
      <point x="314" y="-199"/>
      <point x="544" y="-199" type="curve" smooth="yes"/>
      <point x="785" y="-199"/>
      <point x="992" y="1"/>
      <point x="992" y="264" type="curve" smooth="yes"/>
      <point x="992" y="534"/>
      <point x="776" y="727"/>
      <point x="546" y="727" type="curve" smooth="yes"/>
      <point x="305" y="727"/>
      <point x="98" y="527"/>
    </contour>
  </outline>
</glyph>
<glyph name="ordfeminine" format="2">
  <advance width="422"/>
  <unicode hex="00AA"/>
  <outline>
    <contour>
      <point x="33" y="284" type="line"/>
      <point x="33" y="335" type="line" name=".hr01"/>
      <point x="382" y="335" type="line"/>
      <point x="382" y="284" type="line"/>
    </contour>
    <contour>
      <point x="55" y="447" type="curve" smooth="yes"/>
      <point x="55" y="510"/>
      <point x="211" y="515"/>
      <point x="288" y="515" type="curve"/>
      <point x="288" y="574" type="line" smooth="yes"/>
      <point x="288" y="635"/>
      <point x="272" y="715"/>
      <point x="214" y="715" type="curve" smooth="yes"/>
      <point x="151" y="715"/>
      <point x="107" y="677"/>
      <point x="87" y="659" type="curve"/>
      <point x="82" y="715" type="line"/>
      <point x="121" y="744"/>
      <point x="159" y="762"/>
      <point x="217" y="762" type="curve" smooth="yes"/>
      <point x="298" y="762"/>
      <point x="353" y="682"/>
      <point x="353" y="577" type="curve" smooth="yes"/>
      <point x="353" y="375" type="line"/>
      <point x="289" y="375" type="line"/>
      <point x="289" y="419" type="line"/>
      <point x="270" y="400"/>
      <point x="228" y="367"/>
      <point x="135" y="367" type="curve" smooth="yes"/>
      <point x="75" y="367"/>
      <point x="55" y="420"/>
    </contour>
    <contour>
      <point x="117.976" y="447.944" type="curve" smooth="yes"/>
      <point x="117.976" y="428.701"/>
      <point x="136.768" y="417"/>
      <point x="188" y="417" type="curve" smooth="yes"/>
      <point x="249" y="417"/>
      <point x="288" y="437"/>
      <point x="288" y="485" type="curve"/>
      <point x="123.234" y="483.128"/>
      <point x="117.976" y="458.469"/>
    </contour>
  </outline>
</glyph>
<glyph name="guillemotleft" format="2">
  <advance width="700"/>
  <unicode hex="00AB"/>
  <outline>
    <contour>
      <point x="116" y="236" type="line"/>
      <point x="363" y="472" type="line"/>
      <point x="419" y="472" type="line"/>
      <point x="176" y="236" type="line"/>
      <point x="257" y="157"/>
      <point x="338" y="79"/>
      <point x="419" y="0" type="curve"/>
      <point x="363" y="0" type="line"/>
    </contour>
    <contour>
      <point x="291" y="236" type="line"/>
      <point x="538" y="472" type="line"/>
      <point x="594" y="472" type="line"/>
      <point x="351" y="236" type="line"/>
      <point x="432" y="157"/>
      <point x="513" y="79"/>
      <point x="594" y="0" type="curve"/>
      <point x="538" y="0" type="line"/>
    </contour>
  </outline>
</glyph>
<glyph name="logicalnot" format="2">
  <advance width="642"/>
  <unicode hex="00AC"/>
  <outline>
    <contour>
      <point x="59" y="340" type="curve" smooth="yes"/>
      <point x="59" y="363"/>
      <point x="86" y="359"/>
      <point x="92" y="360" type="curve"/>
      <point x="555" y="360" type="line" smooth="yes"/>
      <point x="582" y="360"/>
      <point x="583" y="344"/>
      <point x="583" y="330" type="curve" smooth="yes"/>
      <point x="583" y="135" type="line" smooth="yes"/>
      <point x="583" y="119"/>
      <point x="579" y="104"/>
      <point x="563" y="104" type="curve" smooth="yes"/>
      <point x="545" y="104"/>
      <point x="543" y="122"/>
      <point x="543" y="134" type="curve" smooth="yes"/>
      <point x="543" y="320" type="line"/>
      <point x="179" y="320" type="line"/>
      <point x="88" y="320" type="line" smooth="yes"/>
      <point x="73" y="320"/>
      <point x="59" y="324"/>
    </contour>
  </outline>
</glyph>
<glyph name="registered" format="2">
  <advance width="1091"/>
  <unicode hex="00AE"/>
  <outline>
    <contour>
      <point x="58" y="263" type="curve" smooth="yes"/>
      <point x="58" y="536.858"/>
      <point x="271.602" y="767"/>
      <point x="545" y="767" type="curve" smooth="yes"/>
      <point x="800.658" y="767"/>
      <point x="1032" y="558.644"/>
      <point x="1032" y="264" type="curve" smooth="yes"/>
      <point x="1032" y="-9"/>
      <point x="819" y="-239"/>
      <point x="544" y="-239" type="curve" smooth="yes"/>
      <point x="284" y="-239"/>
      <point x="58" y="-22"/>
    </contour>
    <contour>
      <point x="98" y="263" type="curve" smooth="yes"/>
      <point x="98" y="-7"/>
      <point x="314" y="-199"/>
      <point x="544" y="-199" type="curve" smooth="yes"/>
      <point x="785" y="-199"/>
      <point x="992" y="1"/>
      <point x="992" y="264" type="curve" smooth="yes"/>
      <point x="992" y="534"/>
      <point x="776" y="727"/>
      <point x="546" y="727" type="curve" smooth="yes"/>
      <point x="305" y="727"/>
      <point x="98" y="527"/>
    </contour>
    <contour>
      <point x="294" y="-74" type="line"/>
      <point x="294" y="621" type="line"/>
      <point x="524" y="621" type="line" smooth="yes"/>
      <point x="732" y="621"/>
      <point x="807" y="508"/>
      <point x="807" y="433" type="curve" smooth="yes"/>
      <point x="807" y="347"/>
      <point x="719" y="274"/>
      <point x="614" y="256" type="curve"/>
      <point x="837" y="-74" type="line"/>
      <point x="767" y="-74" type="line"/>
      <point x="551" y="248" type="line"/>
      <point x="363" y="248" type="line"/>
      <point x="363" y="-74" type="line"/>
    </contour>
    <contour>
      <point x="363" y="299" type="line"/>
      <point x="509" y="299" type="line" smooth="yes"/>
      <point x="581" y="299"/>
      <point x="742" y="305"/>
      <point x="742" y="433" type="curve" smooth="yes"/>
      <point x="742" y="513"/>
      <point x="662" y="567"/>
      <point x="540" y="567" type="curve" smooth="yes"/>
      <point x="363" y="567" type="line"/>
    </contour>
  </outline>
</glyph>
<glyph name="macron" format="2">
  <advance width="481"/>
  <unicode hex="00AF"/>
  <anchor x="234" y="550" name="top"/>
  <outline>
    <contour>
      <point x="80.941" y="550" type="line"/>
      <point x="80.941" y="604" type="line"/>
      <point x="400.059" y="604" type="line"/>
      <point x="400.059" y="550" type="line"/>
    </contour>
  </outline>
</glyph>
<glyph name="degree" format="2">
  <advance width="350"/>
  <unicode hex="00B0"/>
  <outline>
    <contour>
      <point x="58" y="578" type="curve" smooth="yes"/>
      <point x="58" y="642"/>
      <point x="111" y="694"/>
      <point x="174" y="694" type="curve" smooth="yes"/>
      <point x="243" y="694"/>
      <point x="291" y="638"/>
      <point x="291" y="579" type="curve" smooth="yes"/>
      <point x="291" y="514"/>
      <point x="238" y="462"/>
      <point x="175" y="462" type="curve" smooth="yes"/>
      <point x="106" y="462"/>
      <point x="58" y="518"/>
    </contour>
    <contour>
      <point x="98" y="578" type="curve" smooth="yes"/>
      <point x="98" y="539"/>
      <point x="129" y="502"/>
      <point x="174" y="502" type="curve" smooth="yes"/>
      <point x="215" y="502"/>
      <point x="250" y="534"/>
      <point x="250" y="578" type="curve" smooth="yes"/>
      <point x="250" y="617"/>
      <point x="220" y="654"/>
      <point x="174" y="654" type="curve" smooth="yes"/>
      <point x="134" y="654"/>
      <point x="98" y="622"/>
    </contour>
  </outline>
</glyph>
<glyph name="plusminus" format="2">
  <advance width="642"/>
  <unicode hex="00B1"/>
  <outline>
    <contour>
      <point x="59" y="129" type="line"/>
      <point x="301" y="129" type="line"/>
      <point x="301" y="331" type="line"/>
      <point x="59" y="331" type="line"/>
      <point x="59" y="371" type="line"/>
      <point x="301" y="371" type="line"/>
      <point x="301" y="613" type="line"/>
      <point x="341" y="613" type="line"/>
      <point x="341" y="371" type="line"/>
      <point x="582" y="371" type="line"/>
      <point x="582" y="331" type="line"/>
      <point x="341" y="331" type="line"/>
      <point x="341" y="129" type="line"/>
      <point x="582" y="129" type="line"/>
      <point x="582" y="89" type="line"/>
      <point x="59" y="89" type="line"/>
    </contour>
  </outline>
</glyph>
<glyph name="uni00B2" format="2">
  <advance width="467"/>
  <unicode hex="00B2"/>
  <outline>
    <contour>
      <point x="43" y="677" type="curve"/>
      <point x="70" y="713"/>
      <point x="113" y="767"/>
      <point x="218" y="767" type="curve" smooth="yes"/>
      <point x="333" y="767"/>
      <point x="413" y="710"/>
      <point x="413" y="625" type="curve" smooth="yes"/>
      <point x="413" y="559"/>
      <point x="357" y="531"/>
      <point x="297" y="505" type="curve" smooth="yes"/>
      <point x="226" y="474"/>
      <point x="324" y="528"/>
      <point x="107" y="403" type="curve"/>
      <point x="229" y="403" type="line"/>
      <point x="291" y="403" type="line"/>
      <point x="413" y="403" type="line"/>
      <point x="413" y="347" type="line"/>
      <point x="52" y="347" type="line"/>
      <point x="52" y="403" type="line"/>
      <point x="155" y="465"/>
      <point x="168" y="472"/>
      <point x="182" y="480" type="curve"/>
      <point x="255" y="519"/>
      <point x="347" y="543"/>
      <point x="347" y="623" type="curve" smooth="yes"/>
      <point x="347" y="696"/>
      <point x="263" y="714"/>
      <point x="206" y="714" type="curve" smooth="yes"/>
      <point x="111" y="714"/>
      <point x="91" y="654"/>
      <point x="76" y="629" type="curve"/>
      <point x="70" y="637"/>
      <point x="64" y="645"/>
      <point x="59" y="653" type="curve"/>
      <point x="53" y="661"/>
      <point x="48" y="669"/>
    </contour>
  </outline>
</glyph>
<glyph name="uni00B3" format="2">
  <advance width="467"/>
  <unicode hex="00B3"/>
  <outline>
    <contour>
      <point x="43" y="382" type="curve"/>
      <point x="51" y="434" type="line"/>
      <point x="108" y="409"/>
      <point x="163" y="391"/>
      <point x="236" y="391" type="curve" smooth="yes"/>
      <point x="330" y="391"/>
      <point x="352" y="436"/>
      <point x="352" y="463" type="curve" smooth="yes"/>
      <point x="352" y="523"/>
      <point x="276" y="536"/>
      <point x="224" y="536" type="curve" smooth="yes"/>
      <point x="174" y="536" type="line"/>
      <point x="174" y="586" type="line"/>
      <point x="219" y="590"/>
      <point x="326" y="594" name=".hr01"/>
      <point x="326" y="664" type="curve" smooth="yes"/>
      <point x="326" y="683"/>
      <point x="312" y="716"/>
      <point x="239" y="716" type="curve" smooth="yes"/>
      <point x="166" y="716"/>
      <point x="121" y="685"/>
      <point x="86" y="655" type="curve"/>
      <point x="58" y="702" type="line"/>
      <point x="107" y="741"/>
      <point x="165" y="767"/>
      <point x="236" y="767" type="curve" smooth="yes"/>
      <point x="319" y="767"/>
      <point x="393" y="725"/>
      <point x="393" y="664" type="curve" smooth="yes"/>
      <point x="393" y="593"/>
      <point x="312" y="562"/>
      <point x="312" y="561" type="curve"/>
      <point x="386" y="540"/>
      <point x="411" y="506"/>
      <point x="419" y="482" type="curve"/>
      <point x="422" y="474" name=".hr02"/>
      <point x="422" y="467"/>
      <point x="422" y="462" type="curve" smooth="yes"/>
      <point x="422" y="391"/>
      <point x="336" y="339"/>
      <point x="234" y="339" type="curve" smooth="yes"/>
      <point x="158" y="339"/>
      <point x="98" y="358"/>
    </contour>
  </outline>
</glyph>
<glyph name="acute" format="2">
  <advance width="525"/>
  <unicode hex="00B4"/>
  <anchor x="183" y="550" name="_top"/>
  <outline>
    <contour>
      <point x="156.313" y="550" type="line"/>
      <point x="276.313" y="708" type="line"/>
      <point x="349.313" y="708" type="line"/>
      <point x="206.313" y="550" type="line"/>
    </contour>
  </outline>
  <guideline angle="0" x="0" y="708"/>
</glyph>
<glyph name="mu" format="2">
  <advance width="517"/>
  <unicode hex="00B5"/>
  <outline>
    <contour>
      <point x="80" y="-167" type="line"/>
      <point x="80" y="472" type="line"/>
      <point x="145" y="472" type="line"/>
      <point x="145" y="124" type="line" smooth="yes"/>
      <point x="145" y="61.28"/>
      <point x="165.528" y="39"/>
      <point x="237" y="39" type="curve" smooth="yes"/>
      <point x="315" y="39"/>
      <point x="371" y="92"/>
      <point x="371" y="175" type="curve" smooth="yes"/>
      <point x="371" y="472" type="line"/>
      <point x="435" y="472" type="line"/>
      <point x="435" y="0" type="line"/>
      <point x="372" y="0" type="line"/>
      <point x="372" y="86" type="line"/>
      <point x="337" y="28"/>
      <point x="269" y="-8" name=".hr01"/>
      <point x="196" y="-8" type="curve" smooth="yes"/>
      <point x="177" y="-8"/>
      <point x="165" y="-6"/>
      <point x="145" y="0" type="curve" name=".hr02"/>
      <point x="145" y="-167" type="line"/>
    </contour>
  </outline>
</glyph>
<glyph name="paragraph" format="2">
  <advance width="642"/>
  <unicode hex="00B6"/>
  <outline>
    <contour>
      <point x="58" y="470" type="curve" smooth="yes"/>
      <point x="58" y="567"/>
      <point x="138" y="695"/>
      <point x="333" y="695" type="curve" smooth="yes"/>
      <point x="611" y="695" type="line"/>
      <point x="611" y="655" type="line"/>
      <point x="525" y="655" type="line"/>
      <point x="525" y="-166" type="line"/>
      <point x="485" y="-166" type="line"/>
      <point x="485" y="655" type="line"/>
      <point x="412" y="655" type="line"/>
      <point x="412" y="-166" type="line"/>
      <point x="372" y="-166" type="line"/>
      <point x="372" y="244" type="line"/>
      <point x="241" y="247"/>
      <point x="58" y="307"/>
    </contour>
  </outline>
</glyph>
<glyph name="periodcentered" format="2">
  <advance width="258"/>
  <unicode hex="00B7"/>
  <outline>
    <contour>
      <point x="97" y="218" type="line"/>
      <point x="97" y="281" type="line"/>
      <point x="160" y="281" type="line"/>
      <point x="160" y="218" type="line"/>
    </contour>
  </outline>
</glyph>
<glyph name="cedilla" format="2">
  <advance width="467"/>
  <unicode hex="00B8"/>
  <anchor x="224" y="-20" name="bottom_0"/>
  <outline>
    <contour>
      <point x="131" y="-163" type="line"/>
      <point x="208" y="-18" type="line"/>
      <point x="258" y="-18" type="line"/>
      <point x="189" y="-163" type="line"/>
    </contour>
  </outline>
</glyph>
<glyph name="uni00B9" format="2">
  <advance width="467"/>
  <unicode hex="00B9"/>
  <outline>
    <contour>
      <point x="76" y="641" type="curve"/>
      <point x="76" y="692" type="line"/>
      <point x="188" y="693"/>
      <point x="238" y="740"/>
      <point x="262" y="767" type="curve"/>
      <point x="278" y="767" type="line"/>
      <point x="278" y="398" type="line"/>
      <point x="393" y="398" type="line"/>
      <point x="393" y="347" type="line"/>
      <point x="86" y="347" type="line"/>
      <point x="86" y="398" type="line"/>
      <point x="213" y="398" type="line" name=".hr01"/>
      <point x="213" y="675" type="line"/>
      <point x="177" y="655"/>
      <point x="139" y="642"/>
    </contour>
  </outline>
</glyph>
<glyph name="ordmasculine" format="2">
  <advance width="467"/>
  <unicode hex="00BA"/>
  <outline>
    <contour>
      <point x="40" y="561" type="curve" smooth="yes"/>
      <point x="40" y="668"/>
      <point x="122" y="762"/>
      <point x="233" y="762" type="curve" smooth="yes"/>
      <point x="335" y="762"/>
      <point x="426" y="677"/>
      <point x="426" y="562" type="curve" smooth="yes"/>
      <point x="426" y="457"/>
      <point x="343" y="367"/>
      <point x="233" y="367" type="curve" smooth="yes"/>
      <point x="132" y="367"/>
      <point x="40" y="448"/>
    </contour>
    <contour>
      <point x="42" y="285" type="line"/>
      <point x="42" y="335" type="line"/>
      <point x="425" y="335" type="line"/>
      <point x="425" y="285" type="line"/>
    </contour>
    <contour>
      <point x="105" y="569" type="curve" smooth="yes"/>
      <point x="105" y="442"/>
      <point x="185" y="419"/>
      <point x="233" y="419" type="curve" smooth="yes"/>
      <point x="282" y="419"/>
      <point x="361" y="441"/>
      <point x="361" y="570" type="curve" smooth="yes"/>
      <point x="361" y="683"/>
      <point x="288" y="712"/>
      <point x="233" y="712" type="curve" smooth="yes"/>
      <point x="177" y="712"/>
      <point x="105" y="684"/>
    </contour>
  </outline>
</glyph>
<glyph name="guillemotright" format="2">
  <advance width="700"/>
  <unicode hex="00BB"/>
  <outline>
    <contour>
      <point x="105" y="0" type="line"/>
      <point x="348" y="236" type="line"/>
      <point x="105" y="472" type="line"/>
      <point x="161" y="472" type="line"/>
      <point x="408" y="236" type="line"/>
      <point x="161" y="0" type="line"/>
    </contour>
    <contour>
      <point x="280" y="0" type="line"/>
      <point x="523" y="236" type="line"/>
      <point x="280" y="472" type="line"/>
      <point x="336" y="472" type="line"/>
      <point x="583" y="236" type="line"/>
      <point x="336" y="0" type="line"/>
    </contour>
  </outline>
</glyph>
<glyph name="onequarter" format="2">
  <advance width="467"/>
  <unicode hex="00BC"/>
  <outline>
    <contour>
      <point x="24" y="272" type="line"/>
      <point x="24" y="312" type="line"/>
      <point x="442" y="312" type="line"/>
      <point x="442" y="272" type="line"/>
    </contour>
    <contour>
      <point x="49" y="-22" type="line"/>
      <point x="261" y="240" type="line"/>
      <point x="343" y="240" type="line"/>
      <point x="343" y="-23" type="line"/>
      <point x="417" y="-23" type="line"/>
      <point x="417" y="-76" type="line"/>
      <point x="343" y="-76" type="line"/>
      <point x="343" y="-167" type="line"/>
      <point x="280" y="-167" type="line"/>
      <point x="280" y="-76" type="line"/>
      <point x="49" y="-76" type="line"/>
    </contour>
    <contour>
      <point x="77" y="676" type="curve"/>
      <point x="77" y="727" type="line"/>
      <point x="249" y="730"/>
      <point x="232" y="767"/>
      <point x="279" y="767" type="curve" name=".hr01"/>
      <point x="279" y="402" type="line"/>
      <point x="394" y="402" type="line"/>
      <point x="394" y="352" type="line"/>
      <point x="87" y="352" type="line"/>
      <point x="87" y="402" type="line"/>
      <point x="214" y="402" type="line"/>
      <point x="214" y="693" type="line"/>
      <point x="174" y="681"/>
      <point x="140" y="676"/>
    </contour>
    <contour>
      <point x="120" y="-23" type="line"/>
      <point x="283" y="-23" type="line"/>
      <point x="283" y="184" type="line"/>
    </contour>
  </outline>
</glyph>
<glyph name="onehalf" format="2">
  <advance width="467"/>
  <unicode hex="00BD"/>
  <outline>
    <contour>
      <point x="24" y="272" type="line"/>
      <point x="24" y="312" type="line"/>
      <point x="442" y="312" type="line"/>
      <point x="442" y="272" type="line"/>
    </contour>
    <contour>
      <point x="44" y="172" type="line"/>
      <point x="95" y="227"/>
      <point x="142" y="249"/>
      <point x="219" y="249" type="curve" smooth="yes"/>
      <point x="339" y="249"/>
      <point x="414" y="197"/>
      <point x="414" y="120" type="curve" smooth="yes"/>
      <point x="414" y="26"/>
      <point x="304.888" y="7.17978"/>
      <point x="223" y="-44" type="curve" smooth="yes"/>
      <point x="111" y="-114" type="line"/>
      <point x="414" y="-114" type="line"/>
      <point x="414" y="-167" type="line"/>
      <point x="52" y="-167" type="line"/>
      <point x="52" y="-116" type="line"/>
      <point x="179" y="-35" type="line" smooth="yes"/>
      <point x="255.754" y="13.9534"/>
      <point x="347" y="35"/>
      <point x="347" y="119" type="curve" smooth="yes"/>
      <point x="347" y="179.999"/>
      <point x="280.689" y="198"/>
      <point x="226" y="198" type="curve" smooth="yes"/>
      <point x="142.736" y="198"/>
      <point x="93.1705" y="143"/>
      <point x="77" y="124" type="curve"/>
    </contour>
    <contour>
      <point x="77" y="676" type="curve"/>
      <point x="77" y="727" type="line"/>
      <point x="249" y="730"/>
      <point x="232" y="767"/>
      <point x="279" y="767" type="curve"/>
      <point x="279" y="402" type="line"/>
      <point x="394" y="402" type="line"/>
      <point x="394" y="352" type="line"/>
      <point x="87" y="352" type="line"/>
      <point x="87" y="402" type="line"/>
      <point x="214" y="402" type="line"/>
      <point x="214" y="693" type="line"/>
      <point x="174" y="681"/>
      <point x="140" y="676"/>
    </contour>
  </outline>
</glyph>
<glyph name="threequarters" format="2">
  <advance width="467"/>
  <unicode hex="00BE"/>
  <outline>
    <contour>
      <point x="24" y="272" type="line"/>
      <point x="24" y="312" type="line"/>
      <point x="442" y="312" type="line"/>
      <point x="442" y="272" type="line"/>
    </contour>
    <contour>
      <point x="44" y="370" type="curve"/>
      <point x="51" y="422" type="line"/>
      <point x="108" y="401"/>
      <point x="163" y="387"/>
      <point x="237" y="387" type="curve" smooth="yes"/>
      <point x="327" y="387"/>
      <point x="352" y="430" name=".hr01"/>
      <point x="352" y="460" type="curve" smooth="yes"/>
      <point x="352" y="480"/>
      <point x="341" y="534"/>
      <point x="224" y="534" type="curve" smooth="yes"/>
      <point x="175" y="534" type="line"/>
      <point x="175" y="585" type="line"/>
      <point x="221" y="587"/>
      <point x="327" y="594" name=".hr02"/>
      <point x="327" y="664" type="curve" smooth="yes"/>
      <point x="327" y="685"/>
      <point x="312" y="716"/>
      <point x="238" y="716" type="curve" smooth="yes"/>
      <point x="172" y="716"/>
      <point x="130" y="694"/>
      <point x="87" y="663" type="curve"/>
      <point x="58" y="710" type="line"/>
      <point x="108" y="744"/>
      <point x="166" y="767"/>
      <point x="237" y="767" type="curve" smooth="yes"/>
      <point x="328" y="767"/>
      <point x="393" y="721"/>
      <point x="393" y="663" type="curve" smooth="yes"/>
      <point x="393" y="594"/>
      <point x="320" y="564"/>
      <point x="312" y="559" type="curve"/>
      <point x="373.558" y="542.211"/>
      <point x="422" y="514.014" name=".hr03"/>
      <point x="422" y="460" type="curve" smooth="yes"/>
      <point x="422" y="386"/>
      <point x="335" y="335"/>
      <point x="235" y="335" type="curve" smooth="yes"/>
      <point x="158" y="335"/>
      <point x="97" y="351"/>
    </contour>
    <contour>
      <point x="49" y="-22" type="line"/>
      <point x="261" y="240" type="line"/>
      <point x="343" y="240" type="line"/>
      <point x="343" y="-23" type="line"/>
      <point x="417" y="-23" type="line"/>
      <point x="417" y="-76" type="line"/>
      <point x="343" y="-76" type="line"/>
      <point x="343" y="-167" type="line"/>
      <point x="280" y="-167" type="line"/>
      <point x="280" y="-76" type="line"/>
      <point x="49" y="-76" type="line"/>
    </contour>
    <contour>
      <point x="120" y="-23" type="line"/>
      <point x="283" y="-23" type="line"/>
      <point x="283" y="184" type="line"/>
    </contour>
  </outline>
</glyph>
<glyph name="questiondown" format="2">
  <advance width="496"/>
  <unicode hex="00BF"/>
  <outline>
    <contour>
      <point x="58" y="-25" type="curve" smooth="yes"/>
      <point x="58" y="54"/>
      <point x="100" y="81"/>
      <point x="121" y="102" type="curve"/>
      <point x="121" y="102" type="line"/>
      <point x="182" y="165"/>
      <point x="202" y="236"/>
      <point x="202" y="315" type="curve" smooth="yes"/>
      <point x="202" y="350" type="line"/>
      <point x="264" y="350" type="line"/>
      <point x="264" y="339"/>
      <point x="265" y="327"/>
      <point x="265" y="315" type="curve" smooth="yes"/>
      <point x="265" y="136"/>
      <point x="166" y="70"/>
      <point x="142" y="38" type="curve"/>
      <point x="142" y="38" type="line"/>
      <point x="127" y="18"/>
      <point x="123" y="-8"/>
      <point x="123" y="-27" type="curve" smooth="yes"/>
      <point x="123" y="-86"/>
      <point x="147" y="-112"/>
      <point x="187" y="-121" type="curve" smooth="yes"/>
      <point x="200" y="-124"/>
      <point x="215" y="-125"/>
      <point x="232" y="-125" type="curve" smooth="yes"/>
      <point x="303" y="-125"/>
      <point x="355" y="-106"/>
      <point x="418" y="-69" type="curve"/>
      <point x="437" y="-122" type="line"/>
      <point x="383" y="-151"/>
      <point x="315" y="-175"/>
      <point x="234" y="-175" type="curve" smooth="yes"/>
      <point x="86" y="-175"/>
      <point x="58" y="-83"/>
    </contour>
    <contour>
      <point x="194" y="450" type="line"/>
      <point x="194" y="528" type="line"/>
      <point x="272" y="528" type="line"/>
      <point x="272" y="450" type="line"/>
    </contour>
  </outline>
</glyph>
<glyph name="AE" format="2">
  <advance width="892"/>
  <unicode hex="00C6"/>
  <outline>
    <contour>
      <point x="29" y="0" type="line"/>
      <point x="325" y="695" type="line"/>
      <point x="833" y="695" type="line"/>
      <point x="833" y="641" type="line"/>
      <point x="497" y="641" type="line"/>
      <point x="497" y="388" type="line"/>
      <point x="804" y="388" type="line"/>
      <point x="804" y="335" type="line"/>
      <point x="497" y="335" type="line"/>
      <point x="497" y="56" type="line"/>
      <point x="760" y="56" type="line"/>
      <point x="848" y="56" type="line"/>
      <point x="848" y="0" type="line"/>
      <point x="428" y="0" type="line"/>
      <point x="428" y="225" type="line"/>
      <point x="190" y="225" type="line"/>
      <point x="95" y="0" type="line"/>
    </contour>
    <contour>
      <point x="213" y="278" type="curve"/>
      <point x="428" y="278" type="line"/>
      <point x="428" y="641" type="line"/>
      <point x="368" y="641" type="line"/>
      <point x="316" y="520"/>
      <point x="265" y="399"/>
    </contour>
  </outline>
</glyph>
<glyph name="multiply" format="2">
  <advance width="642"/>
  <unicode hex="00D7"/>
  <outline>
    <contour>
      <point x="130" y="93" type="curve"/>
      <point x="130" y="96"/>
      <point x="132" y="100"/>
      <point x="133" y="103" type="curve"/>
      <point x="186" y="156"/>
      <point x="241" y="211"/>
      <point x="292" y="265" type="curve"/>
      <point x="210" y="346" type="line" smooth="yes"/>
      <point x="157" y="398"/>
      <point x="139" y="417"/>
      <point x="133" y="426" type="curve"/>
      <point x="131" y="430"/>
      <point x="130" y="432"/>
      <point x="130" y="434" type="curve" smooth="yes"/>
      <point x="130" y="448"/>
      <point x="141" y="455" name=".hr01"/>
      <point x="149" y="455" type="curve" smooth="yes"/>
      <point x="163" y="455"/>
      <point x="158" y="452"/>
      <point x="321" y="292" type="curve"/>
      <point x="462" y="433"/>
      <point x="478" y="453"/>
      <point x="488" y="454" type="curve" name=".hr02"/>
      <point x="507" y="454"/>
      <point x="511" y="440"/>
      <point x="511" y="437" type="curve" smooth="yes"/>
      <point x="511" y="434" type="line" smooth="yes"/>
      <point x="511" y="422"/>
      <point x="402" y="324"/>
      <point x="349" y="264" type="curve"/>
      <point x="431" y="183" type="line" smooth="yes"/>
      <point x="505" y="109"/>
      <point x="511" y="103"/>
      <point x="511" y="94" type="curve" smooth="yes"/>
      <point x="511" y="78"/>
      <point x="497" y="74"/>
      <point x="493" y="74" type="curve" smooth="yes"/>
      <point x="491" y="74" type="line" smooth="yes"/>
      <point x="477" y="74"/>
      <point x="475" y="84"/>
      <point x="320" y="236" type="curve"/>
      <point x="244" y="160" type="line" smooth="yes"/>
      <point x="218" y="134"/>
      <point x="180" y="86"/>
      <point x="154" y="74" type="curve"/>
      <point x="140" y="74"/>
      <point x="131" y="79"/>
    </contour>
  </outline>
</glyph>
<glyph name="Oslash" format="2">
  <advance width="817"/>
  <unicode hex="00D8"/>
  <outline>
    <contour>
      <point x="58" y="346" type="curve" smooth="yes"/>
      <point x="58" y="556"/>
      <point x="223" y="711"/>
      <point x="408" y="711" type="curve" smooth="yes"/>
      <point x="484" y="711"/>
      <point x="544" y="686"/>
      <point x="590" y="658" type="curve"/>
      <point x="653" y="750" type="line"/>
      <point x="696" y="721" type="line"/>
      <point x="632" y="628" type="line"/>
      <point x="715" y="555"/>
      <point x="758" y="448"/>
      <point x="758" y="346" type="curve" smooth="yes"/>
      <point x="758" y="134"/>
      <point x="590" y="-17"/>
      <point x="408" y="-17" type="curve" smooth="yes"/>
      <point x="317" y="-17"/>
      <point x="253" y="19"/>
      <point x="226" y="36" type="curve"/>
      <point x="205" y="5"/>
      <point x="184" y="-25"/>
      <point x="163" y="-56" type="curve"/>
      <point x="120" y="-27" type="line"/>
      <point x="184" y="67" type="line"/>
      <point x="121" y="119"/>
      <point x="58" y="218"/>
    </contour>
    <contour>
      <point x="124" y="347" type="curve" smooth="yes"/>
      <point x="124" y="205"/>
      <point x="190" y="133"/>
      <point x="214" y="110" type="curve"/>
      <point x="330" y="279"/>
      <point x="445" y="448"/>
      <point x="561" y="617" type="curve"/>
      <point x="515" y="645"/>
      <point x="470" y="661"/>
      <point x="408" y="661" type="curve" smooth="yes"/>
      <point x="239" y="661"/>
      <point x="124" y="529"/>
    </contour>
    <contour>
      <point x="255" y="77" type="curve"/>
      <point x="301" y="50"/>
      <point x="347" y="34"/>
      <point x="408" y="34" type="curve" smooth="yes"/>
      <point x="577" y="34"/>
      <point x="692" y="165"/>
      <point x="692" y="346" type="curve" smooth="yes"/>
      <point x="692" y="489"/>
      <point x="626" y="559"/>
      <point x="602" y="584" type="curve"/>
      <point x="486" y="415"/>
      <point x="371" y="246"/>
    </contour>
  </outline>
</glyph>
<glyph name="Thorn" format="2">
  <advance width="600"/>
  <unicode hex="00DE"/>
  <outline>
    <contour>
      <point x="99" y="0" type="line"/>
      <point x="99" y="695" type="line"/>
      <point x="166" y="695" type="line"/>
      <point x="166" y="570" type="line"/>
      <point x="314" y="570" type="line"/>
      <point x="355" y="568"/>
      <point x="379" y="567"/>
      <point x="417" y="551" type="curve" smooth="yes"/>
      <point x="475" y="526"/>
      <point x="541" y="463"/>
      <point x="541" y="375" type="curve" smooth="yes"/>
      <point x="541" y="303"/>
      <point x="486" y="180"/>
      <point x="308" y="180" type="curve" smooth="yes"/>
      <point x="166" y="180" type="line"/>
      <point x="166" y="0" type="line"/>
    </contour>
    <contour>
      <point x="166" y="234" type="line"/>
      <point x="281" y="234" type="line" smooth="yes"/>
      <point x="427" y="234"/>
      <point x="475" y="319"/>
      <point x="475" y="375" type="curve" smooth="yes"/>
      <point x="475" y="432"/>
      <point x="418" y="516"/>
      <point x="272" y="516" type="curve" smooth="yes"/>
      <point x="167" y="516" type="line"/>
      <point x="167" y="503"/>
      <point x="166" y="491"/>
      <point x="166" y="478" type="curve" smooth="yes"/>
    </contour>
  </outline>
</glyph>
<glyph name="germandbls" format="2">
  <advance width="492"/>
  <unicode hex="00DF"/>
  <outline>
    <contour>
      <point x="80" y="0" type="line"/>
      <point x="80" y="562" type="line" smooth="yes"/>
      <point x="80" y="648"/>
      <point x="158" y="703"/>
      <point x="255" y="703" type="curve" smooth="yes"/>
      <point x="354" y="703"/>
      <point x="432" y="646"/>
      <point x="432" y="575" type="curve" smooth="yes"/>
      <point x="432" y="522"/>
      <point x="389" y="470"/>
      <point x="318" y="443" type="curve"/>
      <point x="404" y="394"/>
      <point x="461" y="295" name=".hr01"/>
      <point x="461" y="191" type="curve" smooth="yes"/>
      <point x="461" y="85"/>
      <point x="385" y="-8"/>
      <point x="271" y="-8" type="curve" smooth="yes"/>
      <point x="242" y="-8"/>
      <point x="211" y="-4"/>
      <point x="173" y="7" type="curve"/>
      <point x="190" y="55" type="line"/>
      <point x="206" y="50"/>
      <point x="239" y="42"/>
      <point x="272" y="42" type="curve" smooth="yes"/>
      <point x="346" y="42"/>
      <point x="397" y="99"/>
      <point x="397" y="191" type="curve" smooth="yes"/>
      <point x="397" y="305"/>
      <point x="329" y="418"/>
      <point x="201" y="422" type="curve"/>
      <point x="201" y="472" type="line"/>
      <point x="329" y="473"/>
      <point x="368" y="534" name=".hr02"/>
      <point x="368" y="574" type="curve" smooth="yes"/>
      <point x="368" y="589"/>
      <point x="363" y="603"/>
      <point x="354" y="615" type="curve" smooth="yes"/>
      <point x="336" y="638"/>
      <point x="302" y="652"/>
      <point x="256" y="652" type="curve" smooth="yes"/>
      <point x="164" y="652"/>
      <point x="143" y="606"/>
      <point x="143" y="560" type="curve" smooth="yes"/>
      <point x="143" y="0" type="line"/>
    </contour>
  </outline>
</glyph>
<glyph name="ae" format="2">
  <advance width="758"/>
  <unicode hex="00E6"/>
  <outline>
    <contour>
      <point x="56" y="116" type="curve" smooth="yes"/>
      <point x="56" y="181"/>
      <point x="116" y="264"/>
      <point x="346" y="270" type="curve"/>
      <point x="346" y="336" type="line"/>
      <point x="342" y="374"/>
      <point x="324" y="406"/>
      <point x="295" y="424" type="curve" smooth="yes"/>
      <point x="281" y="433"/>
      <point x="264" y="438"/>
      <point x="245" y="438" type="curve" smooth="yes"/>
      <point x="163" y="438"/>
      <point x="117" y="405"/>
      <point x="87" y="386" type="curve"/>
      <point x="82" y="442" type="line"/>
      <point x="137" y="471"/>
      <point x="181" y="485"/>
      <point x="247" y="485" type="curve" smooth="yes"/>
      <point x="357" y="485"/>
      <point x="392" y="396"/>
      <point x="395" y="395" type="curve"/>
      <point x="432" y="449"/>
      <point x="491" y="484"/>
      <point x="555" y="484" type="curve" smooth="yes"/>
      <point x="623" y="484"/>
      <point x="726" y="447"/>
      <point x="726" y="250" type="curve" name=".hr01"/>
      <point x="411" y="250" type="line"/>
      <point x="411" y="158"/>
      <point x="446" y="101"/>
      <point x="487" y="71" type="curve" smooth="yes"/>
      <point x="515" y="51"/>
      <point x="545" y="42"/>
      <point x="571" y="42" type="curve"/>
      <point x="571" y="42" type="line"/>
      <point x="655" y="42"/>
      <point x="704" y="96"/>
      <point x="718" y="111" type="curve"/>
      <point x="722" y="56" type="line"/>
      <point x="684" y="19"/>
      <point x="635" y="-8"/>
      <point x="570" y="-8" type="curve" smooth="yes"/>
      <point x="552" y="-8"/>
      <point x="536" y="-6"/>
      <point x="519" y="-2" type="curve" smooth="yes"/>
      <point x="469" y="11"/>
      <point x="425" y="41"/>
      <point x="395" y="85" type="curve"/>
      <point x="355" y="18"/>
      <point x="263" y="-8"/>
      <point x="165" y="-8" type="curve" smooth="yes"/>
      <point x="86" y="-8"/>
      <point x="56" y="67"/>
    </contour>
    <contour>
      <point x="118" y="118" type="curve" smooth="yes"/>
      <point x="118" y="73"/>
      <point x="163" y="42"/>
      <point x="220" y="42" type="curve" smooth="yes"/>
      <point x="257" y="42"/>
      <point x="319" y="56"/>
      <point x="342" y="102" type="curve" smooth="yes"/>
      <point x="348" y="114"/>
      <point x="351" y="127"/>
      <point x="351" y="143" type="curve"/>
      <point x="351" y="143" type="line"/>
      <point x="351" y="161"/>
      <point x="348" y="204"/>
      <point x="346" y="230" type="curve"/>
      <point x="223" y="229" name=".hr02"/>
      <point x="118" y="191"/>
    </contour>
    <contour>
      <point x="416" y="290" type="curve"/>
      <point x="671" y="290" type="line"/>
      <point x="656" y="424" name=".hr03"/>
      <point x="576" y="434"/>
      <point x="555" y="434" type="curve" smooth="yes"/>
      <point x="499" y="434"/>
      <point x="434" y="385"/>
    </contour>
  </outline>
</glyph>
<glyph name="eth" format="2">
  <advance width="525"/>
  <unicode hex="00F0"/>
  <outline>
    <contour>
      <point x="40" y="236" type="curve" smooth="yes"/>
      <point x="40" y="368"/>
      <point x="136" y="484"/>
      <point x="262" y="484" type="curve" smooth="yes"/>
      <point x="305" y="484"/>
      <point x="337" y="472"/>
      <point x="370" y="453" type="curve"/>
      <point x="340" y="505"/>
      <point x="301" y="548"/>
      <point x="254" y="584" type="curve"/>
      <point x="175" y="540" type="line"/>
      <point x="147" y="590" type="line"/>
      <point x="164" y="599"/>
      <point x="180" y="609"/>
      <point x="197" y="618" type="curve"/>
      <point x="149" y="641"/>
      <point x="118" y="652"/>
      <point x="72" y="657" type="curve"/>
      <point x="102" y="683"/>
      <point x="109" y="693"/>
      <point x="123" y="693" type="curve" smooth="yes"/>
      <point x="163" y="693"/>
      <point x="251" y="649"/>
      <point x="251" y="649" type="curve"/>
      <point x="277" y="664"/>
      <point x="303" y="680"/>
      <point x="329" y="695" type="curve" name=".hr01"/>
      <point x="358" y="645" type="line"/>
      <point x="340" y="635"/>
      <point x="322" y="624"/>
      <point x="304" y="614" type="curve"/>
      <point x="307" y="612"/>
      <point x="312" y="608"/>
      <point x="317" y="604" type="curve" smooth="yes"/>
      <point x="366" y="565"/>
      <point x="484" y="454"/>
      <point x="484" y="266" type="curve" smooth="yes"/>
      <point x="484" y="258" type="line" smooth="yes"/>
      <point x="484" y="235"/>
      <point x="484" y="213"/>
      <point x="480" y="191" type="curve" smooth="yes"/>
      <point x="463" y="91"/>
      <point x="381" y="-8"/>
      <point x="262" y="-8" type="curve" smooth="yes"/>
      <point x="147" y="-8"/>
      <point x="40" y="92"/>
    </contour>
    <contour>
      <point x="105" y="244" type="curve" smooth="yes"/>
      <point x="105" y="85"/>
      <point x="199" y="44"/>
      <point x="262" y="44" type="curve" smooth="yes"/>
      <point x="356" y="44"/>
      <point x="419" y="120"/>
      <point x="419" y="240" type="curve" smooth="yes"/>
      <point x="419" y="358"/>
      <point x="356" y="434"/>
      <point x="261" y="434" type="curve" smooth="yes"/>
      <point x="199" y="434"/>
      <point x="105" y="396"/>
    </contour>
  </outline>
</glyph>
<glyph name="divide" format="2">
  <advance width="642"/>
  <unicode hex="00F7"/>
  <outline>
    <contour>
      <point x="60" y="284" type="line"/>
      <point x="582" y="284" type="line"/>
      <point x="582" y="244" type="line"/>
      <point x="60" y="244" type="line"/>
    </contour>
    <contour>
      <point x="285.4" y="84.4004" type="line"/>
      <point x="355.6" y="84.4004" type="line"/>
      <point x="355.6" y="13.5996" type="line"/>
      <point x="285.4" y="13.5996" type="line"/>
    </contour>
    <contour>
      <point x="285.4" y="514.4" type="line"/>
      <point x="355.6" y="514.4" type="line"/>
      <point x="355.6" y="443.6" type="line"/>
      <point x="285.4" y="443.6" type="line"/>
    </contour>
  </outline>
</glyph>
<glyph name="oslash" format="2">
  <advance width="525"/>
  <unicode hex="00F8"/>
  <outline>
    <contour>
      <point x="42" y="236" type="curve" smooth="yes"/>
      <point x="42" y="368"/>
      <point x="136" y="484"/>
      <point x="262" y="484" type="curve" smooth="yes"/>
      <point x="304" y="484"/>
      <point x="337" y="471"/>
      <point x="363" y="456" type="curve"/>
      <point x="429" y="568" type="line"/>
      <point x="430" y="568" type="line"/>
      <point x="473" y="543" type="line"/>
      <point x="404" y="426" type="line"/>
      <point x="457" y="373"/>
      <point x="482" y="302"/>
      <point x="482" y="236" type="curve" smooth="yes"/>
      <point x="482" y="101"/>
      <point x="385" y="-8"/>
      <point x="262" y="-8" type="curve" smooth="yes"/>
      <point x="202" y="-8"/>
      <point x="167" y="18"/>
      <point x="162" y="18" type="curve"/>
      <point x="95" y="-96" type="line"/>
      <point x="51" y="-70" type="line"/>
      <point x="121" y="49" type="line"/>
      <point x="76" y="89"/>
      <point x="42" y="155"/>
    </contour>
    <contour>
      <point x="103" y="235" type="curve" smooth="yes"/>
      <point x="103" y="139"/>
      <point x="141" y="103"/>
      <point x="148" y="93" type="curve"/>
      <point x="211" y="200"/>
      <point x="275" y="307"/>
      <point x="338" y="414" type="curve"/>
      <point x="304" y="432"/>
      <point x="277" y="434"/>
      <point x="262" y="434" type="curve" smooth="yes"/>
      <point x="197" y="434"/>
      <point x="103" y="392"/>
    </contour>
    <contour>
      <point x="187" y="60" type="line"/>
      <point x="208" y="52"/>
      <point x="226" y="42"/>
      <point x="262" y="42" type="curve" smooth="yes"/>
      <point x="327" y="42"/>
      <point x="421" y="83"/>
      <point x="421" y="234" type="curve" smooth="yes"/>
      <point x="421" y="331"/>
      <point x="389" y="362"/>
      <point x="377" y="381" type="curve"/>
    </contour>
  </outline>
</glyph>
<glyph name="thorn" format="2">
  <advance width="517"/>
  <unicode hex="00FE"/>
  <outline>
    <contour>
      <point x="80" y="-167" type="line"/>
      <point x="80" y="695" type="line"/>
      <point x="143" y="695" type="line"/>
      <point x="143" y="404" type="line"/>
      <point x="203" y="476"/>
      <point x="270" y="480"/>
      <point x="295" y="480" type="curve" smooth="yes"/>
      <point x="393" y="480"/>
      <point x="469" y="372"/>
      <point x="469" y="238" type="curve" smooth="yes"/>
      <point x="469" y="96"/>
      <point x="378" y="-8"/>
      <point x="274" y="-8" type="curve" smooth="yes"/>
      <point x="187" y="-8"/>
      <point x="149" y="63"/>
      <point x="145" y="66" type="curve"/>
      <point x="145" y="-167" type="line"/>
    </contour>
    <contour>
      <point x="144" y="349" type="curve" smooth="yes"/>
      <point x="144" y="347"/>
      <point x="145" y="344"/>
      <point x="145" y="342" type="curve" smooth="yes"/>
      <point x="145" y="130" type="line" smooth="yes"/>
      <point x="145" y="92"/>
      <point x="185" y="42"/>
      <point x="243" y="42" type="curve" smooth="yes"/>
      <point x="322" y="42"/>
      <point x="405" y="117"/>
      <point x="405" y="237" type="curve" smooth="yes"/>
      <point x="405" y="255"/>
      <point x="404" y="272"/>
      <point x="400" y="288" type="curve"/>
      <point x="382" y="369"/>
      <point x="322" y="429"/>
      <point x="253" y="429" type="curve" smooth="yes"/>
      <point x="196" y="429"/>
      <point x="144" y="382"/>
    </contour>
  </outline>
</glyph>
<glyph name="dcaron" format="2">
  <advance width="642"/>
  <unicode hex="010F"/>
  <outline>
    <contour>
      <point x="46" y="236" type="curve" smooth="yes"/>
      <point x="46" y="369"/>
      <point x="129" y="480"/>
      <point x="235" y="480" type="curve"/>
      <point x="235" y="480" type="line"/>
      <point x="235" y="480" type="line"/>
      <point x="295" y="480"/>
      <point x="338" y="451"/>
      <point x="372" y="410" type="curve"/>
      <point x="372" y="695" type="line"/>
      <point x="435" y="695" type="line"/>
      <point x="435" y="0" type="line"/>
      <point x="371" y="0" type="line"/>
      <point x="371" y="42" type="line" smooth="yes"/>
      <point x="371" y="52"/>
      <point x="370" y="63"/>
      <point x="370" y="73" type="curve"/>
      <point x="336" y="23"/>
      <point x="285" y="-8" name=".hr01"/>
      <point x="228" y="-8" type="curve" smooth="yes"/>
      <point x="135" y="-8"/>
      <point x="46" y="89"/>
    </contour>
    <contour>
      <point x="111" y="236" type="curve" smooth="yes"/>
      <point x="111" y="73"/>
      <point x="207" y="42"/>
      <point x="260" y="42" type="curve" smooth="yes" name=".hr02"/>
      <point x="331" y="42"/>
      <point x="365" y="105"/>
      <point x="369" y="121" type="curve"/>
      <point x="371" y="127"/>
      <point x="371" y="134"/>
      <point x="371" y="141" type="curve" smooth="yes"/>
      <point x="371" y="352" type="line" smooth="yes"/>
      <point x="371" y="384"/>
      <point x="331" y="430"/>
      <point x="271" y="430" type="curve" smooth="yes"/>
      <point x="205" y="430"/>
      <point x="111" y="391"/>
    </contour>
    <contour>
      <point x="493" y="581" type="line"/>
      <point x="517" y="655" type="line"/>
      <point x="493" y="655" type="line"/>
      <point x="493" y="734" type="line"/>
      <point x="571" y="734" type="line"/>
      <point x="571" y="669" type="line"/>
      <point x="569" y="643"/>
      <point x="562" y="641"/>
      <point x="532" y="581" type="curve"/>
    </contour>
  </outline>
</glyph>
<glyph name="Dcroat" format="2">
  <advance width="746"/>
  <unicode hex="0110"/>
  <outline>
    <contour>
      <point x="-12" y="315" type="line"/>
      <point x="-12" y="366" type="line"/>
      <point x="99" y="366" type="line"/>
      <point x="99" y="695" type="line"/>
      <point x="348" y="695" type="line"/>
      <point x="375" y="695" type="line" smooth="yes"/>
      <point x="544" y="695"/>
      <point x="688" y="533"/>
      <point x="688" y="342" type="curve" smooth="yes"/>
      <point x="688" y="139"/>
      <point x="536" y="0"/>
      <point x="349" y="0" type="curve" smooth="yes"/>
      <point x="99" y="0" type="line"/>
      <point x="99" y="315" type="line"/>
    </contour>
    <contour>
      <point x="168" y="53" type="line"/>
      <point x="336" y="53" type="line" smooth="yes"/>
      <point x="562" y="53"/>
      <point x="619" y="223"/>
      <point x="619" y="342" type="curve"/>
      <point x="619" y="342" type="line"/>
      <point x="619" y="342" type="line"/>
      <point x="619" y="463"/>
      <point x="564" y="641"/>
      <point x="336" y="641" type="curve" smooth="yes"/>
      <point x="168" y="641" type="line"/>
      <point x="168" y="366" type="line"/>
      <point x="367" y="366" type="line"/>
      <point x="367" y="315" type="line"/>
      <point x="168" y="315" type="line"/>
    </contour>
  </outline>
</glyph>
<glyph name="hbar" format="2">
  <advance width="579"/>
  <unicode hex="0127"/>
  <outline>
    <contour>
      <point x="26" y="533" type="line"/>
      <point x="26" y="584" type="line"/>
      <point x="142" y="584" type="line"/>
      <point x="142" y="695" type="line"/>
      <point x="206" y="695" type="line"/>
      <point x="206" y="584" type="line"/>
      <point x="353" y="584" type="line"/>
      <point x="353" y="533" type="line"/>
      <point x="206" y="533" type="line"/>
      <point x="206" y="378" type="line"/>
      <point x="221" y="413"/>
      <point x="266" y="480"/>
      <point x="355" y="480" type="curve" smooth="yes"/>
      <point x="495" y="480"/>
      <point x="498" y="374"/>
      <point x="498" y="315" type="curve"/>
      <point x="498" y="315" type="line"/>
      <point x="498" y="0" type="line"/>
      <point x="433" y="0" type="line"/>
      <point x="433" y="311" type="line" smooth="yes"/>
      <point x="433" y="383"/>
      <point x="410" y="430"/>
      <point x="321" y="430" type="curve" smooth="yes"/>
      <point x="231" y="430"/>
      <point x="212" y="334"/>
      <point x="208" y="300" type="curve"/>
      <point x="207" y="288"/>
      <point x="207" y="275"/>
      <point x="207" y="262" type="curve" smooth="yes"/>
      <point x="207" y="0" type="line"/>
      <point x="142" y="0" type="line"/>
      <point x="142" y="533" type="line"/>
    </contour>
  </outline>
</glyph>
<glyph name="dotlessi" format="2">
  <advance width="225"/>
  <unicode hex="0131"/>
  <anchor x="112" y="550" name="top"/>
  <anchor x="109" y="10" name="bottom_0"/>
  <anchor x="113" y="-60" name="bottom_60"/>
  <outline>
    <contour>
      <point x="80.5" y="0" type="line"/>
      <point x="80.5" y="472" type="line"/>
      <point x="144.5" y="472" type="line"/>
      <point x="144.5" y="0" type="line"/>
    </contour>
  </outline>
  <guideline angle="90" x="113" y="0"/>
</glyph>
<glyph name="kgreenlandic" format="2">
  <advance width="487"/>
  <unicode hex="0138"/>
  <outline>
    <contour>
      <point x="80" y="0" type="line"/>
      <point x="80" y="432" type="line"/>
      <point x="145" y="472" type="line"/>
      <point x="145" y="245" type="line"/>
      <point x="370" y="472" type="line"/>
      <point x="449" y="472" type="line"/>
      <point x="272" y="294" type="line"/>
      <point x="472" y="0" type="line"/>
      <point x="403" y="0" type="line"/>
      <point x="231" y="252" type="line"/>
      <point x="144" y="165" type="line"/>
      <point x="144" y="0" type="line"/>
    </contour>
  </outline>
</glyph>
<glyph name="Lslash" format="2">
  <advance width="654"/>
  <unicode hex="0141"/>
  <outline>
    <contour>
      <point x="80" y="279" type="line"/>
      <point x="185" y="366" type="line"/>
      <point x="185" y="695" type="line"/>
      <point x="255" y="695" type="line"/>
      <point x="255" y="425" type="line"/>
      <point x="396" y="544" type="line"/>
      <point x="430" y="503" type="line"/>
      <point x="255" y="356" type="line"/>
      <point x="255" y="53" type="line"/>
      <point x="609" y="53" type="line"/>
      <point x="609" y="0" type="line"/>
      <point x="185" y="0" type="line"/>
      <point x="185" y="297" type="line"/>
      <point x="114" y="238" type="line"/>
    </contour>
  </outline>
</glyph>
<glyph name="Eng" format="2">
  <advance width="775"/>
  <unicode hex="014A"/>
  <outline>
    <contour>
      <point x="98" y="0" type="line"/>
      <point x="98" y="695" type="line"/>
      <point x="168" y="695" type="line"/>
      <point x="168" y="639" type="line"/>
      <point x="221" y="695"/>
      <point x="297" y="744" name=".hr01"/>
      <point x="408" y="744" type="curve" smooth="yes"/>
      <point x="576" y="744"/>
      <point x="716" y="627"/>
      <point x="716" y="451" type="curve" smooth="yes"/>
      <point x="716" y="155" type="line" smooth="yes"/>
      <point x="716" y="18"/>
      <point x="633" y="-17"/>
      <point x="561" y="-17" type="curve" smooth="yes"/>
      <point x="500" y="-17"/>
      <point x="450" y="3"/>
      <point x="410" y="25" type="curve"/>
      <point x="421" y="88" type="line"/>
      <point x="431" y="78"/>
      <point x="468" y="35"/>
      <point x="535" y="35" type="curve" smooth="yes"/>
      <point x="637" y="35"/>
      <point x="647" y="121"/>
      <point x="647" y="153" type="curve" smooth="yes"/>
      <point x="647" y="160"/>
      <point x="646" y="165"/>
      <point x="646" y="165" type="curve"/>
      <point x="646" y="448" type="line" smooth="yes"/>
      <point x="646" y="588"/>
      <point x="537" y="679"/>
      <point x="406" y="679" type="curve" smooth="yes"/>
      <point x="273" y="679"/>
      <point x="168" y="581"/>
      <point x="168" y="479" type="curve" smooth="yes"/>
      <point x="168" y="0" type="line" name=".hr02"/>
    </contour>
  </outline>
</glyph>
<glyph name="eng" format="2">
  <advance width="517"/>
  <unicode hex="014B"/>
  <outline>
    <contour>
      <point x="80" y="0" type="line"/>
      <point x="80" y="472" type="line"/>
      <point x="142" y="472" type="line"/>
      <point x="142" y="375" type="line"/>
      <point x="165" y="426"/>
      <point x="212" y="480" name=".hr01"/>
      <point x="292" y="480" type="curve" smooth="yes"/>
      <point x="433" y="480"/>
      <point x="435" y="372"/>
      <point x="435" y="315" type="curve"/>
      <point x="435" y="315" type="line"/>
      <point x="435" y="262" type="line"/>
      <point x="435" y="0" type="line" smooth="yes"/>
      <point x="435" y="-94"/>
      <point x="380" y="-175"/>
      <point x="306" y="-175" type="curve" smooth="yes"/>
      <point x="253" y="-175"/>
      <point x="208" y="-157"/>
      <point x="185" y="-146" type="curve"/>
      <point x="208" y="-95" type="line"/>
      <point x="232" y="-109"/>
      <point x="252" y="-122"/>
      <point x="287" y="-122" type="curve" smooth="yes"/>
      <point x="325" y="-122"/>
      <point x="372" y="-94"/>
      <point x="372" y="-20" type="curve" smooth="yes"/>
      <point x="372" y="-7"/>
      <point x="371" y="40"/>
      <point x="371" y="47" type="curve" smooth="yes"/>
      <point x="371" y="310" type="line"/>
      <point x="371" y="310"/>
      <point x="371" y="372"/>
      <point x="348" y="398" type="curve" smooth="yes"/>
      <point x="331" y="418"/>
      <point x="296" y="430" name=".hr02"/>
      <point x="262" y="430" type="curve" smooth="yes"/>
      <point x="167" y="430"/>
      <point x="145" y="339"/>
      <point x="145" y="257" type="curve" smooth="yes"/>
      <point x="145" y="0" type="line"/>
    </contour>
  </outline>
</glyph>
<glyph name="OE" format="2">
  <advance width="1008"/>
  <unicode hex="0152"/>
  <outline>
    <contour>
      <point x="16" y="346" type="curve" smooth="yes"/>
      <point x="16" y="548"/>
      <point x="156.671" y="711"/>
      <point x="323" y="711" type="curve" smooth="yes"/>
      <point x="396.333" y="711"/>
      <point x="451" y="688"/>
      <point x="483" y="667" type="curve"/>
      <point x="483" y="695" type="line" name=".hr01"/>
      <point x="949" y="695" type="line"/>
      <point x="949" y="641" type="line"/>
      <point x="552" y="641" type="line"/>
      <point x="552" y="388" type="line"/>
      <point x="920" y="388" type="line"/>
      <point x="920" y="335" type="line"/>
      <point x="552" y="335" type="line"/>
      <point x="552" y="56" type="line"/>
      <point x="964" y="56" type="line"/>
      <point x="964" y="0" type="line"/>
      <point x="483" y="0" type="line"/>
      <point x="483" y="26" type="line"/>
      <point x="444.252" y="4"/>
      <point x="402.876" y="-17" name=".hr02"/>
      <point x="324" y="-17" type="curve" smooth="yes"/>
      <point x="145.553" y="-17"/>
      <point x="16" y="152.185"/>
    </contour>
    <contour>
      <point x="85" y="360" type="curve" smooth="yes"/>
      <point x="85" y="193"/>
      <point x="182.028" y="34"/>
      <point x="328" y="34" type="curve" smooth="yes"/>
      <point x="416" y="34"/>
      <point x="452" y="56"/>
      <point x="483" y="76" type="curve" name=".hr03"/>
      <point x="483" y="613" type="line"/>
      <point x="452" y="633"/>
      <point x="403" y="661"/>
      <point x="327" y="661" type="curve" smooth="yes"/>
      <point x="186.262" y="661"/>
      <point x="85" y="518"/>
    </contour>
  </outline>
</glyph>
<glyph name="oe" format="2">
  <advance width="817"/>
  <unicode hex="0153"/>
  <outline>
    <contour>
      <point x="40" y="238" type="curve" smooth="yes"/>
      <point x="40" y="369"/>
      <point x="132" y="484"/>
      <point x="254" y="484" type="curve" smooth="yes"/>
      <point x="346" y="484"/>
      <point x="408" y="421"/>
      <point x="436" y="370" type="curve"/>
      <point x="463" y="419"/>
      <point x="524" y="484"/>
      <point x="613" y="484" type="curve" smooth="yes"/>
      <point x="681" y="484"/>
      <point x="785" y="446"/>
      <point x="785" y="250" type="curve"/>
      <point x="469" y="250" type="line"/>
      <point x="469" y="96"/>
      <point x="565" y="42"/>
      <point x="629" y="42" type="curve"/>
      <point x="629" y="42" type="line"/>
      <point x="629" y="42" type="line"/>
      <point x="707" y="42"/>
      <point x="753" y="86"/>
      <point x="776" y="111" type="curve"/>
      <point x="781" y="56" type="line"/>
      <point x="752" y="30"/>
      <point x="707" y="-8"/>
      <point x="628" y="-8" type="curve" smooth="yes"/>
      <point x="584" y="-8"/>
      <point x="500" y="6"/>
      <point x="437" y="109" type="curve"/>
      <point x="382" y="9"/>
      <point x="297" y="-8"/>
      <point x="254" y="-8" type="curve" smooth="yes"/>
      <point x="141" y="-8"/>
      <point x="40" y="97"/>
    </contour>
    <contour>
      <point x="102" y="244" type="curve" smooth="yes"/>
      <point x="102" y="84"/>
      <point x="193" y="42"/>
      <point x="254" y="42" type="curve" smooth="yes"/>
      <point x="314" y="42"/>
      <point x="405" y="83"/>
      <point x="405" y="244" type="curve" smooth="yes"/>
      <point x="405" y="396"/>
      <point x="314" y="434"/>
      <point x="254" y="434" type="curve" smooth="yes"/>
      <point x="194" y="434"/>
      <point x="102" y="396"/>
    </contour>
    <contour>
      <point x="474" y="290" type="curve"/>
      <point x="730" y="290" type="line"/>
      <point x="728" y="301"/>
      <point x="727" y="311"/>
      <point x="725" y="322" type="curve" smooth="yes"/>
      <point x="704" y="426"/>
      <point x="628" y="434"/>
      <point x="613" y="434" type="curve" smooth="yes"/>
      <point x="554" y="434"/>
      <point x="491" y="380"/>
    </contour>
  </outline>
</glyph>
<glyph name="longs" format="2">
  <advance width="321"/>
  <unicode hex="017F"/>
  <outline>
    <contour>
      <point x="113" y="0" type="line"/>
      <point x="113" y="536" type="line"/>
      <point x="114" y="567"/>
      <point x="110" y="618"/>
      <point x="167" y="665" type="curve" smooth="yes"/>
      <point x="195" y="688"/>
      <point x="231" y="703"/>
      <point x="279" y="703" type="curve" smooth="yes"/>
      <point x="315" y="703"/>
      <point x="345" y="698"/>
      <point x="363" y="695" type="curve"/>
      <point x="363" y="638" type="line"/>
      <point x="334" y="647"/>
      <point x="312" y="652"/>
      <point x="278" y="652" type="curve" smooth="yes"/>
      <point x="237" y="652"/>
      <point x="177" y="638"/>
      <point x="177" y="580" type="curve" smooth="yes"/>
      <point x="177" y="0" type="line"/>
    </contour>
  </outline>
</glyph>
<glyph name="uni0180" format="2">
  <advance width="517"/>
  <unicode hex="0180"/>
  <outline>
    <contour>
      <point x="9" y="533" type="line"/>
      <point x="9" y="584" type="line"/>
      <point x="80" y="584" type="line"/>
      <point x="80" y="695" type="line"/>
      <point x="144" y="695" type="line"/>
      <point x="144" y="584" type="line"/>
      <point x="291" y="584" type="line"/>
      <point x="291" y="533" type="line"/>
      <point x="144" y="533" type="line"/>
      <point x="144" y="405" type="line"/>
      <point x="203" y="476"/>
      <point x="268" y="480"/>
      <point x="294" y="480" type="curve" smooth="yes"/>
      <point x="392" y="480"/>
      <point x="469" y="372"/>
      <point x="469" y="238" type="curve" smooth="yes"/>
      <point x="469" y="97"/>
      <point x="380" y="-8"/>
      <point x="274" y="-8" type="curve" smooth="yes"/>
      <point x="197" y="-8"/>
      <point x="157" y="50"/>
      <point x="145" y="66" type="curve"/>
      <point x="145" y="0" type="line" name=".hr01"/>
      <point x="80" y="0" type="line"/>
      <point x="80" y="533" type="line"/>
    </contour>
    <contour>
      <point x="145" y="131" type="line" smooth="yes"/>
      <point x="145" y="90"/>
      <point x="186" y="42" name=".hr02"/>
      <point x="244" y="42" type="curve" smooth="yes"/>
      <point x="308" y="42"/>
      <point x="405" y="80"/>
      <point x="405" y="236" type="curve" smooth="yes"/>
      <point x="405" y="402"/>
      <point x="307" y="430"/>
      <point x="255" y="430" type="curve" smooth="yes"/>
      <point x="190" y="430"/>
      <point x="152" y="378"/>
      <point x="146" y="362" type="curve"/>
      <point x="144" y="356"/>
      <point x="145" y="349"/>
      <point x="145" y="343" type="curve" smooth="yes"/>
    </contour>
  </outline>
</glyph>
<glyph name="uni0182" format="2">
  <advance width="569"/>
  <unicode hex="0182"/>
  <outline>
    <contour>
      <point x="80" y="0" type="line"/>
      <point x="80" y="695" type="line"/>
      <point x="451" y="695" type="line"/>
      <point x="451" y="641" type="line"/>
      <point x="147" y="641" type="line"/>
      <point x="147" y="388" type="line"/>
      <point x="312" y="388" type="line" smooth="yes"/>
      <point x="481.898" y="388"/>
      <point x="509" y="271"/>
      <point x="509" y="194" type="curve" smooth="yes"/>
      <point x="509" y="116"/>
      <point x="471.51" y="0"/>
      <point x="312" y="0" type="curve" smooth="yes"/>
    </contour>
    <contour>
      <point x="147" y="53" type="line"/>
      <point x="277" y="53" type="line" smooth="yes"/>
      <point x="400.312" y="53"/>
      <point x="443" y="108"/>
      <point x="443" y="194" type="curve"/>
      <point x="437.671" y="277.333"/>
      <point x="402.844" y="335"/>
      <point x="277" y="335" type="curve" smooth="yes"/>
      <point x="147" y="335" type="line"/>
    </contour>
  </outline>
</glyph>
<glyph name="uni0186" format="2">
  <advance width="671"/>
  <unicode hex="0186"/>
  <outline>
    <contour>
      <point x="617" y="348" type="curve" smooth="yes"/>
      <point x="617" y="159"/>
      <point x="484" y="-16"/>
      <point x="285" y="-16" type="curve" smooth="yes"/>
      <point x="198" y="-16"/>
      <point x="139" y="2"/>
      <point x="92" y="18" type="curve"/>
      <point x="105" y="87" type="line"/>
      <point x="161" y="57"/>
      <point x="203" y="37"/>
      <point x="286" y="37" type="curve" smooth="yes"/>
      <point x="430" y="37"/>
      <point x="547" y="171"/>
      <point x="547" y="348" type="curve" smooth="yes"/>
      <point x="547" y="510"/>
      <point x="442" y="659"/>
      <point x="285" y="659" type="curve" smooth="yes"/>
      <point x="178" y="659"/>
      <point x="140" y="631"/>
      <point x="86" y="598" type="curve"/>
      <point x="81" y="656" type="line"/>
      <point x="139" y="689"/>
      <point x="180" y="712"/>
      <point x="285" y="712" type="curve" smooth="yes"/>
      <point x="484" y="712"/>
      <point x="617" y="537"/>
    </contour>
  </outline>
</glyph>
<glyph name="uni0188" format="2">
  <advance width="525"/>
  <unicode hex="0188"/>
  <outline>
    <contour>
      <point x="46" y="237" type="curve" smooth="yes"/>
      <point x="46" y="358"/>
      <point x="127" y="485"/>
      <point x="269" y="485" type="curve" smooth="yes"/>
      <point x="309" y="485"/>
      <point x="339" y="482"/>
      <point x="381" y="466" type="curve"/>
      <point x="381" y="524" type="line" smooth="yes"/>
      <point x="381" y="526"/>
      <point x="380" y="528"/>
      <point x="380" y="531" type="curve" smooth="yes"/>
      <point x="380" y="610"/>
      <point x="426" y="667"/>
      <point x="504" y="667" type="curve" smooth="yes"/>
      <point x="548" y="667"/>
      <point x="572" y="651"/>
      <point x="597" y="630" type="curve"/>
      <point x="579" y="577" type="line"/>
      <point x="568" y="589"/>
      <point x="549" y="616"/>
      <point x="503" y="616" type="curve" smooth="yes"/>
      <point x="494" y="616"/>
      <point x="483" y="614"/>
      <point x="472" y="610" type="curve"/>
      <point x="451" y="601"/>
      <point x="431" y="580"/>
      <point x="431" y="531" type="curve" smooth="yes"/>
      <point x="431" y="441" type="line"/>
      <point x="427" y="423"/>
      <point x="423" y="405"/>
      <point x="421" y="387" type="curve"/>
      <point x="388" y="406" type="line" smooth="yes"/>
      <point x="356" y="424"/>
      <point x="324" y="432"/>
      <point x="267" y="433" type="curve" smooth="yes"/>
      <point x="172" y="433"/>
      <point x="111" y="357"/>
      <point x="111" y="238" type="curve" smooth="yes"/>
      <point x="111" y="122"/>
      <point x="172" y="44"/>
      <point x="265" y="44" type="curve" smooth="yes"/>
      <point x="355" y="44"/>
      <point x="403" y="87"/>
      <point x="432" y="111" type="curve"/>
      <point x="437" y="55" type="line"/>
      <point x="393" y="20"/>
      <point x="341" y="-8"/>
      <point x="265" y="-8" type="curve" smooth="yes"/>
      <point x="135" y="-8"/>
      <point x="46" y="108"/>
    </contour>
  </outline>
</glyph>
<glyph name="uni018E" format="2">
  <advance width="625"/>
  <unicode hex="018E"/>
  <outline>
    <contour>
      <point x="98" y="0" type="line"/>
      <point x="98" y="56" type="line"/>
      <point x="511" y="56" type="line"/>
      <point x="511" y="334" type="line"/>
      <point x="142" y="334" type="line"/>
      <point x="142" y="387" type="line"/>
      <point x="511" y="387" type="line"/>
      <point x="511" y="640" type="line"/>
      <point x="113" y="640" type="line"/>
      <point x="113" y="693" type="line"/>
      <point x="581" y="693" type="line"/>
      <point x="581" y="0" type="line"/>
    </contour>
  </outline>
</glyph>
<glyph name="uni018F" format="2">
  <advance width="700"/>
  <unicode hex="018F"/>
  <anchor x="336" y="790" name="top"/>
  <outline>
    <contour>
      <point x="29" y="333" type="curve"/>
      <point x="578" y="333" type="line"/>
      <point x="578" y="492"/>
      <point x="495" y="658"/>
      <point x="326" y="658" type="curve" smooth="yes"/>
      <point x="209" y="658"/>
      <point x="185" y="645"/>
      <point x="99" y="608" type="curve"/>
      <point x="87" y="677" type="line"/>
      <point x="197" y="708"/>
      <point x="214" y="710"/>
      <point x="340" y="711" type="curve"/>
      <point x="489" y="708"/>
      <point x="646" y="572"/>
      <point x="646" y="343" type="curve" smooth="yes"/>
      <point x="646" y="122"/>
      <point x="521" y="-17"/>
      <point x="334" y="-17" type="curve" smooth="yes"/>
      <point x="242" y="-17"/>
      <point x="137" y="16"/>
      <point x="77" y="120" type="curve" smooth="yes"/>
      <point x="47" y="172"/>
      <point x="29" y="241"/>
    </contour>
    <contour>
      <point x="95" y="285" type="line"/>
      <point x="95" y="211"/>
      <point x="144" y="35"/>
      <point x="333" y="35" type="curve" smooth="yes"/>
      <point x="399" y="35"/>
      <point x="546" y="65"/>
      <point x="574" y="285" type="curve"/>
    </contour>
  </outline>
</glyph>
<glyph name="uni0190" format="2">
  <advance width="583"/>
  <unicode hex="0190"/>
  <outline>
    <contour>
      <point x="43" y="185" type="curve" smooth="yes"/>
      <point x="43" y="341"/>
      <point x="201" y="359"/>
      <point x="220" y="363" type="curve"/>
      <point x="140" y="377"/>
      <point x="72" y="429" name=".hr01"/>
      <point x="72" y="524" type="curve" smooth="yes"/>
      <point x="72" y="691"/>
      <point x="205" y="711"/>
      <point x="316" y="711" type="curve" smooth="yes"/>
      <point x="397" y="711"/>
      <point x="451" y="700"/>
      <point x="518" y="677" type="curve"/>
      <point x="506" y="608" type="line"/>
      <point x="468" y="627" type="line" smooth="yes"/>
      <point x="429" y="646"/>
      <point x="384" y="657"/>
      <point x="315" y="658" type="curve" smooth="yes"/>
      <point x="216" y="658"/>
      <point x="137" y="631" name=".hr02"/>
      <point x="137" y="524" type="curve" smooth="yes"/>
      <point x="137" y="468"/>
      <point x="159" y="386"/>
      <point x="306" y="386" type="curve" smooth="yes"/>
      <point x="378" y="386" type="line"/>
      <point x="378" y="336" type="line"/>
      <point x="293" y="336" type="line" smooth="yes"/>
      <point x="135" y="336"/>
      <point x="109" y="246" name=".hr03"/>
      <point x="109" y="187" type="curve" smooth="yes"/>
      <point x="109" y="127"/>
      <point x="135" y="36"/>
      <point x="293" y="36" type="curve" smooth="yes"/>
      <point x="417" y="36"/>
      <point x="451" y="61"/>
      <point x="525" y="97" type="curve"/>
      <point x="530" y="39" type="line"/>
      <point x="452" y="2"/>
      <point x="410" y="-17"/>
      <point x="289" y="-17" type="curve" smooth="yes"/>
      <point x="81" y="-17"/>
      <point x="43" y="106"/>
    </contour>
  </outline>
</glyph>
<glyph name="florin" format="2">
  <advance width="650"/>
  <unicode hex="0192"/>
  <outline>
    <contour>
      <point x="18" y="-146" type="curve"/>
      <point x="46" y="-95" type="line"/>
      <point x="70" y="-113"/>
      <point x="92" y="-122"/>
      <point x="124" y="-122" type="curve" smooth="yes"/>
      <point x="175" y="-122"/>
      <point x="214" y="-98"/>
      <point x="224" y="-52" type="curve" smooth="yes"/>
      <point x="324" y="422" type="line"/>
      <point x="238" y="422" type="line"/>
      <point x="250" y="472" type="line"/>
      <point x="334" y="472" type="line"/>
      <point x="350" y="542" type="line" smooth="yes"/>
      <point x="357" y="574"/>
      <point x="359" y="582"/>
      <point x="368" y="598" type="curve" smooth="yes"/>
      <point x="387" y="631"/>
      <point x="439" y="703"/>
      <point x="550" y="703" type="curve" smooth="yes"/>
      <point x="586" y="703"/>
      <point x="616" y="697"/>
      <point x="632" y="695" type="curve"/>
      <point x="620" y="638" type="line"/>
      <point x="594" y="647"/>
      <point x="572" y="652"/>
      <point x="538" y="652" type="curve" smooth="yes"/>
      <point x="516" y="652"/>
      <point x="498" y="649"/>
      <point x="483" y="644" type="curve" smooth="yes"/>
      <point x="434" y="628"/>
      <point x="424" y="606"/>
      <point x="418" y="576" type="curve" smooth="yes"/>
      <point x="396" y="472" type="line"/>
      <point x="522" y="472" type="line"/>
      <point x="510" y="422" type="line"/>
      <point x="388" y="422" type="line"/>
      <point x="359" y="289"/>
      <point x="330" y="156"/>
      <point x="302" y="23" type="curve" smooth="yes"/>
      <point x="294" y="-12"/>
      <point x="292" y="-58"/>
      <point x="272" y="-91" type="curve"/>
      <point x="260" y="-116"/>
      <point x="212" y="-175"/>
      <point x="134" y="-175" type="curve" smooth="yes"/>
      <point x="86" y="-175"/>
      <point x="51" y="-164"/>
    </contour>
  </outline>
</glyph>
<glyph name="uni0195" format="2">
  <advance width="738"/>
  <unicode hex="0195"/>
  <outline>
    <contour>
      <point x="80" y="0" type="line"/>
      <point x="80" y="695" type="line"/>
      <point x="144" y="695" type="line"/>
      <point x="144" y="378" type="line"/>
      <point x="160" y="413"/>
      <point x="203" y="480"/>
      <point x="293" y="480" type="curve" smooth="yes"/>
      <point x="435" y="480"/>
      <point x="436" y="373.494"/>
      <point x="436" y="316" type="curve" smooth="yes"/>
      <point x="436" y="187" type="line" smooth="yes"/>
      <point x="436" y="97"/>
      <point x="458" y="42" name=".hr01"/>
      <point x="548" y="42" type="curve" smooth="yes"/>
      <point x="638" y="42"/>
      <point x="664" y="97"/>
      <point x="664" y="187" type="curve" smooth="yes"/>
      <point x="664" y="464" type="line"/>
      <point x="728" y="464" type="line"/>
      <point x="728" y="187" type="line" smooth="yes"/>
      <point x="728" y="37"/>
      <point x="656.791" y="-8"/>
      <point x="548" y="-8" type="curve" smooth="yes"/>
      <point x="436.736" y="-8"/>
      <point x="372" y="37"/>
      <point x="372" y="187" type="curve" smooth="yes"/>
      <point x="372" y="316" type="line" smooth="yes"/>
      <point x="372" y="386.048"/>
      <point x="343.8" y="430"/>
      <point x="259" y="430" type="curve" smooth="yes"/>
      <point x="203" y="430"/>
      <point x="144" y="386"/>
      <point x="144" y="269" type="curve" smooth="yes"/>
      <point x="144" y="0" type="line" name=".hr02"/>
    </contour>
  </outline>
</glyph>
<glyph name="uni0199" format="2">
  <advance width="487"/>
  <unicode hex="0199"/>
  <outline>
    <contour>
      <point x="82" y="0" type="line"/>
      <point x="82" y="548" type="line"/>
      <point x="83" y="580"/>
      <point x="83" y="632"/>
      <point x="160" y="677" type="curve" smooth="yes"/>
      <point x="201" y="701"/>
      <point x="249" y="711"/>
      <point x="296" y="711" type="curve" smooth="yes"/>
      <point x="359" y="711"/>
      <point x="398" y="696"/>
      <point x="446" y="661" type="curve"/>
      <point x="427" y="609" type="line"/>
      <point x="396" y="634"/>
      <point x="367" y="661"/>
      <point x="295" y="661" type="curve" smooth="yes"/>
      <point x="239" y="661"/>
      <point x="142" y="639"/>
      <point x="142" y="551" type="curve" smooth="yes"/>
      <point x="142" y="245" type="line"/>
      <point x="367" y="472" type="line"/>
      <point x="446" y="472" type="line"/>
      <point x="269" y="294" type="line"/>
      <point x="469" y="0" type="line"/>
      <point x="400" y="0" type="line"/>
      <point x="228" y="252" type="line"/>
      <point x="141" y="165" type="line"/>
      <point x="141" y="0" type="line"/>
    </contour>
  </outline>
</glyph>
<glyph name="uni019A" format="2">
  <advance width="408"/>
  <unicode hex="019A"/>
  <outline>
    <contour>
      <point x="55" y="362" type="line"/>
      <point x="55" y="412" type="line"/>
      <point x="171" y="412" type="line"/>
      <point x="171" y="695" type="line"/>
      <point x="235" y="695" type="line"/>
      <point x="235" y="412" type="line"/>
      <point x="351" y="412" type="line"/>
      <point x="351" y="362" type="line"/>
      <point x="235" y="362" type="line"/>
      <point x="235" y="0" type="line"/>
      <point x="171" y="0" type="line"/>
      <point x="171" y="362" type="line"/>
    </contour>
  </outline>
</glyph>
<glyph name="uni019B" format="2">
  <advance width="554"/>
  <unicode hex="019B"/>
  <outline>
    <contour>
      <point x="-18" y="669" type="curve" smooth="yes"/>
      <point x="-18" y="693"/>
      <point x="3" y="695"/>
      <point x="18" y="695" type="curve" smooth="yes"/>
      <point x="140" y="695"/>
      <point x="143" y="652"/>
      <point x="169" y="611" type="curve"/>
      <point x="185" y="581" type="line"/>
      <point x="233" y="491" type="line"/>
      <point x="273" y="513"/>
      <point x="314" y="534"/>
      <point x="354" y="556" type="curve"/>
      <point x="381" y="505" type="line"/>
      <point x="262" y="440" type="line"/>
      <point x="464" y="67" type="line" smooth="yes"/>
      <point x="481" y="35"/>
      <point x="489" y="17"/>
      <point x="515" y="-8" type="curve"/>
      <point x="465" y="-8" type="line" smooth="yes"/>
      <point x="448" y="-8"/>
      <point x="429" y="-6"/>
      <point x="402" y="45" type="curve" smooth="yes"/>
      <point x="266" y="298" type="line"/>
      <point x="217" y="205"/>
      <point x="168" y="112"/>
      <point x="121" y="19" type="curve" smooth="yes"/>
      <point x="109" y="-5"/>
      <point x="100" y="-5"/>
      <point x="97" y="-7" type="curve"/>
      <point x="93" y="-8"/>
      <point x="91" y="-8"/>
      <point x="90" y="-8" type="curve" smooth="yes"/>
      <point x="59" y="-8"/>
      <point x="55" y="21"/>
      <point x="55" y="22" type="curve" smooth="yes"/>
      <point x="55" y="36"/>
      <point x="62" y="44"/>
      <point x="88" y="93" type="curve"/>
      <point x="88" y="93" type="line"/>
      <point x="137" y="180"/>
      <point x="185" y="268"/>
      <point x="234" y="355" type="curve"/>
      <point x="205" y="409" type="line"/>
      <point x="165" y="387"/>
      <point x="125" y="366"/>
      <point x="85" y="344" type="curve"/>
      <point x="57" y="396" type="line"/>
      <point x="177" y="460" type="line"/>
      <point x="106" y="591"/>
      <point x="94" y="617"/>
      <point x="81" y="627" type="curve" smooth="yes"/>
      <point x="43" y="657"/>
      <point x="-18" y="627"/>
    </contour>
  </outline>
</glyph>
<glyph name="uni019E" format="2">
  <advance width="487"/>
  <unicode hex="019E"/>
  <outline>
    <contour>
      <point x="80" y="0" type="line"/>
      <point x="80" y="472" type="line"/>
      <point x="142" y="472" type="line"/>
      <point x="142" y="375" type="line"/>
      <point x="159" y="414"/>
      <point x="203" y="480" name=".hr01"/>
      <point x="294" y="480" type="curve" smooth="yes"/>
      <point x="434" y="480"/>
      <point x="436" y="371"/>
      <point x="436" y="313" type="curve" smooth="yes"/>
      <point x="436" y="-167" type="line"/>
      <point x="371" y="-167" type="line"/>
      <point x="371" y="309" type="line" smooth="yes"/>
      <point x="371" y="374"/>
      <point x="358" y="430" name=".hr02"/>
      <point x="259" y="430" type="curve" smooth="yes"/>
      <point x="186" y="430"/>
      <point x="144" y="364"/>
      <point x="144" y="270" type="curve" smooth="yes"/>
      <point x="144" y="268"/>
      <point x="144" y="265"/>
      <point x="145" y="262" type="curve"/>
      <point x="145" y="0" type="line"/>
    </contour>
  </outline>
</glyph>
<glyph name="Ohorn" format="2">
  <advance width="783"/>
  <unicode hex="01A0"/>
  <outline>
    <contour>
      <point x="58" y="346" type="curve" smooth="yes"/>
      <point x="58" y="547"/>
      <point x="207" y="711"/>
      <point x="391" y="711" type="curve" smooth="yes"/>
      <point x="436" y="711"/>
      <point x="500" y="699"/>
      <point x="555" y="664" type="curve"/>
      <point x="588" y="694" type="line" name=".hr01"/>
      <point x="565" y="694" type="line"/>
      <point x="565" y="772" type="line" name=".hr02"/>
      <point x="643" y="772" type="line"/>
      <point x="643" y="694" type="line" name=".hr03"/>
      <point x="581" y="646" type="line"/>
      <point x="615" y="618"/>
      <point x="724" y="528"/>
      <point x="724" y="346" type="curve" smooth="yes"/>
      <point x="724" y="144"/>
      <point x="574" y="-17"/>
      <point x="391" y="-17" type="curve" smooth="yes"/>
      <point x="215" y="-17"/>
      <point x="58" y="136"/>
    </contour>
    <contour>
      <point x="128" y="359" type="curve" smooth="yes"/>
      <point x="128" y="265"/>
      <point x="156" y="185"/>
      <point x="204" y="127" type="curve"/>
      <point x="204" y="127" type="line"/>
      <point x="251" y="70"/>
      <point x="317" y="36"/>
      <point x="391" y="36" type="curve" smooth="yes"/>
      <point x="522" y="36"/>
      <point x="654" y="154"/>
      <point x="654" y="359" type="curve" smooth="yes"/>
      <point x="654" y="543"/>
      <point x="534" y="659"/>
      <point x="391" y="659" type="curve" name=".hr04"/>
      <point x="391" y="659" type="line"/>
      <point x="391" y="659" type="line"/>
      <point x="259" y="659"/>
      <point x="128" y="554"/>
    </contour>
  </outline>
</glyph>
<glyph name="ohorn" format="2">
  <advance width="525"/>
  <unicode hex="01A1"/>
  <outline>
    <contour>
      <point x="40" y="236" type="curve" smooth="yes"/>
      <point x="40" y="351"/>
      <point x="113" y="455"/>
      <point x="216" y="479" type="curve"/>
      <point x="231" y="482"/>
      <point x="246" y="484"/>
      <point x="262" y="484" type="curve" smooth="yes"/>
      <point x="312" y="484"/>
      <point x="355" y="466"/>
      <point x="387" y="440" type="curve"/>
      <point x="422" y="472" type="line" name=".hr01"/>
      <point x="399" y="472" type="line"/>
      <point x="399" y="550" type="line" name=".hr02"/>
      <point x="477" y="550" type="line"/>
      <point x="477" y="472" type="line" name=".hr03"/>
      <point x="411" y="420" type="line"/>
      <point x="462" y="367"/>
      <point x="484" y="300"/>
      <point x="484" y="236" type="curve" smooth="yes"/>
      <point x="484" y="103"/>
      <point x="388" y="-8"/>
      <point x="261" y="-8" type="curve" smooth="yes"/>
      <point x="147" y="-8"/>
      <point x="40" y="92"/>
    </contour>
    <contour>
      <point x="105" y="245" type="curve" smooth="yes"/>
      <point x="105" y="84"/>
      <point x="199" y="44"/>
      <point x="262" y="44" type="curve" smooth="yes"/>
      <point x="325" y="44"/>
      <point x="419" y="84"/>
      <point x="419" y="245" type="curve" smooth="yes"/>
      <point x="419" y="396"/>
      <point x="325" y="434"/>
      <point x="262" y="434" type="curve" smooth="yes" name=".hr04"/>
      <point x="199" y="434"/>
      <point x="105" y="397"/>
    </contour>
  </outline>
</glyph>
<glyph name="uni01A5" format="2">
  <advance width="487"/>
  <unicode hex="01A5"/>
  <outline>
    <contour>
      <point x="51" y="-167" type="line"/>
      <point x="51" y="489" type="line"/>
      <point x="51" y="554" type="line" smooth="yes"/>
      <point x="51" y="650"/>
      <point x="156" y="711"/>
      <point x="279" y="711" type="curve" smooth="yes"/>
      <point x="375" y="711"/>
      <point x="414" y="675"/>
      <point x="440" y="661" type="curve"/>
      <point x="421" y="609" type="line"/>
      <point x="375" y="644"/>
      <point x="343" y="661"/>
      <point x="279" y="661" type="curve" smooth="yes"/>
      <point x="199" y="661"/>
      <point x="114" y="626"/>
      <point x="114" y="548" type="curve" smooth="yes"/>
      <point x="114" y="500"/>
      <point x="115" y="453"/>
      <point x="115" y="405" type="curve"/>
      <point x="170" y="477"/>
      <point x="246" y="480"/>
      <point x="264" y="480" type="curve" smooth="yes"/>
      <point x="363" y="480"/>
      <point x="440" y="372"/>
      <point x="440" y="238" type="curve" smooth="yes"/>
      <point x="440" y="98"/>
      <point x="352" y="-8"/>
      <point x="245" y="-8" type="curve" smooth="yes"/>
      <point x="167" y="-8"/>
      <point x="128" y="49"/>
      <point x="116" y="66" type="curve"/>
      <point x="116" y="-167" type="line"/>
    </contour>
    <contour>
      <point x="115" y="130" type="curve" smooth="yes"/>
      <point x="115" y="90"/>
      <point x="157" y="42"/>
      <point x="214" y="42" type="curve" smooth="yes"/>
      <point x="278" y="42"/>
      <point x="375" y="81"/>
      <point x="375" y="236" type="curve" smooth="yes"/>
      <point x="375" y="401"/>
      <point x="277" y="430"/>
      <point x="225" y="430" type="curve" smooth="yes"/>
      <point x="160" y="430"/>
      <point x="122" y="378"/>
      <point x="117" y="362" type="curve" smooth="yes"/>
      <point x="115" y="356"/>
      <point x="116" y="349"/>
      <point x="116" y="343" type="curve" smooth="yes"/>
      <point x="116" y="145" type="line" smooth="yes"/>
      <point x="116" y="140"/>
      <point x="115" y="135"/>
    </contour>
  </outline>
</glyph>
<glyph name="uni01A7" format="2">
  <advance width="583"/>
  <unicode hex="01A7"/>
  <outline>
    <contour>
      <point x="46" y="177" type="curve" smooth="yes"/>
      <point x="46" y="274"/>
      <point x="84.6625" y="347.949"/>
      <point x="188" y="374" type="curve" smooth="yes"/>
      <point x="307" y="404" type="line" smooth="yes"/>
      <point x="395.659" y="426.351"/>
      <point x="449" y="466"/>
      <point x="449" y="530" type="curve" smooth="yes"/>
      <point x="449" y="604.26"/>
      <point x="372.824" y="656"/>
      <point x="286" y="656" type="curve" smooth="yes"/>
      <point x="188.889" y="656"/>
      <point x="121.333" y="611"/>
      <point x="96" y="594" type="curve"/>
      <point x="84" y="663" type="line"/>
      <point x="147.125" y="694"/>
      <point x="199.729" y="711"/>
      <point x="286" y="711" type="curve" smooth="yes"/>
      <point x="422.941" y="711"/>
      <point x="512" y="623.868"/>
      <point x="512" y="532" type="curve" smooth="yes"/>
      <point x="512" y="462"/>
      <point x="495.461" y="387.423"/>
      <point x="372" y="359" type="curve" smooth="yes"/>
      <point x="233" y="327" type="line" smooth="yes"/>
      <point x="144.996" y="306.74"/>
      <point x="109" y="255.662"/>
      <point x="109" y="180" type="curve" smooth="yes"/>
      <point x="109" y="94"/>
      <point x="173" y="40"/>
      <point x="282" y="40" type="curve" smooth="yes"/>
      <point x="391.732" y="40"/>
      <point x="458.076" y="82.3068"/>
      <point x="511" y="122" type="curve"/>
      <point x="524" y="53" type="line"/>
      <point x="460" y="14"/>
      <point x="379" y="-17"/>
      <point x="282" y="-17" type="curve" smooth="yes"/>
      <point x="141" y="-17"/>
      <point x="46" y="57.1471"/>
    </contour>
  </outline>
</glyph>
<glyph name="uni01A8" format="2">
  <advance width="402"/>
  <unicode hex="01A8"/>
  <outline>
    <contour>
      <point x="29" y="120" type="curve" smooth="yes"/>
      <point x="29" y="220.136"/>
      <point x="96.4159" y="248.863"/>
      <point x="151" y="266" type="curve" smooth="yes"/>
      <point x="237" y="293" type="line" smooth="yes"/>
      <point x="272.293" y="304.08"/>
      <point x="314" y="324.689"/>
      <point x="314" y="360" type="curve" smooth="yes"/>
      <point x="314" y="390"/>
      <point x="295" y="435"/>
      <point x="209" y="435" type="curve" smooth="yes"/>
      <point x="148" y="435"/>
      <point x="112" y="424"/>
      <point x="57" y="396" type="curve"/>
      <point x="47" y="451" type="line"/>
      <point x="104" y="476"/>
      <point x="141" y="485"/>
      <point x="200" y="485" type="curve" smooth="yes"/>
      <point x="342" y="485"/>
      <point x="372" y="411.015"/>
      <point x="372" y="362" type="curve" smooth="yes"/>
      <point x="372" y="283.756"/>
      <point x="314.893" y="256.942"/>
      <point x="271" y="242" type="curve" smooth="yes"/>
      <point x="177" y="210" type="line" smooth="yes"/>
      <point x="135.356" y="195.823"/>
      <point x="87" y="178.387"/>
      <point x="87" y="119" type="curve" smooth="yes"/>
      <point x="87" y="88.8171"/>
      <point x="109" y="44"/>
      <point x="200" y="44" type="curve" smooth="yes"/>
      <point x="281" y="44"/>
      <point x="334" y="74"/>
      <point x="368" y="97" type="curve"/>
      <point x="378" y="39" type="line"/>
      <point x="351" y="24"/>
      <point x="289" y="-8"/>
      <point x="199" y="-8" type="curve" smooth="yes"/>
      <point x="60" y="-8"/>
      <point x="29" y="58.8"/>
    </contour>
  </outline>
</glyph>
<glyph name="uni01AA" format="2">
  <advance width="367"/>
  <unicode hex="01AA"/>
  <outline>
    <contour>
      <point x="-8" y="611" type="curve" smooth="yes"/>
      <point x="-8" y="673"/>
      <point x="51" y="711"/>
      <point x="107" y="711" type="curve" smooth="yes"/>
      <point x="117" y="711"/>
      <point x="130" y="709"/>
      <point x="143" y="705" type="curve" smooth="yes"/>
      <point x="182" y="692"/>
      <point x="224" y="655"/>
      <point x="224" y="572" type="curve" smooth="yes"/>
      <point x="224" y="509" type="line"/>
      <point x="224" y="-62" type="line"/>
      <point x="226" y="-86"/>
      <point x="244" y="-133"/>
      <point x="297" y="-133" type="curve" smooth="yes"/>
      <point x="345" y="-133"/>
      <point x="365" y="-103"/>
      <point x="377" y="-87" type="curve"/>
      <point x="396" y="-139" type="line"/>
      <point x="381" y="-154"/>
      <point x="356" y="-184"/>
      <point x="295" y="-184" type="curve" smooth="yes"/>
      <point x="244" y="-184"/>
      <point x="161" y="-155"/>
      <point x="161" y="-42" type="curve" smooth="yes"/>
      <point x="161" y="525" type="line"/>
      <point x="145" y="517"/>
      <point x="129" y="511"/>
      <point x="106" y="511" type="curve" smooth="yes"/>
      <point x="53" y="511"/>
      <point x="-8" y="548"/>
    </contour>
    <contour>
      <point x="47" y="611" type="curve" smooth="yes"/>
      <point x="47" y="578"/>
      <point x="81" y="561"/>
      <point x="106" y="561" type="curve" smooth="yes"/>
      <point x="139" y="561"/>
      <point x="157" y="594"/>
      <point x="157" y="609" type="curve" smooth="yes"/>
      <point x="157" y="625"/>
      <point x="137" y="661"/>
      <point x="106" y="661" type="curve" smooth="yes"/>
      <point x="74" y="661"/>
      <point x="47" y="639"/>
    </contour>
  </outline>
</glyph>
<glyph name="uni01AB" format="2">
  <advance width="408"/>
  <unicode hex="01AB"/>
  <outline>
    <contour>
      <point x="19" y="422" type="line"/>
      <point x="19" y="472" type="line"/>
      <point x="115" y="472" type="line"/>
      <point x="115" y="607" type="line"/>
      <point x="176" y="607" type="line"/>
      <point x="176" y="472" type="line"/>
      <point x="331" y="472" type="line"/>
      <point x="331" y="422" type="line"/>
      <point x="176" y="422" type="line"/>
      <point x="176" y="115" type="line" smooth="yes"/>
      <point x="176" y="93.1538"/>
      <point x="182.805" y="44"/>
      <point x="233" y="44" type="curve" smooth="yes"/>
      <point x="286.204" y="44"/>
      <point x="341.117" y="67.439"/>
      <point x="349" y="75" type="curve"/>
      <point x="349" y="-35" type="line" smooth="yes"/>
      <point x="349" y="-131.717"/>
      <point x="291.993" y="-184"/>
      <point x="227" y="-184" type="curve" smooth="yes"/>
      <point x="168" y="-184"/>
      <point x="143" y="-154"/>
      <point x="129" y="-139" type="curve"/>
      <point x="149" y="-87" type="line"/>
      <point x="161" y="-107"/>
      <point x="179" y="-133"/>
      <point x="226" y="-133" type="curve" smooth="yes"/>
      <point x="277.715" y="-133"/>
      <point x="297" y="-89.8449"/>
      <point x="297" y="-52" type="curve" smooth="yes"/>
      <point x="297" y="5" type="line"/>
      <point x="268.794" y="-4.38889"/>
      <point x="242.814" y="-8"/>
      <point x="225" y="-8" type="curve" smooth="yes"/>
      <point x="123.018" y="-8"/>
      <point x="114" y="66.8333"/>
      <point x="114" y="145" type="curve" smooth="yes"/>
      <point x="114" y="422" type="line"/>
    </contour>
  </outline>
</glyph>
